<?xml version="1.0" encoding="utf-8"?>
<!-- Generator: Adobe Illustrator 23.0.3, SVG Export Plug-In . SVG Version: 6.00 Build 0)  -->
<svg version="1.1" id="Livello_1" xmlns="http://www.w3.org/2000/svg" xmlns:xlink="http://www.w3.org/1999/xlink" x="0px" y="0px"
	 viewBox="0 0 270.3 69.4" style="enable-background:new 0 0 270.3 69.4;" xml:space="preserve">
<style type="text/css">
	.st0{fill:#E8E100;}
</style>
<path class="st0" d="M259.9,49.4c-1.2-1.2-1.8-2.7-1.8-4.4c0-1.7,0.6-3.2,1.8-4.4c1.2-1.2,2.6-1.8,4.3-1.8s3.1,0.6,4.3,1.8
	c1.2,1.2,1.8,2.7,1.8,4.4c0,1.7-0.6,3.2-1.8,4.4c-1.2,1.2-2.6,1.8-4.3,1.8C262.4,51.2,261,50.6,259.9,49.4z"/>
<path class="st0" d="M46.2,50.9H0V39.1h46.2"/>
<path d="M77.4,52c-1.4,0-2.7-0.2-3.9-0.5c-1.1-0.3-2.2-0.7-3.1-1.2s-1.8-1.1-2.5-1.8c-0.7-0.7-1.4-1.4-2-2.1V51H52.5V0h13.4
	l-0.1,18.3c0.7-0.8,1.4-1.5,2.1-2.2s1.6-1.3,2.5-1.9c0.9-0.5,1.9-1,3.1-1.3c1.1-0.3,2.4-0.5,3.8-0.5c2.2,0,4.4,0.5,6.4,1.4
	s3.8,2.2,5.3,3.9c1.5,1.7,2.8,3.7,3.7,6.2c0.9,2.4,1.4,5.2,1.4,8.2v0.1c0,3.1-0.5,5.8-1.4,8.3c-0.9,2.4-2.1,4.5-3.6,6.2
	s-3.3,3-5.3,3.9C81.7,51.6,79.6,52,77.4,52z M73.2,40.9c2.2,0,4-0.8,5.5-2.4s2.2-3.7,2.2-6.2v-0.1c0-2.5-0.7-4.6-2.2-6.2
	s-3.3-2.4-5.5-2.4c-1.1,0-2.1,0.2-3,0.6s-1.7,1-2.4,1.8c-0.7,0.8-1.2,1.7-1.6,2.7s-0.6,2.2-0.6,3.4v0.1c0,1.3,0.2,2.4,0.6,3.5
	c0.4,1,0.9,2,1.6,2.7c0.7,0.8,1.5,1.4,2.4,1.8C71.2,40.7,72.2,40.9,73.2,40.9z"/>
<path d="M96.8,0.1h13.4v51H96.8V0.1z"/>
<path d="M133,52.1c-3,0-5.7-0.5-8.2-1.4c-2.5-1-4.6-2.3-6.4-4s-3.2-3.8-4.2-6.2c-1-2.4-1.5-5.1-1.5-8v-0.1c0-2.7,0.5-5.3,1.4-7.7
	c0.9-2.4,2.2-4.5,4-6.3c1.7-1.8,3.7-3.2,6-4.2s4.9-1.5,7.7-1.5c3.3,0,6.1,0.6,8.5,1.7s4.4,2.6,5.9,4.5c1.6,1.9,2.7,4.1,3.5,6.6
	s1.2,5.1,1.2,7.9c0,0.4,0,0.9,0,1.3c0,0.5,0,0.9-0.1,1.4h-25.3c0.5,2.1,1.5,3.7,2.9,4.7s3.2,1.5,5.3,1.5c1.6,0,3-0.3,4.4-0.9
	c1.3-0.6,2.7-1.6,4-2.9l7.3,6.1c-1.8,2.3-4.1,4.2-6.7,5.6C140,51.4,136.8,52.1,133,52.1z M138.5,29.2c-0.2-2.1-0.9-3.8-2.1-5
	s-2.7-1.9-4.5-1.9s-3.2,0.6-4.3,1.9c-1.1,1.2-1.9,2.9-2.2,5H138.5z"/>
<path d="M163.1,32.1l-12.5-18.7h14.3l5.6,9.3l5.6-9.3h14.1l-12.4,18.7l12.7,19.2h-14.3l-5.9-9.7l-5.9,9.7h-14L163.1,32.1z"/>
<path d="M194.8,13.4h13.4v37.8h-13.4V13.4z"/>
<path d="M214.5,13.4h13.3v5.3c0.6-0.8,1.3-1.6,2-2.3c0.7-0.7,1.6-1.4,2.5-2s1.9-1,3-1.4s2.3-0.5,3.7-0.5c4.1,0,7.3,1.2,9.5,3.7
	c2.3,2.5,3.4,5.9,3.4,10.2v24.8h-13.4V30.7c0-2.1-0.5-3.7-1.4-4.8c-1-1.1-2.2-1.6-3.8-1.6s-2.9,0.5-4,1.6c-1,1.1-1.6,2.7-1.6,4.8
	v20.5h-13.4V13.4H214.5z"/>
<g>
	<path d="M101.2,61.3h1.5v7.9h-1.5V61.3z"/>
	<path d="M106.4,62.6h-2.6v-1.2h6.7v1.2h-2.6v6.7h-1.5V62.6z"/>
	<path d="M112.9,61.1c0.2,0.2,0.3,0.4,0.3,0.7c0,0.1,0,0.3-0.1,0.4c0,0.1-0.1,0.3-0.2,0.6l-0.6,1.6h-0.9l0.5-1.7
		c-0.2-0.1-0.3-0.2-0.4-0.3c-0.1-0.1-0.1-0.3-0.1-0.5c0-0.3,0.1-0.5,0.3-0.7c0.2-0.2,0.4-0.3,0.7-0.3
		C112.5,60.8,112.7,60.9,112.9,61.1z"/>
	<path d="M115.5,69.1c-0.6-0.2-1-0.4-1.4-0.7l0.5-1.1c0.3,0.3,0.7,0.5,1.2,0.6c0.5,0.2,0.9,0.2,1.4,0.2c0.6,0,1-0.1,1.3-0.3
		c0.3-0.2,0.4-0.4,0.4-0.7c0-0.2-0.1-0.4-0.2-0.6c-0.2-0.1-0.4-0.3-0.6-0.3c-0.2-0.1-0.6-0.2-1-0.3c-0.6-0.1-1.1-0.3-1.5-0.4
		s-0.7-0.4-1-0.7c-0.3-0.3-0.4-0.7-0.4-1.2c0-0.4,0.1-0.8,0.4-1.2c0.2-0.4,0.6-0.6,1.1-0.9c0.5-0.2,1.1-0.3,1.8-0.3
		c0.5,0,1,0.1,1.4,0.2c0.5,0.1,0.9,0.3,1.2,0.5l-0.5,1.1c-0.3-0.2-0.7-0.4-1.1-0.5s-0.7-0.2-1.1-0.2c-0.6,0-1,0.1-1.3,0.3
		c-0.3,0.2-0.4,0.5-0.4,0.8c0,0.2,0.1,0.4,0.2,0.6c0.2,0.1,0.4,0.3,0.6,0.3c0.2,0.1,0.6,0.2,1,0.3c0.6,0.1,1.1,0.3,1.5,0.4
		s0.7,0.4,1,0.7c0.3,0.3,0.4,0.7,0.4,1.2c0,0.4-0.1,0.8-0.4,1.2c-0.2,0.4-0.6,0.6-1.1,0.9c-0.5,0.2-1.1,0.3-1.8,0.3
		C116.7,69.4,116.1,69.3,115.5,69.1z"/>
	<path d="M131,68.1v1.2h-6v-7.9h5.8v1.2h-4.3v2.1h3.8v1.2h-3.8v2.2L131,68.1L131,68.1z"/>
	<path d="M137.8,67.4h-4l-0.8,1.8h-1.5l3.6-7.9h1.5l3.6,7.9h-1.5L137.8,67.4z M137.3,66.3l-1.5-3.5l-1.5,3.5H137.3z"/>
	<path d="M141.9,69.1c-0.6-0.2-1-0.4-1.4-0.7l0.5-1.1c0.3,0.3,0.7,0.5,1.2,0.6c0.5,0.2,0.9,0.2,1.4,0.2c0.6,0,1-0.1,1.3-0.3
		c0.3-0.2,0.4-0.4,0.4-0.7c0-0.2-0.1-0.4-0.2-0.6c-0.2-0.1-0.4-0.3-0.6-0.3c-0.2-0.1-0.6-0.2-1-0.3c-0.6-0.1-1.1-0.3-1.5-0.4
		s-0.7-0.4-1-0.7c-0.3-0.3-0.4-0.7-0.4-1.2c0-0.4,0.1-0.8,0.4-1.2c0.2-0.4,0.6-0.6,1.1-0.9c0.5-0.2,1.1-0.3,1.8-0.3
		c0.5,0,1,0.1,1.4,0.2c0.5,0.1,0.9,0.3,1.2,0.5L146,63c-0.3-0.2-0.7-0.4-1.1-0.5s-0.7-0.2-1.1-0.2c-0.6,0-1,0.1-1.3,0.3
		c-0.3,0.2-0.4,0.5-0.4,0.8c0,0.2,0.1,0.4,0.2,0.6c0.2,0.1,0.4,0.3,0.6,0.3c0.2,0.1,0.6,0.2,1,0.3c0.6,0.1,1.1,0.3,1.5,0.4
		s0.7,0.4,1,0.7c0.3,0.3,0.4,0.7,0.4,1.2c0,0.4-0.1,0.8-0.4,1.2c-0.2,0.4-0.6,0.6-1.1,0.9c-0.5,0.2-1.1,0.3-1.8,0.3
		C143,69.4,142.4,69.3,141.9,69.1z"/>
	<path d="M151.6,66.5v2.8h-1.5v-2.8l-3.1-5.2h1.6l2.3,3.9l2.3-3.9h1.5L151.6,66.5z"/>
	<path d="M170.4,61.3l-2.6,7.9h-1.6l-2-5.9l-2,5.9h-1.6l-2.6-7.9h1.5l2,6l2.1-6h1.4l2,6.1l2-6.1H170.4z"/>
	<path d="M171.6,61.3h1.5v7.9h-1.5V61.3z"/>
	<path d="M176.8,62.6h-2.6v-1.2h6.7v1.2h-2.6v6.7h-1.5V62.6z"/>
	<path d="M189.1,61.3v7.9h-1.5v-3.3h-4.1v3.4H182v-7.9h1.5v3.3h4.1v-3.3h1.5V61.3z"/>
	<path d="M195.2,68.5c-0.6-0.6-0.9-1.5-0.9-2.6v-4.5h1.5v4.4c0,1.6,0.7,2.3,2,2.3s2-0.8,2-2.3v-4.4h1.5v4.5c0,1.1-0.3,2-0.9,2.6
		s-1.5,0.9-2.6,0.9C196.6,69.4,195.8,69.1,195.2,68.5z"/>
	<path d="M204,69.1c-0.6-0.2-1-0.4-1.4-0.7l0.5-1.1c0.3,0.3,0.7,0.5,1.2,0.6c0.5,0.2,0.9,0.2,1.4,0.2c0.6,0,1-0.1,1.3-0.3
		c0.3-0.2,0.4-0.4,0.4-0.7c0-0.2-0.1-0.4-0.2-0.6c-0.2-0.1-0.4-0.3-0.6-0.3c-0.2-0.1-0.6-0.2-1-0.3c-0.6-0.1-1.1-0.3-1.5-0.4
		s-0.7-0.4-1-0.7c-0.3-0.3-0.4-0.7-0.4-1.2c0-0.4,0.1-0.8,0.4-1.2c0.2-0.4,0.6-0.6,1.1-0.9c0.5-0.2,1.1-0.3,1.8-0.3
		c0.5,0,1,0.1,1.4,0.2c0.5,0.1,0.9,0.3,1.2,0.5l-0.5,1.1c-0.3-0.2-0.7-0.4-1.1-0.5s-0.7-0.2-1.1-0.2c-0.6,0-1,0.1-1.3,0.3
		c-0.3,0.2-0.4,0.5-0.4,0.8c0,0.2,0.1,0.4,0.2,0.6c0.2,0.1,0.4,0.3,0.6,0.3c0.2,0.1,0.6,0.2,1,0.3c0.6,0.1,1.1,0.3,1.5,0.4
		s0.7,0.4,1,0.7c0.3,0.3,0.4,0.7,0.4,1.2c0,0.4-0.1,0.8-0.4,1.2c-0.2,0.4-0.6,0.6-1.1,0.9c-0.5,0.2-1.1,0.3-1.8,0.3
		C205.1,69.4,204.5,69.3,204,69.1z"/>
</g>
</svg>
