<?xml version="1.0" encoding="utf-8"?>
<!-- Generator: Adobe Illustrator 16.0.0, SVG Export Plug-In . SVG Version: 6.00 Build 0)  -->
<!DOCTYPE svg PUBLIC "-//W3C//DTD SVG 1.1//EN" "http://www.w3.org/Graphics/SVG/1.1/DTD/svg11.dtd">
<svg version="1.1" id="Livello_1" xmlns="http://www.w3.org/2000/svg" xmlns:xlink="http://www.w3.org/1999/xlink" x="0px" y="0px"
	 width="500px" height="500.001px" viewBox="0 0 500 500.001" enable-background="new 0 0 500 500.001" xml:space="preserve">
<g>
	<path fill="#2D9380" d="M109.387,334.819l-2.954,2.803c-2.112-2.093-4.43-3.674-6.961-4.757c-2.529-1.072-4.988-1.616-7.39-1.616
		c-2.988,0-5.829,0.734-8.521,2.198c-2.705,1.475-4.801,3.459-6.28,5.965c-1.486,2.518-2.229,5.168-2.229,7.957
		c0,2.871,0.76,5.589,2.301,8.166c1.544,2.588,3.661,4.612,6.362,6.085c2.723,1.47,5.688,2.215,8.902,2.215
		c3.93,0,7.232-1.104,9.937-3.317c2.723-2.204,4.32-5.069,4.818-8.582H95.239v-3.682h16.408c-0.042,5.88-1.787,10.555-5.238,14.009
		c-3.467,3.469-8.096,5.194-13.885,5.194c-7.042,0-12.615-2.4-16.729-7.195c-3.146-3.692-4.728-7.962-4.728-12.811
		c0-3.601,0.896-6.961,2.723-10.058c1.797-3.113,4.289-5.535,7.451-7.291c3.158-1.749,6.729-2.631,10.714-2.631
		c3.218,0,6.265,0.577,9.107,1.755C103.904,330.385,106.684,332.255,109.387,334.819"/>
	<path fill="#2D9380" d="M141.992,357.157l3.063,1.603c-1.005,1.965-2.154,3.552-3.47,4.765c-1.321,1.2-2.787,2.131-4.436,2.752
		c-1.637,0.631-3.491,0.952-5.554,0.952c-4.603,0-8.192-1.508-10.787-4.52c-2.585-3.013-3.89-6.417-3.89-10.208
		c0-3.572,1.096-6.754,3.302-9.554c2.773-3.557,6.499-5.325,11.146-5.325c4.81,0,8.644,1.817,11.508,5.45
		c2.034,2.571,3.068,5.791,3.11,9.636h-25.338c0.073,3.269,1.115,5.948,3.142,8.038c2.014,2.088,4.513,3.138,7.483,3.138
		c1.438,0,2.834-0.25,4.183-0.745c1.358-0.504,2.506-1.165,3.461-1.989C139.875,360.322,140.9,358.999,141.992,357.157
		 M141.992,349.576c-0.473-1.935-1.178-3.476-2.109-4.629c-0.917-1.156-2.14-2.093-3.664-2.806c-1.52-0.702-3.116-1.053-4.793-1.053
		c-2.765,0-5.132,0.881-7.117,2.658c-1.46,1.298-2.551,3.235-3.311,5.829H141.992z"/>
	<path fill="#2D9380" d="M166.896,341.422l-2.337,2.4c-1.935-1.88-3.829-2.816-5.682-2.816c-1.175,0-2.177,0.39-3.021,1.167
		c-0.836,0.773-1.246,1.683-1.246,2.719c0,0.914,0.329,1.785,1.026,2.612c0.699,0.847,2.146,1.832,4.361,2.975
		c2.692,1.396,4.522,2.74,5.495,4.035c0.953,1.314,1.43,2.784,1.43,4.431c0,2.308-0.815,4.264-2.433,5.869
		c-1.634,1.604-3.666,2.414-6.104,2.414c-1.615,0-3.173-0.359-4.645-1.072c-1.474-0.702-2.702-1.679-3.667-2.914l2.28-2.594
		c1.852,2.087,3.813,3.124,5.879,3.124c1.452,0,2.697-0.454,3.709-1.394c1.019-0.931,1.532-2.024,1.532-3.276
		c0-1.042-0.329-1.962-1.008-2.772c-0.678-0.795-2.193-1.799-4.557-3.007c-2.552-1.312-4.279-2.604-5.193-3.878
		c-0.915-1.279-1.366-2.737-1.366-4.378c0-2.137,0.714-3.908,2.193-5.326c1.452-1.412,3.302-2.119,5.523-2.119
		C161.66,337.622,164.263,338.884,166.896,341.422"/>
	<polygon fill="#2D9380" points="176.459,327.884 180.081,327.884 180.081,338.345 185.842,338.345 185.842,341.472 
		180.081,341.472 180.081,366.491 176.459,366.491 176.459,341.472 171.521,341.472 171.521,338.345 176.459,338.345 	"/>
	<path fill="#2D9380" d="M219.322,338.345v28.148h-3.567v-4.836c-1.527,1.845-3.23,3.235-5.108,4.166
		c-1.898,0.931-3.957,1.404-6.2,1.404c-3.989,0-7.395-1.453-10.215-4.335c-2.825-2.893-4.233-6.405-4.233-10.545
		c0-4.063,1.425-7.526,4.275-10.408c2.851-2.877,6.281-4.318,10.271-4.318c2.31,0,4.4,0.489,6.278,1.469
		c1.872,0.985,3.512,2.458,4.932,4.422v-5.167H219.322z M204.84,341.11c-2.005,0-3.879,0.498-5.578,1.488
		c-1.702,0.99-3.071,2.387-4.074,4.172c-1.012,1.799-1.508,3.692-1.508,5.692c0,1.976,0.496,3.878,1.516,5.683
		c1.02,1.812,2.388,3.216,4.104,4.231c1.71,1.001,3.558,1.507,5.515,1.507c1.987,0,3.856-0.495,5.637-1.502
		c1.777-0.993,3.14-2.349,4.095-4.052c0.959-1.706,1.438-3.636,1.438-5.769c0-3.252-1.075-5.977-3.21-8.167
		C210.623,342.207,207.972,341.11,204.84,341.11"/>
	<rect x="226.932" y="327.471" fill="#2D9380" width="3.622" height="39.022"/>
	<polygon fill="#2D9380" points="241.244,327.884 244.866,327.884 244.866,338.345 250.606,338.345 250.606,341.472 
		244.866,341.472 244.866,366.491 241.244,366.491 241.244,341.472 236.304,341.472 236.304,338.345 241.244,338.345 	"/>
	<rect x="268.396" y="345.625" fill="#2D9380" width="19.2" height="3.668"/>
	<path fill="#2D9380" d="M293.853,361.405c-2.528,1.08-4.988,1.608-7.389,1.608c-2.993,0-5.829-0.738-8.533-2.196
		c-2.7-1.464-4.79-3.453-6.265-5.962c-1.447-2.441-2.169-5.013-2.226-7.721c0.057-2.707,0.778-5.281,2.226-7.723
		c1.475-2.506,3.564-4.49,6.265-5.965c2.704-1.464,5.54-2.198,8.533-2.198c2.4,0,4.86,0.544,7.389,1.616
		c2.53,1.08,4.852,2.664,6.963,4.757l2.955-2.803c-2.716-2.563-5.485-4.434-8.337-5.593c-2.842-1.178-5.876-1.755-9.098-1.755
		c-3.997,0-7.56,0.882-10.713,2.631c-3.162,1.753-5.652,4.178-7.451,7.291c-1.703,2.911-2.585,6.055-2.683,9.42h-0.041
		c0,0.115,0.024,0.213,0.024,0.321c0,0.104-0.024,0.201-0.024,0.316v0.016h0.041c0.098,3.35,0.979,6.504,2.683,9.418
		c1.799,3.105,4.289,5.535,7.451,7.288c3.153,1.749,6.716,2.626,10.713,2.626c3.222,0,6.256-0.583,9.098-1.747
		c2.852-1.168,5.621-3.034,8.337-5.606l-2.955-2.789C298.704,358.732,296.383,360.322,293.853,361.405"/>
	<polygon fill="#2D9380" points="308.397,338.345 312.25,338.345 321.704,358.869 331.043,338.345 334.921,338.345 322.038,366.494 
		321.358,366.494 	"/>
	<path fill="#2D9380" d="M364.138,357.157l3.06,1.603c-1.002,1.965-2.153,3.552-3.47,4.765c-1.314,1.2-2.787,2.131-4.438,2.752
		c-1.633,0.631-3.494,0.952-5.56,0.952c-4.602,0-8.183-1.508-10.781-4.52c-2.591-3.013-3.872-6.417-3.872-10.208
		c0-3.572,1.088-6.754,3.281-9.554c2.781-3.557,6.504-5.325,11.171-5.325c4.778,0,8.623,1.817,11.48,5.45
		c2.044,2.571,3.081,5.791,3.11,9.636h-25.337c0.082,3.269,1.127,5.948,3.151,8.038c2.021,2.088,4.512,3.138,7.475,3.138
		c1.445,0,2.844-0.25,4.19-0.745c1.358-0.504,2.512-1.165,3.454-1.989C362.01,360.322,363.028,358.999,364.138,357.157
		 M364.138,349.576c-0.473-1.935-1.191-3.476-2.105-4.629c-0.923-1.156-2.15-2.093-3.668-2.806
		c-1.527-0.702-3.124-1.053-4.795-1.053c-2.763,0-5.133,0.881-7.124,2.658c-1.453,1.298-2.553,3.235-3.282,5.829H364.138z"/>
	<path fill="#2D9380" d="M374.882,338.345h3.622v5.037c1.444-1.922,3.056-3.372,4.808-4.33c1.77-0.952,3.674-1.431,5.753-1.431
		c2.104,0,3.968,0.527,5.598,1.597c1.636,1.075,2.835,2.509,3.605,4.321c0.789,1.815,1.17,4.638,1.17,8.472v14.482h-3.619v-13.427
		c0-3.246-0.136-5.41-0.402-6.498c-0.425-1.861-1.22-3.263-2.417-4.199c-1.188-0.941-2.748-1.415-4.658-1.415
		c-2.193,0-4.15,0.729-5.895,2.177c-1.725,1.448-2.873,3.241-3.429,5.383c-0.346,1.394-0.514,3.948-0.514,7.652v10.327h-3.622
		V338.345z"/>
	<polygon fill="#2D9380" points="410.36,327.884 413.978,327.884 413.978,338.345 419.727,338.345 419.727,341.472 413.978,341.472 
		413.978,366.491 410.36,366.491 410.36,341.472 405.413,341.472 405.413,338.345 410.36,338.345 	"/>
	<path fill="#2D9380" d="M426.416,326.748c0.827,0,1.526,0.291,2.119,0.876c0.577,0.588,0.874,1.304,0.874,2.125
		c0,0.813-0.297,1.511-0.874,2.093c-0.593,0.588-1.292,0.882-2.119,0.882c-0.813,0-1.502-0.294-2.088-0.882
		c-0.579-0.582-0.879-1.279-0.879-2.093c0-0.821,0.3-1.537,0.879-2.125C424.914,327.039,425.603,326.748,426.416,326.748
		 M424.617,338.345h3.622v28.148h-3.622V338.345z"/>
	<polygon fill="#8A8A89" points="87.955,381.607 90.204,381.607 87.183,403.972 84.929,403.972 	"/>
	<path fill="#8A8A89" d="M108.392,403.972h-2.137l0.332-2.555c-1.942,1.989-4.161,2.979-6.613,2.979
		c-2.229,0-4.063-0.724-5.506-2.172c-1.429-1.447-2.154-3.312-2.154-5.589c0-2.637,0.931-4.903,2.813-6.798
		c1.877-1.88,4.087-2.833,6.618-2.833c1.37,0,2.577,0.294,3.622,0.86c1.029,0.585,1.917,1.494,2.667,2.719l1.268-9.538h2.201
		L108.392,403.972z M100.259,402.459c1.366,0,2.603-0.321,3.725-0.966c1.126-0.653,2.015-1.573,2.667-2.776
		c0.675-1.205,0.995-2.522,0.995-3.939c0-1.715-0.538-3.105-1.622-4.178c-1.083-1.086-2.488-1.621-4.215-1.621
		c-2.04,0-3.781,0.745-5.227,2.204c-1.438,1.472-2.161,3.278-2.161,5.426c0,1.747,0.539,3.165,1.605,4.231
		C97.126,401.916,98.517,402.459,100.259,402.459"/>
	<path fill="#8A8A89" d="M130.446,396.13h-14.772c-0.022,1.97,0.491,3.513,1.55,4.634c1.047,1.127,2.452,1.695,4.204,1.695
		c1.18,0,2.247-0.245,3.235-0.721c1.012-0.474,1.823-1.144,2.48-2.003l1.574,1.295c-0.805,1.021-1.848,1.843-3.148,2.452
		c-1.276,0.614-2.683,0.914-4.174,0.914c-2.611,0-4.544-0.8-5.849-2.405c-1.309-1.608-1.957-3.41-1.957-5.415
		c0-1.646,0.441-3.226,1.315-4.749c0.87-1.521,2.048-2.702,3.52-3.549c1.468-0.849,3.056-1.273,4.768-1.273
		c2.129,0,3.874,0.719,5.27,2.152c1.391,1.432,2.07,3.263,2.07,5.479C130.532,395.049,130.51,395.542,130.446,396.13
		 M128.487,394.277c-0.058-1.557-0.596-2.822-1.59-3.78c-1.007-0.963-2.266-1.453-3.791-1.453c-1.646,0-3.106,0.474-4.369,1.394
		c-1.263,0.931-2.151,2.213-2.683,3.84H128.487z"/>
	<path fill="#8A8A89" d="M150.674,396.13H135.92c-0.021,1.97,0.491,3.513,1.536,4.634c1.062,1.127,2.465,1.695,4.215,1.695
		c1.174,0,2.257-0.245,3.254-0.721c0.976-0.474,1.807-1.144,2.448-2.003l1.591,1.295c-0.806,1.021-1.848,1.843-3.141,2.452
		c-1.302,0.614-2.691,0.914-4.182,0.914c-2.611,0-4.554-0.8-5.855-2.405c-1.313-1.608-1.954-3.41-1.954-5.415
		c0-1.646,0.443-3.226,1.302-4.749c0.892-1.521,2.064-2.702,3.537-3.549c1.468-0.849,3.056-1.273,4.767-1.273
		c2.12,0,3.888,0.719,5.26,2.152c1.4,1.432,2.097,3.263,2.097,5.479C150.795,395.049,150.753,395.542,150.674,396.13
		 M148.738,394.277c-0.061-1.557-0.593-2.822-1.596-3.78c-1.007-0.963-2.265-1.453-3.791-1.453c-1.646,0-3.106,0.474-4.369,1.394
		c-1.271,0.931-2.154,2.213-2.683,3.84H148.738z"/>
	<polygon fill="#8A8A89" points="156.023,399.877 157.957,400.84 154.061,406.566 152.632,405.945 	"/>
	<path fill="#8A8A89" d="M180.991,389.289l-1.151,1.72c-0.939-1.322-2.045-1.997-3.324-1.997c-0.721,0-1.354,0.239-1.87,0.719
		c-0.516,0.473-0.773,1.001-0.773,1.578c0,0.446,0.154,0.868,0.457,1.281c0.316,0.408,1.015,0.953,2.09,1.66
		c1.592,1.021,2.634,1.907,3.141,2.67c0.488,0.772,0.73,1.662,0.73,2.664c0,1.388-0.474,2.544-1.446,3.453
		c-0.963,0.908-2.226,1.36-3.776,1.36c-2.047,0-3.781-0.898-5.171-2.719l1.292-1.508c1.221,1.492,2.563,2.245,3.996,2.245
		c0.822,0,1.547-0.288,2.148-0.873c0.611-0.571,0.909-1.241,0.909-2.009c0-0.614-0.231-1.211-0.683-1.771
		c-0.298-0.37-1.087-0.982-2.364-1.855c-1.388-0.961-2.303-1.755-2.744-2.376c-0.441-0.62-0.657-1.322-0.657-2.104
		c0-1.225,0.465-2.27,1.378-3.124c0.922-0.862,2.107-1.298,3.512-1.298c0.835,0,1.58,0.169,2.257,0.501
		C179.624,387.838,180.292,388.431,180.991,389.289"/>
	<path fill="#8A8A89" d="M200.257,396.13h-14.751c-0.026,1.97,0.474,3.513,1.532,4.634c1.059,1.127,2.462,1.695,4.216,1.695
		c1.157,0,2.24-0.245,3.234-0.721c0.999-0.474,1.817-1.144,2.467-2.003l1.582,1.295c-0.811,1.021-1.842,1.843-3.146,2.452
		c-1.287,0.614-2.683,0.914-4.18,0.914c-2.6,0-4.554-0.8-5.852-2.405c-1.301-1.608-1.962-3.41-1.962-5.415
		c0-1.646,0.443-3.226,1.318-4.749c0.875-1.521,2.048-2.702,3.517-3.549c1.484-0.849,3.067-1.273,4.77-1.273
		c2.125,0,3.888,0.719,5.275,2.152c1.381,1.432,2.082,3.263,2.082,5.479C200.361,395.049,200.319,395.542,200.257,396.13
		 M198.304,394.277c-0.064-1.557-0.593-2.822-1.599-3.78c-1.001-0.963-2.254-1.453-3.791-1.453c-1.644,0-3.106,0.474-4.369,1.394
		c-1.251,0.931-2.151,2.213-2.68,3.84H198.304z"/>
	<path fill="#8A8A89" d="M204.77,387.43h2.135l-0.279,2.087c0.553-0.789,1.252-1.406,2.045-1.848
		c0.806-0.44,1.625-0.664,2.467-0.664c0.602,0,1.221,0.137,1.873,0.425l-0.995,1.951c-0.532-0.212-0.965-0.321-1.327-0.321
		c-0.739,0-1.471,0.262-2.193,0.778c-0.721,0.518-1.317,1.269-1.758,2.262c-0.457,0.979-0.833,2.612-1.148,4.868l-0.963,7.007
		h-2.087L204.77,387.43z"/>
	<polygon fill="#8A8A89" points="212.975,387.43 215.168,387.43 219.354,399.501 226.298,387.43 228.622,387.43 219.078,403.975 
		218.676,403.975 	"/>
	<path fill="#8A8A89" d="M231.832,387.43h2.023l-2.167,16.542H229.6L231.832,387.43z M233.509,380.622
		c0.457,0,0.861,0.163,1.199,0.501c0.336,0.332,0.503,0.737,0.503,1.2c0,0.474-0.167,0.887-0.503,1.208
		c-0.337,0.332-0.742,0.49-1.199,0.49c-0.481,0-0.88-0.158-1.212-0.49c-0.319-0.321-0.49-0.734-0.49-1.208
		c0-0.463,0.17-0.868,0.49-1.2C232.629,380.785,233.028,380.622,233.509,380.622"/>
	<polygon fill="#8A8A89" points="237.012,387.43 248.397,387.43 238.522,402.095 247.5,402.095 247.251,403.975 234.746,403.975 
		244.658,389.289 236.777,389.289 	"/>
	<path fill="#8A8A89" d="M251.3,387.43h2.015l-2.151,16.542h-2.09L251.3,387.43z M252.977,380.622c0.466,0,0.871,0.163,1.195,0.501
		c0.337,0.332,0.509,0.737,0.509,1.2c0,0.474-0.172,0.887-0.509,1.208c-0.324,0.332-0.729,0.49-1.195,0.49
		c-0.473,0-0.892-0.158-1.212-0.49c-0.337-0.321-0.489-0.734-0.489-1.208c0-0.463,0.152-0.868,0.489-1.2
		C252.085,380.785,252.504,380.622,252.977,380.622"/>
	<path fill="#8A8A89" d="M281.438,396.13h-14.743c-0.032,1.97,0.466,3.513,1.543,4.634c1.042,1.127,2.446,1.695,4.196,1.695
		c1.173,0,2.242-0.245,3.252-0.721c0.982-0.474,1.801-1.144,2.451-2.003l1.581,1.295c-0.794,1.021-1.839,1.843-3.132,2.452
		c-1.298,0.614-2.696,0.914-4.19,0.914c-2.594,0-4.553-0.8-5.854-2.405c-1.304-1.608-1.943-3.41-1.943-5.415
		c0-1.646,0.431-3.226,1.301-4.749c0.893-1.521,2.063-2.702,3.532-3.549c1.47-0.849,3.054-1.273,4.771-1.273
		c2.111,0,3.881,0.719,5.26,2.152c1.389,1.432,2.09,3.263,2.09,5.479C281.552,395.049,281.509,395.542,281.438,396.13
		 M279.503,394.277c-0.065-1.557-0.593-2.822-1.6-3.78c-1.004-0.963-2.27-1.453-3.791-1.453c-1.654,0-3.107,0.474-4.376,1.394
		c-1.263,0.931-2.152,2.213-2.69,3.84H279.503z"/>
	<path fill="#8A8A89" d="M303.12,389.289l-1.156,1.72c-0.934-1.322-2.024-1.997-3.312-1.997c-0.729,0-1.355,0.239-1.875,0.719
		c-0.515,0.473-0.772,1.001-0.772,1.578c0,0.446,0.152,0.868,0.476,1.281c0.297,0.408,0.993,0.953,2.076,1.66
		c1.584,1.021,2.635,1.907,3.136,2.67c0.506,0.772,0.745,1.662,0.745,2.664c0,1.388-0.49,2.544-1.453,3.453
		c-0.972,0.908-2.231,1.36-3.782,1.36c-2.047,0-3.758-0.898-5.165-2.719l1.287-1.508c1.228,1.492,2.566,2.245,3.997,2.245
		c0.827,0,1.535-0.288,2.15-0.873c0.606-0.571,0.922-1.241,0.922-2.009c0-0.614-0.233-1.211-0.686-1.771
		c-0.297-0.37-1.086-0.982-2.387-1.855c-1.382-0.961-2.296-1.755-2.734-2.376c-0.43-0.62-0.645-1.322-0.645-2.104
		c0-1.225,0.448-2.27,1.382-3.124c0.931-0.862,2.087-1.298,3.494-1.298c0.833,0,1.587,0.169,2.272,0.501
		C301.757,387.838,302.438,388.431,303.12,389.289"/>
	<path fill="#8A8A89" d="M314.999,387.005c1.42,0,2.696,0.343,3.88,1.013c1.179,0.678,2.101,1.608,2.743,2.816
		c0.658,1.2,0.996,2.555,0.996,4.085c0,1.733-0.408,3.339-1.26,4.827c-0.844,1.485-1.979,2.626-3.399,3.442
		c-1.412,0.811-3.025,1.208-4.816,1.208c-2.218,0-4.049-0.724-5.478-2.183c-1.445-1.45-2.158-3.301-2.158-5.546
		c0-1.771,0.425-3.394,1.269-4.89c0.832-1.488,1.997-2.653,3.47-3.5C311.695,387.43,313.287,387.005,314.999,387.005
		 M314.949,389.028c-1.333,0-2.568,0.332-3.728,0.996c-1.162,0.652-2.052,1.556-2.672,2.713c-0.629,1.148-0.947,2.416-0.947,3.807
		c0,1.741,0.539,3.165,1.622,4.248c1.066,1.083,2.471,1.636,4.16,1.636c1.339,0,2.545-0.316,3.628-0.95
		c1.085-0.637,1.939-1.551,2.585-2.743c0.62-1.194,0.958-2.484,0.958-3.853c0-1.151-0.242-2.161-0.725-3.043
		c-0.473-0.89-1.147-1.575-2.024-2.076C316.934,389.272,315.994,389.028,314.949,389.028"/>
	<polygon fill="#8A8A89" points="328.371,381.046 330.434,381.046 327.348,403.975 325.263,403.975 	"/>
	<path fill="#8A8A89" d="M335.141,387.43h2.126l-1.005,6.923c-0.294,2.038-0.44,3.333-0.44,3.872c0,1.238,0.387,2.251,1.165,3.029
		c0.77,0.78,1.807,1.173,3.066,1.173c1.069,0,1.983-0.3,2.757-0.918c0.786-0.604,1.339-1.393,1.679-2.378
		c0.166-0.495,0.376-1.641,0.606-3.426l1.11-8.275h2.088l-0.803,6.27c-0.387,3.002-0.795,5.127-1.22,6.379
		c-0.43,1.268-1.191,2.305-2.299,3.11c-1.092,0.811-2.434,1.208-4.025,1.208c-1.787,0-3.257-0.577-4.408-1.747
		c-1.146-1.173-1.717-2.637-1.717-4.392c0-0.697,0.057-1.514,0.185-2.444l0.152-1.461l0.082-0.62L335.141,387.43z"/>
	<polygon fill="#8A8A89" points="351.618,387.43 362.99,387.43 353.128,402.095 362.108,402.095 361.839,403.975 349.354,403.975 
		359.262,389.289 351.376,389.289 	"/>
	<path fill="#8A8A89" d="M365.901,387.43h2.003l-2.155,16.542h-2.084L365.901,387.43z M367.567,380.622
		c0.465,0,0.865,0.163,1.213,0.501c0.321,0.332,0.49,0.737,0.49,1.2c0,0.474-0.169,0.887-0.49,1.208
		c-0.348,0.332-0.748,0.49-1.213,0.49c-0.474,0-0.877-0.158-1.214-0.49c-0.327-0.321-0.49-0.734-0.49-1.208
		c0-0.463,0.163-0.868,0.49-1.2C366.69,380.785,367.094,380.622,367.567,380.622"/>
	<path fill="#8A8A89" d="M380.02,387.005c1.406,0,2.699,0.343,3.891,1.013c1.171,0.678,2.085,1.608,2.74,2.816
		c0.664,1.2,0.985,2.555,0.985,4.085c0,1.733-0.419,3.339-1.271,4.827c-0.833,1.485-1.96,2.626-3.374,3.442
		c-1.421,0.811-3.032,1.208-4.825,1.208c-2.218,0-4.047-0.724-5.478-2.183c-1.445-1.45-2.15-3.301-2.15-5.546
		c0-1.771,0.425-3.394,1.261-4.89c0.835-1.488,2-2.653,3.453-3.5C376.721,387.43,378.311,387.005,380.02,387.005 M379.976,389.028
		c-1.328,0-2.571,0.332-3.729,0.996c-1.164,0.652-2.046,1.556-2.683,2.713c-0.615,1.148-0.937,2.416-0.937,3.807
		c0,1.741,0.534,3.165,1.619,4.248c1.067,1.083,2.463,1.636,4.169,1.636c1.325,0,2.536-0.316,3.622-0.95
		c1.083-0.637,1.935-1.551,2.577-2.743c0.634-1.194,0.955-2.484,0.955-3.853c0-1.151-0.234-2.161-0.713-3.043
		c-0.474-0.89-1.14-1.575-2.038-2.076C381.957,389.272,381.002,389.028,379.976,389.028"/>
	<path fill="#8A8A89" d="M392.934,387.43h2.05l-0.346,2.577c1.687-2,3.63-3.002,5.88-3.002c1.701,0,3.072,0.528,4.134,1.576
		c1.045,1.045,1.573,2.454,1.573,4.231c0,0.707-0.109,1.899-0.338,3.578l-1.042,7.584h-2.071l1.029-7.584
		c0.207-1.625,0.321-2.822,0.321-3.595c0-1.156-0.349-2.098-1.045-2.806c-0.708-0.707-1.639-1.066-2.773-1.066
		c-1.124,0-2.166,0.288-3.121,0.871c-0.963,0.571-1.695,1.35-2.242,2.348c-0.515,0.979-0.931,2.553-1.214,4.684l-0.952,7.148h-2.074
		L392.934,387.43z"/>
	<path fill="#8A8A89" d="M411.525,387.43h2.003l-2.155,16.542h-2.085L411.525,387.43z M413.19,380.622
		c0.474,0,0.865,0.163,1.195,0.501c0.337,0.332,0.506,0.737,0.506,1.2c0,0.474-0.169,0.887-0.506,1.208
		c-0.33,0.332-0.722,0.49-1.195,0.49s-0.879-0.158-1.219-0.49c-0.318-0.321-0.484-0.734-0.484-1.208c0-0.463,0.166-0.868,0.484-1.2
		C412.312,380.785,412.717,380.622,413.19,380.622"/>
	<path fill="#8A8A89" d="M176.46,416.5h2.17l-0.324,2.49c1.898-1.94,4.091-2.903,6.538-2.903c2.26,0,4.113,0.721,5.557,2.166
		c1.429,1.445,2.154,3.317,2.154,5.589c0,2.638-0.939,4.906-2.795,6.793c-1.887,1.891-4.088,2.838-6.635,2.838
		c-1.37,0-2.577-0.297-3.622-0.876c-1.042-0.58-1.934-1.478-2.656-2.708l-1.237,9.211h-2.202L176.46,416.5z M184.61,418.025
		c-1.356,0-2.592,0.321-3.725,0.966c-1.126,0.643-2.023,1.567-2.683,2.771c-0.659,1.216-0.976,2.522-0.976,3.945
		c0,1.704,0.535,3.097,1.619,4.177c1.083,1.072,2.505,1.617,4.215,1.617c2.04,0,3.765-0.735,5.227-2.204
		c1.438-1.473,2.18-3.279,2.18-5.421c0-1.753-0.54-3.165-1.625-4.242C187.759,418.558,186.352,418.025,184.61,418.025"/>
	<path fill="#8A8A89" d="M212.293,425.198h-14.742c-0.034,1.968,0.474,3.519,1.532,4.643c1.05,1.132,2.455,1.688,4.199,1.688
		c1.173,0,2.257-0.234,3.252-0.714c0.989-0.484,1.817-1.147,2.461-2.011l1.574,1.287c-0.797,1.029-1.845,1.846-3.132,2.469
		c-1.295,0.599-2.701,0.914-4.196,0.914c-2.592,0-4.538-0.795-5.835-2.419c-1.301-1.595-1.962-3.404-1.962-5.413
		c0-1.646,0.435-3.229,1.318-4.74c0.875-1.523,2.048-2.713,3.516-3.557c1.472-0.844,3.068-1.257,4.772-1.257
		c2.128,0,3.879,0.713,5.275,2.139c1.375,1.439,2.072,3.263,2.072,5.486C212.397,424.115,212.359,424.61,212.293,425.198
		 M210.349,423.347c-0.061-1.567-0.593-2.821-1.6-3.774c-1-0.982-2.253-1.467-3.787-1.467c-1.654,0-3.109,0.469-4.377,1.401
		c-1.246,0.931-2.154,2.205-2.68,3.84H210.349z"/>
	<path fill="#8A8A89" d="M216.807,416.5h2.146l-0.284,2.09c0.558-0.805,1.237-1.415,2.05-1.855c0.794-0.44,1.622-0.647,2.456-0.647
		c0.609,0,1.229,0.125,1.872,0.413l-0.986,1.943c-0.532-0.207-0.973-0.321-1.335-0.321c-0.73,0-1.468,0.256-2.193,0.775
		c-0.721,0.528-1.306,1.273-1.752,2.259c-0.462,0.999-0.83,2.621-1.159,4.888l-0.95,7.004h-2.087L216.807,416.5z"/>
	<path fill="#8A8A89" d="M250.529,425.198h-14.761c-0.033,1.968,0.491,3.519,1.539,4.643c1.045,1.132,2.449,1.688,4.219,1.688
		c1.165,0,2.231-0.234,3.229-0.714c1-0.484,1.813-1.147,2.472-2.011l1.574,1.287c-0.803,1.029-1.848,1.846-3.148,2.469
		c-1.276,0.599-2.681,0.914-4.174,0.914c-2.605,0-4.539-0.795-5.841-2.419c-1.306-1.595-1.967-3.404-1.967-5.413
		c0-1.646,0.443-3.229,1.318-4.74c0.875-1.523,2.056-2.713,3.525-3.557c1.468-0.844,3.05-1.257,4.77-1.257
		c2.127,0,3.862,0.713,5.258,2.139c1.393,1.439,2.09,3.263,2.09,5.486C250.632,424.115,250.591,424.61,250.529,425.198
		 M248.567,423.347c-0.048-1.567-0.593-2.821-1.591-3.774c-1.001-0.982-2.263-1.467-3.788-1.467c-1.646,0-3.109,0.469-4.372,1.401
		c-1.257,0.931-2.151,2.205-2.678,3.84H248.567z"/>
	<polygon fill="#8A8A89" points="253.875,416.5 256.068,416.5 260.253,428.581 267.198,416.5 269.514,416.5 259.979,433.048 
		259.578,433.048 	"/>
	<path fill="#8A8A89" d="M288.021,425.198h-14.757c-0.024,1.968,0.489,3.519,1.54,4.643c1.062,1.132,2.452,1.688,4.21,1.688
		c1.17,0,2.256-0.234,3.243-0.714c0.996-0.484,1.807-1.147,2.469-2.011l1.586,1.287c-0.816,1.029-1.861,1.846-3.148,2.469
		c-1.292,0.599-2.681,0.914-4.193,0.914c-2.599,0-4.536-0.795-5.837-2.419c-1.298-1.595-1.959-3.404-1.959-5.413
		c0-1.646,0.436-3.229,1.309-4.74c0.885-1.523,2.058-2.713,3.526-3.557c1.47-0.844,3.051-1.257,4.771-1.257
		c2.128,0,3.878,0.713,5.258,2.139c1.391,1.439,2.09,3.263,2.09,5.486C288.127,424.115,288.089,424.61,288.021,425.198
		 M286.08,423.347c-0.065-1.567-0.596-2.821-1.6-3.774c-1.01-0.982-2.272-1.467-3.791-1.467c-1.651,0-3.107,0.469-4.376,1.401
		c-1.26,0.931-2.152,2.205-2.683,3.84H286.08z"/>
	<path fill="#8A8A89" d="M293.387,416.5h2.047l-0.344,2.583c1.688-2.006,3.636-2.996,5.87-2.996c1.728,0,3.107,0.512,4.149,1.562
		c1.045,1.054,1.576,2.469,1.576,4.231c0,0.719-0.123,1.897-0.354,3.57l-1.021,7.598h-2.088l1.037-7.581
		c0.212-1.636,0.321-2.827,0.321-3.603c0-1.154-0.354-2.085-1.059-2.798c-0.699-0.721-1.614-1.069-2.757-1.069
		c-1.115,0-2.16,0.288-3.124,0.868c-0.963,0.565-1.72,1.35-2.231,2.34c-0.539,0.982-0.941,2.556-1.222,4.687l-0.947,7.156h-2.09
		L293.387,416.5z"/>
	<polygon fill="#8A8A89" points="314.999,410.313 317.077,410.313 316.267,416.5 319.598,416.5 319.342,418.346 316,418.346 
		314.041,433.048 311.929,433.048 313.913,418.346 311.077,418.346 311.328,416.5 314.163,416.5 	"/>
	<path fill="#8A8A89" d="M322.531,416.5h2.005l-2.157,16.548h-2.096L322.531,416.5z M324.193,409.693
		c0.474,0,0.874,0.163,1.194,0.495c0.338,0.337,0.507,0.74,0.507,1.208c0,0.474-0.169,0.873-0.507,1.205
		c-0.32,0.338-0.721,0.495-1.194,0.495s-0.876-0.157-1.216-0.495c-0.321-0.332-0.49-0.731-0.49-1.205
		c0-0.468,0.169-0.871,0.49-1.208C323.317,409.856,323.72,409.693,324.193,409.693"/>
	<path fill="#2D9380" d="M144.924,279.92h210.631V69.285H144.924V279.92z M279.229,152.008c-12.76,0-23.144,10.385-23.144,23.142
		c0,12.759,10.384,23.142,23.135,23.142c9.873,0,18.679-6.272,21.893-15.6l0.536-1.593l8.283,2.853l-0.539,1.589
		c-4.44,12.859-16.545,21.5-30.164,21.5c-11.517,0-22.045-6.203-27.683-16.073c-5.643,9.862-16.196,16.073-27.72,16.073
		c-17.588,0-31.906-14.303-31.906-31.892c0-17.583,14.317-31.895,31.906-31.895c8.504,0,16.504,3.308,22.526,9.321l1.189,1.187
		l-6.195,6.187l-1.186-1.186c-4.366-4.355-10.173-6.756-16.334-6.756c-12.768,0-23.142,10.385-23.142,23.142
		c0,12.764,10.375,23.142,23.142,23.142c10.663,0,19.906-7.345,22.461-17.451l-30.996,6.905l-1.912-8.544l34.162-7.61
		c1.773-15.986,15.458-28.336,31.688-28.336c12.395,0,23.764,7.279,28.962,18.545l2.285,4.93l-46.135,10.181l-1.889-8.543
		l34.813-7.691C292.913,155.282,286.208,152.008,279.229,152.008"/>
</g>
</svg>
