<?xml version="1.0" encoding="utf-8"?>
<!-- Generator: Adobe Illustrator 16.0.0, SVG Export Plug-In . SVG Version: 6.00 Build 0)  -->
<!DOCTYPE svg PUBLIC "-//W3C//DTD SVG 1.1//EN" "http://www.w3.org/Graphics/SVG/1.1/DTD/svg11.dtd">
<svg version="1.1" id="Layer_1" xmlns="http://www.w3.org/2000/svg" xmlns:xlink="http://www.w3.org/1999/xlink" x="0px" y="0px"
	 width="434px" height="103px" viewBox="0 0 434 103" enable-background="new 0 0 434 103" xml:space="preserve">
<polygon points="147.372,24.899 140.509,24.899 126.36,35.782 129.625,38.113 "/>
<polygon points="121.825,24.899 117.022,24.899 117.022,55.62 121.825,55.62 121.825,40.891 142.245,55.62 148.75,55.62 
	121.825,35.516 "/>
<polygon points="153.706,29.354 172.714,29.354 172.714,25.244 148.905,25.244 148.905,55.62 173.06,55.62 173.06,51.855 
	153.706,51.855 "/>
<rect x="155.817" y="38.031" width="14.824" height="4.111"/>
<polygon points="178.91,24.899 173.381,24.899 188.363,40.63 191.142,37.85 "/>
<polygon points="205.777,24.899 189.945,42.138 189.945,55.62 194.747,55.62 194.747,42.877 211.646,24.899 "/>
<g>
	<defs>
		<rect id="SVGID_1_" x="-208" y="-247.276" width="841.89" height="595.276"/>
	</defs>
	<clipPath id="SVGID_2_">
		<use xlink:href="#SVGID_1_"  overflow="visible"/>
	</clipPath>
	<path clip-path="url(#SVGID_2_)" fill="#6D6E71" d="M241.137,37.978c0.194-0.373,0.338-0.715,0.425-1.005
		c0.502-1.447,0.628-2.821,0.376-4.085c-0.25-1.249-0.706-2.37-1.355-3.33c-0.646-0.955-1.406-1.76-2.262-2.394
		c-0.851-0.631-1.657-1.086-2.399-1.353c-0.763-0.264-1.47-0.442-2.1-0.53c-0.636-0.089-1.035-0.132-1.223-0.132h-15.801V55.37
		h4.301V28.759h10.809c0.171,0,0.419,0.007,0.745,0.021c0.312,0.014,0.663,0.076,1.044,0.185c0.388,0.111,0.81,0.28,1.253,0.502
		c0.436,0.218,0.864,0.536,1.274,0.947c0.403,0.402,0.71,0.907,0.913,1.501c0.205,0.604,0.302,1.244,0.289,1.902
		c-0.015,0.662-0.148,1.34-0.396,2.014c-0.246,0.67-0.635,1.288-1.158,1.839c-0.353,0.381-0.731,0.684-1.125,0.901
		c-0.399,0.221-0.797,0.388-1.18,0.497c-0.389,0.112-0.758,0.181-1.096,0.207c-0.354,0.029-0.655,0.043-0.908,0.043h-7.508v3.61
		h8.199c0.261,0,0.623-0.007,1.088-0.021c0.471-0.015,1.017-0.09,1.622-0.222c0.605-0.133,1.267-0.349,1.965-0.64
		c0.709-0.295,1.441-0.743,2.184-1.338c0.212-0.181,0.446-0.423,0.697-0.718c0.249-0.293,0.488-0.614,0.71-0.954
		C240.737,38.701,240.945,38.345,241.137,37.978"/>
	<polygon clip-path="url(#SVGID_2_)" fill="#6D6E71" points="257.644,25.494 253.171,25.494 239.972,55.018 239.813,55.37 
		244.511,55.37 255.398,30.531 260.562,43.119 253.179,43.119 251.546,46.385 262.157,46.385 266.305,55.37 270.647,55.37 
		257.709,25.644 	"/>
	<path clip-path="url(#SVGID_2_)" fill="#6D6E71" d="M295.71,41.77c0.439-0.264,0.907-0.598,1.391-0.993
		c0.492-0.403,0.923-0.879,1.285-1.422c0.444-0.711,0.768-1.523,0.961-2.412c0.189-0.88,0.287-1.77,0.287-2.645
		s-0.082-1.72-0.243-2.512c-0.162-0.797-0.381-1.473-0.652-2.015c-0.535-0.98-1.223-1.765-2.043-2.331
		c-0.807-0.558-1.642-0.983-2.482-1.263c-0.834-0.278-1.622-0.456-2.344-0.53c-0.708-0.072-1.25-0.123-1.645-0.153h-15.803V55.37
		h4.647V29.104h10.809c0.255,0,0.565,0.016,0.933,0.043c0.358,0.028,0.738,0.091,1.125,0.188c0.378,0.095,0.771,0.254,1.171,0.473
		c0.389,0.215,0.749,0.529,1.074,0.935c0.405,0.487,0.71,1.081,0.9,1.764c0.194,0.697,0.293,1.409,0.293,2.115
		c0,0.705-0.104,1.376-0.311,1.994c-0.2,0.601-0.487,1.066-0.861,1.387c-0.38,0.352-0.79,0.619-1.221,0.794
		c-0.441,0.18-0.87,0.313-1.273,0.397c-0.4,0.082-0.763,0.124-1.073,0.124h-8.954v3.956h8.398l6.912,12.096h4.721l-7.327-12.913
		C294.825,42.269,295.271,42.039,295.71,41.77"/>
	<polygon clip-path="url(#SVGID_2_)" fill="#6D6E71" points="302.298,29.104 315.085,29.104 315.085,55.37 319.388,55.37 
		319.388,29.104 332.865,29.104 332.865,25.148 302.298,25.148 	"/>
	<polygon clip-path="url(#SVGID_2_)" fill="#6D6E71" points="337.594,55.37 341.895,55.37 341.895,33.942 337.594,29.248 	"/>
	<polygon clip-path="url(#SVGID_2_)" fill="#6D6E71" points="363.859,49.285 342.177,25.231 342.103,25.148 337.284,25.148 
		364.343,55.369 368.16,55.369 368.16,25.148 363.859,25.148 	"/>
	<polygon clip-path="url(#SVGID_2_)" fill="#6D6E71" points="377.217,29.104 396.226,29.104 396.226,25.494 372.916,25.494 
		372.916,55.37 396.571,55.37 396.571,52.105 377.217,52.105 	"/>
	<rect x="379.828" y="38.281" clip-path="url(#SVGID_2_)" fill="#6D6E71" width="14.324" height="3.611"/>
	<path clip-path="url(#SVGID_2_)" fill="#6D6E71" d="M420.707,42.457c0.441-0.188,0.888-0.418,1.326-0.687
		c0.438-0.263,0.905-0.597,1.391-0.993c0.492-0.403,0.924-0.88,1.285-1.422c0.443-0.711,0.768-1.523,0.961-2.412
		c0.19-0.881,0.286-1.771,0.286-2.645c0-0.875-0.081-1.72-0.242-2.512c-0.162-0.797-0.382-1.473-0.652-2.015
		c-0.536-0.981-1.223-1.765-2.042-2.331c-0.808-0.558-1.643-0.983-2.483-1.263c-0.834-0.278-1.622-0.456-2.344-0.53
		c-0.708-0.072-1.25-0.123-1.645-0.153h-15.802V55.37h4.647V29.104h10.809c0.254,0,0.565,0.016,0.932,0.043
		c0.359,0.028,0.738,0.092,1.125,0.188c0.379,0.095,0.772,0.254,1.171,0.473c0.389,0.215,0.749,0.528,1.074,0.935
		c0.406,0.487,0.71,1.081,0.9,1.764c0.195,0.697,0.293,1.408,0.293,2.115c0,0.706-0.104,1.377-0.311,1.994
		c-0.2,0.601-0.487,1.066-0.861,1.387c-0.38,0.352-0.79,0.619-1.22,0.794c-0.442,0.18-0.871,0.313-1.274,0.397
		c-0.4,0.082-0.762,0.124-1.072,0.124h-8.955v3.956h8.398l6.912,12.096h4.722L420.707,42.457z"/>
	<rect x="121.733" y="64.059" clip-path="url(#SVGID_2_)" width="301.664" height="0.9"/>
</g>
<g>
	<defs>
		<path id="SVGID_3_" d="M11.911,8.997c-4.167,0-6.481,2.155-6.481,6.462v72.598c0,4.614,2.468,6.461,6.481,6.461h72.825
			c4.475,0,6.482-2.308,6.482-6.461V15.459c0-4.772-2.007-6.462-6.482-6.462H11.911z"/>
	</defs>
	<clipPath id="SVGID_4_">
		<use xlink:href="#SVGID_3_"  overflow="visible"/>
	</clipPath>
	<rect x="5.43" y="8.997" clip-path="url(#SVGID_4_)" fill="#2A7AB6" width="85.788" height="85.52"/>
	<path clip-path="url(#SVGID_4_)" fill="#2A7AB6" d="M90.91,51.758c0,23.52-19.067,42.586-42.587,42.586
		c-23.519,0-42.586-19.066-42.586-42.586c0-23.52,19.067-42.587,42.586-42.587C71.843,9.17,90.91,28.238,90.91,51.758"/>
	<path clip-path="url(#SVGID_4_)" fill="#2A7BB7" d="M87.634,51.758c0,21.71-17.6,39.311-39.311,39.311
		c-21.71,0-39.311-17.601-39.311-39.311c0-21.711,17.601-39.311,39.311-39.311C70.034,12.447,87.634,30.046,87.634,51.758"/>
	<path clip-path="url(#SVGID_4_)" fill="#2B7CB9" d="M84.358,51.758c0,19.9-16.133,36.034-36.035,36.034
		c-19.902,0-36.035-16.134-36.035-36.034c0-19.902,16.133-36.035,36.035-36.035C68.226,15.723,84.358,31.855,84.358,51.758"/>
	<path clip-path="url(#SVGID_4_)" fill="#2B7DBA" d="M81.083,51.758c0,18.092-14.667,32.759-32.759,32.759
		c-18.092,0-32.759-14.667-32.759-32.759c0-18.092,14.667-32.759,32.759-32.759C66.416,18.999,81.083,33.666,81.083,51.758"/>
	<path clip-path="url(#SVGID_4_)" fill="#2B7DBA" d="M77.807,51.758c0,16.283-13.2,29.481-29.483,29.481
		c-16.283,0-29.483-13.198-29.483-29.481s13.2-29.483,29.483-29.483C64.606,22.274,77.807,35.475,77.807,51.758"/>
	<path clip-path="url(#SVGID_4_)" fill="#2B7EBB" d="M74.531,51.758c0,14.474-11.733,26.207-26.208,26.207
		c-14.473,0-26.207-11.733-26.207-26.207c0-14.474,11.734-26.208,26.207-26.208C62.798,25.55,74.531,37.284,74.531,51.758"/>
	<path clip-path="url(#SVGID_4_)" fill="#2B7EBC" d="M71.255,51.758c0,12.664-10.267,22.931-22.932,22.931
		c-12.664,0-22.931-10.267-22.931-22.931c0-12.665,10.267-22.932,22.931-22.932C60.988,28.826,71.255,39.093,71.255,51.758"/>
	<path clip-path="url(#SVGID_4_)" fill="#2B7EBC" d="M67.979,51.758c0,10.854-8.8,19.655-19.656,19.655
		c-10.855,0-19.655-8.801-19.655-19.655c0-10.855,8.8-19.656,19.655-19.656C59.179,32.102,67.979,40.903,67.979,51.758"/>
	<path clip-path="url(#SVGID_4_)" fill="#2B7FBD" d="M64.703,51.758c0,9.046-7.333,16.379-16.38,16.379
		c-9.046,0-16.379-7.333-16.379-16.379c0-9.046,7.333-16.38,16.379-16.38C57.37,35.377,64.703,42.711,64.703,51.758"/>
	<path clip-path="url(#SVGID_4_)" fill="#2C7FBD" d="M61.427,51.758c0,7.235-5.867,13.104-13.104,13.104
		c-7.237,0-13.104-5.868-13.104-13.104c0-7.237,5.867-13.104,13.104-13.104C55.56,38.654,61.427,44.521,61.427,51.758"/>
	<path clip-path="url(#SVGID_4_)" fill="#2C7FBD" d="M58.151,51.758c0,5.428-4.4,9.827-9.828,9.827
		c-5.427,0-9.828-4.399-9.828-9.827c0-5.428,4.401-9.828,9.828-9.828C53.751,41.93,58.151,46.33,58.151,51.758"/>
	<path clip-path="url(#SVGID_4_)" fill="#2C7FBE" d="M54.875,51.758c0,3.618-2.934,6.552-6.552,6.552
		c-3.618,0-6.552-2.934-6.552-6.552c0-3.619,2.934-6.552,6.552-6.552C51.941,45.206,54.875,48.139,54.875,51.758"/>
	<path clip-path="url(#SVGID_4_)" fill="#2C7FBE" d="M51.6,51.758c0,1.809-1.467,3.274-3.276,3.274s-3.276-1.466-3.276-3.274
		c0-1.81,1.467-3.276,3.276-3.276S51.6,49.948,51.6,51.758"/>
</g>
<g>
	<defs>
		<rect id="SVGID_5_" x="-208" y="-247.276" width="841.89" height="595.276"/>
	</defs>
	<clipPath id="SVGID_6_">
		<use xlink:href="#SVGID_5_"  overflow="visible"/>
	</clipPath>
	<path clip-path="url(#SVGID_6_)" fill="#E6E7E8" d="M57.938,94.549l18.388-0.031L29.575,45.407l-14.386,9.34l34.423,35.992
		C51.841,93.07,54.71,94.53,57.938,94.549"/>
	<path clip-path="url(#SVGID_6_)" fill="#E6E7E8" d="M54.009,8.997H70.54L5.429,73.123V51.704l41.115-39.929
		C48.521,9.911,51.188,8.9,54.009,8.997"/>
	<path clip-path="url(#SVGID_6_)" fill="#E6E7E8" d="M70.53,83.365l-9.702-10.35c-1.862-1.985-2.898-4.605-2.898-7.327V34.645
		l9.702,10.349c1.862,1.986,2.898,4.606,2.898,7.328V83.365z"/>
	<path clip-path="url(#SVGID_6_)" fill="#E6E7E8" d="M91.217,18.653c-0.317-0.133-0.639-0.26-0.966-0.381
		c-3.317-1.224-5.011-1.836-9.281-1.836l-7.72-0.173c-2.82-0.063-5.55,0.988-7.599,2.925L54.149,30.059h9.445v-0.015h14.755
		c3.736,0,6.64,0.868,8.713,2.604c2.073,1.737,3.111,4.643,3.111,8.718c0,4.076-1.038,7.052-3.111,8.93
		c-2.073,1.878-4.977,2.817-8.713,2.817H63.594v-0.013l-5.665,0.024L70.53,66.616v-0.001h9.378c4.804,0,6.882-0.609,10.435-1.827
		c0.296-0.102,0.586-0.21,0.874-0.32V18.653z"/>
	<path clip-path="url(#SVGID_6_)" d="M179.138,75.993h0.454c0.068,0,0.128-0.003,0.178-0.009c0.051-0.005,0.097-0.015,0.138-0.029
		s0.079-0.035,0.113-0.063c0.034-0.025,0.071-0.059,0.111-0.099l3.083-3.17c0.054-0.061,0.107-0.104,0.159-0.124
		c0.053-0.022,0.115-0.032,0.187-0.032h0.443l-3.338,3.428c-0.068,0.073-0.128,0.129-0.18,0.169
		c-0.053,0.038-0.111,0.071-0.176,0.097c0.076,0.021,0.144,0.055,0.205,0.1s0.123,0.104,0.184,0.175l3.515,3.673h-0.448
		c-0.094,0-0.161-0.012-0.203-0.035c-0.041-0.023-0.081-0.06-0.121-0.11l-3.229-3.305c-0.04-0.04-0.076-0.074-0.111-0.103
		c-0.034-0.029-0.072-0.054-0.113-0.073c-0.042-0.02-0.09-0.034-0.146-0.043c-0.056-0.009-0.127-0.014-0.213-0.014h-0.492v3.683
		h-0.556v-7.641h0.556V75.993z"/>
	<path clip-path="url(#SVGID_6_)" d="M197.276,72.467v7.641h-0.259c-0.047,0-0.086-0.008-0.116-0.024
		c-0.031-0.016-0.061-0.044-0.089-0.083l-4.963-6.633c0.011,0.109,0.016,0.212,0.016,0.309v6.432h-0.486v-7.641h0.275
		c0.051,0,0.09,0.006,0.117,0.019c0.026,0.013,0.056,0.041,0.089,0.084l4.952,6.615c-0.011-0.109-0.016-0.211-0.016-0.308v-6.41
		H197.276z"/>
	<path clip-path="url(#SVGID_6_)" d="M212.261,76.284c0,0.591-0.088,1.126-0.264,1.605c-0.177,0.481-0.425,0.893-0.745,1.232
		c-0.321,0.34-0.706,0.603-1.153,0.788c-0.449,0.186-0.943,0.278-1.483,0.278c-0.54,0-1.033-0.093-1.479-0.278
		c-0.447-0.186-0.83-0.448-1.151-0.788c-0.32-0.34-0.568-0.751-0.745-1.232c-0.176-0.479-0.264-1.015-0.264-1.605
		c0-0.587,0.088-1.12,0.264-1.602c0.177-0.479,0.425-0.891,0.745-1.23c0.321-0.34,0.704-0.604,1.151-0.791
		c0.446-0.188,0.939-0.281,1.479-0.281c0.54,0,1.034,0.092,1.483,0.278c0.447,0.186,0.832,0.449,1.153,0.791
		c0.32,0.343,0.568,0.754,0.745,1.233C212.173,75.164,212.261,75.697,212.261,76.284 M211.689,76.284
		c0-0.532-0.074-1.012-0.222-1.438c-0.147-0.424-0.356-0.783-0.626-1.08c-0.27-0.295-0.594-0.52-0.972-0.676
		c-0.378-0.158-0.796-0.235-1.253-0.235c-0.453,0-0.869,0.077-1.247,0.235c-0.378,0.156-0.703,0.381-0.975,0.676
		c-0.272,0.297-0.482,0.656-0.632,1.08c-0.149,0.426-0.224,0.905-0.224,1.438c0,0.537,0.075,1.017,0.224,1.438
		c0.15,0.424,0.36,0.783,0.632,1.078s0.597,0.521,0.975,0.674c0.378,0.156,0.794,0.233,1.247,0.233c0.457,0,0.875-0.077,1.253-0.233
		c0.378-0.153,0.702-0.379,0.972-0.674s0.479-0.654,0.626-1.078C211.615,77.301,211.689,76.821,211.689,76.284"/>
	<path clip-path="url(#SVGID_6_)" d="M229.504,72.467l-2.403,7.641h-0.497l-2.257-6.631c-0.028-0.09-0.054-0.184-0.076-0.281
		c-0.021,0.098-0.047,0.191-0.075,0.281l-2.263,6.631h-0.492l-2.407-7.641h0.459c0.104,0,0.171,0.049,0.199,0.146l1.929,6.28
		c0.039,0.145,0.075,0.307,0.107,0.491c0.019-0.094,0.036-0.181,0.055-0.262c0.018-0.081,0.039-0.157,0.064-0.229l2.159-6.28
		c0.015-0.04,0.04-0.073,0.076-0.103c0.036-0.028,0.079-0.043,0.13-0.043h0.151c0.05,0,0.092,0.014,0.124,0.04
		s0.058,0.062,0.075,0.105l2.16,6.28c0.025,0.068,0.048,0.145,0.067,0.226c0.02,0.083,0.039,0.171,0.057,0.261
		c0.019-0.09,0.035-0.176,0.052-0.257s0.033-0.157,0.052-0.229l1.928-6.28c0.01-0.04,0.035-0.073,0.072-0.103
		c0.038-0.028,0.082-0.043,0.133-0.043H229.504z"/>
	<polygon clip-path="url(#SVGID_6_)" points="241.006,79.638 241.006,80.107 236.831,80.107 236.831,72.467 237.388,72.467 
		237.388,79.638 	"/>
	<polygon clip-path="url(#SVGID_6_)" points="252.826,79.648 252.815,80.107 248.236,80.107 248.236,72.466 252.815,72.466 
		252.815,72.925 248.792,72.925 248.792,76.015 252.141,76.015 252.141,76.462 248.792,76.462 248.792,79.648 	"/>
	<path clip-path="url(#SVGID_6_)" d="M266.877,76.284c0,0.591-0.088,1.122-0.265,1.594c-0.177,0.471-0.425,0.873-0.745,1.204
		s-0.704,0.585-1.152,0.761c-0.449,0.176-0.943,0.265-1.483,0.265h-2.792v-7.641h2.792c0.54,0,1.034,0.088,1.483,0.265
		c0.448,0.176,0.832,0.43,1.152,0.761c0.32,0.332,0.568,0.732,0.745,1.205C266.789,75.169,266.877,75.697,266.877,76.284
		 M266.305,76.284c0-0.532-0.074-1.008-0.222-1.426c-0.147-0.417-0.356-0.77-0.626-1.058c-0.271-0.288-0.595-0.508-0.973-0.66
		c-0.378-0.15-0.796-0.226-1.253-0.226h-2.235v6.744h2.235c0.457,0,0.875-0.075,1.253-0.228c0.378-0.15,0.702-0.371,0.973-0.658
		c0.27-0.287,0.479-0.641,0.626-1.058C266.23,77.298,266.305,76.821,266.305,76.284"/>
	<path clip-path="url(#SVGID_6_)" d="M280.689,76.641v2.717c-0.381,0.269-0.787,0.476-1.22,0.621
		c-0.432,0.143-0.918,0.216-1.458,0.216c-0.604,0-1.148-0.093-1.631-0.279c-0.483-0.185-0.894-0.447-1.234-0.788
		c-0.34-0.341-0.601-0.752-0.782-1.233c-0.183-0.482-0.273-1.02-0.273-1.609s0.089-1.126,0.267-1.606
		c0.18-0.48,0.436-0.892,0.769-1.231s0.735-0.603,1.206-0.788c0.472-0.186,1.003-0.278,1.593-0.278c0.292,0,0.562,0.021,0.807,0.06
		c0.247,0.04,0.478,0.098,0.689,0.176c0.212,0.077,0.411,0.172,0.594,0.286c0.185,0.113,0.36,0.244,0.529,0.391l-0.151,0.238
		c-0.05,0.087-0.126,0.106-0.226,0.06c-0.055-0.021-0.132-0.072-0.233-0.151c-0.101-0.079-0.238-0.162-0.416-0.248
		c-0.176-0.087-0.395-0.164-0.655-0.233c-0.262-0.067-0.579-0.102-0.953-0.102c-0.497,0-0.946,0.079-1.348,0.237
		s-0.743,0.386-1.025,0.681c-0.283,0.295-0.501,0.655-0.654,1.08c-0.152,0.425-0.229,0.901-0.229,1.431
		c0,0.537,0.076,1.02,0.229,1.447c0.153,0.429,0.375,0.792,0.664,1.091c0.29,0.298,0.643,0.527,1.056,0.686
		c0.414,0.158,0.88,0.237,1.399,0.237c0.227,0,0.437-0.014,0.629-0.042c0.193-0.029,0.376-0.069,0.551-0.123
		c0.175-0.051,0.343-0.116,0.508-0.193c0.163-0.077,0.33-0.165,0.499-0.263v-2.057h-1.463c-0.04,0-0.073-0.013-0.1-0.038
		c-0.027-0.024-0.041-0.054-0.041-0.086v-0.303H280.689z"/>
	<polygon clip-path="url(#SVGID_6_)" points="293.056,79.648 293.045,80.107 288.466,80.107 288.466,72.466 293.045,72.466 
		293.045,72.925 289.021,72.925 289.021,76.015 292.37,76.015 292.37,76.462 289.021,76.462 289.021,79.648 	"/>
	<path clip-path="url(#SVGID_6_)" d="M302.813,72.368c0.489,0,0.915,0.058,1.277,0.172c0.361,0.112,0.661,0.274,0.898,0.482
		c0.238,0.209,0.415,0.461,0.532,0.756s0.175,0.624,0.175,0.988c0,0.36-0.062,0.689-0.188,0.988s-0.311,0.557-0.554,0.772
		c-0.242,0.215-0.544,0.385-0.901,0.504c-0.358,0.121-0.771,0.182-1.239,0.182h-1.242v2.895h-1.042v-7.739H302.813z M302.813,76.382
		c0.299,0,0.562-0.04,0.791-0.119s0.421-0.19,0.578-0.332c0.156-0.142,0.274-0.313,0.354-0.51c0.079-0.198,0.118-0.416,0.118-0.654
		c0-0.493-0.151-0.878-0.456-1.156c-0.304-0.276-0.766-0.416-1.385-0.416h-1.242v3.188H302.813z"/>
	<path clip-path="url(#SVGID_6_)" d="M320.104,76.241c0,0.58-0.092,1.11-0.276,1.596c-0.183,0.484-0.443,0.901-0.777,1.25
		c-0.335,0.349-0.736,0.62-1.207,0.812c-0.47,0.193-0.988,0.289-1.558,0.289s-1.087-0.096-1.555-0.289
		c-0.468-0.192-0.869-0.464-1.204-0.812s-0.594-0.766-0.778-1.25c-0.183-0.485-0.274-1.016-0.274-1.596
		c0-0.579,0.092-1.111,0.274-1.597c0.185-0.483,0.443-0.9,0.778-1.253c0.335-0.35,0.736-0.623,1.204-0.817s0.985-0.291,1.555-0.291
		s1.088,0.097,1.558,0.291c0.471,0.194,0.872,0.468,1.207,0.817c0.334,0.353,0.595,0.77,0.777,1.253
		C320.013,75.13,320.104,75.662,320.104,76.241 M319.029,76.241c0-0.477-0.064-0.901-0.194-1.279
		c-0.13-0.379-0.312-0.699-0.551-0.959c-0.237-0.261-0.526-0.462-0.864-0.603c-0.338-0.14-0.716-0.21-1.134-0.21
		c-0.414,0-0.79,0.07-1.129,0.21c-0.338,0.141-0.627,0.342-0.866,0.603c-0.24,0.26-0.424,0.58-0.554,0.959
		c-0.129,0.378-0.194,0.803-0.194,1.279c0,0.476,0.065,0.9,0.194,1.276c0.13,0.376,0.313,0.695,0.554,0.956
		c0.239,0.262,0.528,0.46,0.866,0.6c0.339,0.139,0.715,0.208,1.129,0.208c0.418,0,0.796-0.069,1.134-0.208
		c0.338-0.14,0.627-0.338,0.864-0.6c0.238-0.261,0.421-0.58,0.551-0.956S319.029,76.717,319.029,76.241"/>
	<path clip-path="url(#SVGID_6_)" d="M337.454,72.369l-2.414,7.737h-0.94l-1.959-5.901c-0.019-0.059-0.035-0.118-0.052-0.185
		l-0.052-0.204c-0.018,0.072-0.035,0.141-0.053,0.204c-0.019,0.066-0.036,0.126-0.055,0.185l-1.971,5.901h-0.939l-2.414-7.737h0.869
		c0.094,0,0.172,0.022,0.234,0.069c0.063,0.048,0.104,0.107,0.122,0.18l1.599,5.378c0.024,0.098,0.05,0.202,0.072,0.312
		c0.024,0.112,0.046,0.231,0.068,0.357c0.024-0.126,0.051-0.246,0.078-0.36c0.026-0.112,0.057-0.216,0.089-0.31l1.819-5.378
		c0.022-0.062,0.064-0.118,0.127-0.17c0.063-0.054,0.141-0.079,0.229-0.079h0.303c0.093,0,0.169,0.022,0.228,0.069
		c0.057,0.048,0.1,0.107,0.129,0.18l1.814,5.378c0.032,0.094,0.062,0.193,0.09,0.303c0.026,0.107,0.053,0.221,0.077,0.34
		c0.019-0.119,0.038-0.232,0.061-0.34c0.021-0.109,0.045-0.209,0.068-0.303l1.604-5.378c0.019-0.065,0.059-0.123,0.122-0.173
		c0.062-0.052,0.139-0.076,0.229-0.076H337.454z"/>
	<polygon clip-path="url(#SVGID_6_)" points="349.323,79.255 349.318,80.107 344.55,80.107 344.55,72.369 349.318,72.369 
		349.318,73.223 345.598,73.223 345.598,75.793 348.61,75.793 348.61,76.613 345.598,76.613 345.598,79.255 	"/>
	<path clip-path="url(#SVGID_6_)" d="M362.445,80.107h-0.93c-0.19,0-0.33-0.073-0.421-0.221l-2.009-2.766
		c-0.061-0.086-0.127-0.149-0.197-0.187c-0.069-0.037-0.179-0.056-0.326-0.056h-0.795v3.229h-1.041v-7.738h2.187
		c0.49,0,0.913,0.05,1.269,0.147c0.357,0.101,0.651,0.243,0.884,0.431c0.231,0.188,0.403,0.413,0.516,0.678
		c0.111,0.264,0.167,0.56,0.167,0.888c0,0.274-0.043,0.529-0.129,0.768c-0.086,0.236-0.212,0.451-0.375,0.64
		c-0.165,0.189-0.364,0.35-0.6,0.483c-0.236,0.133-0.504,0.234-0.803,0.303c0.133,0.075,0.249,0.185,0.347,0.329L362.445,80.107z
		 M358.87,76.117c0.303,0,0.57-0.037,0.802-0.11c0.232-0.075,0.427-0.179,0.583-0.313c0.157-0.136,0.275-0.296,0.354-0.483
		s0.119-0.395,0.119-0.621c0-0.461-0.151-0.809-0.454-1.042c-0.303-0.234-0.757-0.352-1.361-0.352h-1.146v2.922H358.87z"/>
	<path clip-path="url(#SVGID_6_)" fill="#E6E7E8" d="M5.43,53.567v35.563c0,2.976,2.411,5.387,5.386,5.387h8.127v-40.95H5.43z"/>
	<path clip-path="url(#SVGID_6_)" fill="#E6E7E8" d="M10.815,8.997c-2.975,0-5.386,2.411-5.386,5.386v27.783L41.292,8.997H10.815z"
		/>
</g>
</svg>
