<?xml version="1.0" encoding="UTF-8"?>
<svg width="188px" height="28px" viewBox="0 0 188 28" version="1.1" xmlns="http://www.w3.org/2000/svg" xmlns:xlink="http://www.w3.org/1999/xlink">
    <!-- Generator: Sketch 53.2 (72643) - https://sketchapp.com -->
    <title>skaffolder_logo-nero</title>
    <desc>Created with Sketch.</desc>
    <g id="Page-1" stroke="none" stroke-width="1" fill="none" fill-rule="evenodd">
        <g id="skaffolder_logo-nero" fill-rule="nonzero">
            <g id="Livello_1">
                <path d="M0.00570264766,21.202444 L5.02973523,18.288391 C5.94215886,20.3983707 7.50468432,21.8183299 10.3788187,21.8183299 C13.1446029,21.8183299 13.8346232,20.7291242 13.8346232,19.7425662 C13.8346232,18.1800407 12.3804481,17.5584521 8.55397149,16.5034623 C4.77311609,15.4484725 1.06069246,13.6293279 1.06069246,8.75356415 C1.06069246,3.83788187 5.21221996,0.99796334 9.61466395,0.99796334 C13.8004073,0.99796334 17.0794297,2.99959267 18.9327902,6.75193483 L14.0171079,9.62606925 C13.1446029,7.80692464 11.9413442,6.67780041 9.61466395,6.67780041 C7.79551935,6.67780041 6.88309572,7.59022403 6.88309572,8.60529532 C6.88309572,9.76863544 7.50468432,10.5727088 11.4680244,11.7702648 C15.3287169,12.9336049 19.6570265,14.2794297 19.6570265,19.6684318 C19.6570265,24.5841141 15.7279022,27.4924644 10.1906314,27.4924644 C4.84725051,27.498167 1.42566191,24.9490835 0.00570264766,21.202444 Z" id="XMLID_69_" fill="#0A0A0A"></path>
                <polygon id="XMLID_98_" fill="#0A0A0A" points="27.7433809 19.3490835 27.7433809 27.4639511 22.2346232 27.4639511 22.2346232 1.76211813 27.7433809 1.76211813 27.7433809 17.1478615"></polygon>
                <path d="M60.5564155,9.26680244 L60.5564155,27.4696538 L55.093279,27.4696538 L55.093279,25.7588595 C53.8900204,27.1446029 52.1107943,27.9771894 49.6700611,27.9771894 C44.9026477,27.9771894 40.9678208,23.791446 40.9678208,18.3682281 C40.9678208,12.9450102 44.896945,8.7592668 49.6700611,8.7592668 C52.1107943,8.7592668 53.8900204,9.59755601 55.093279,10.9775967 L55.093279,9.26680244 L60.5564155,9.26680244 Z M55.0989817,18.3682281 C55.0989817,15.6366599 53.2798371,13.9258656 50.7649695,13.9258656 C48.2558045,13.9258656 46.4309572,15.6366599 46.4309572,18.3682281 C46.4309572,21.0997963 48.2501018,22.8105906 50.7649695,22.8105906 C53.2798371,22.804888 55.0989817,21.0940937 55.0989817,18.3682281 Z" id="XMLID_100_" fill="#0A0A0A"></path>
                <polygon id="XMLID_103_" fill="#FF6B35" points="28.4847251 18.288391 34.7747454 9.10712831 41.2016293 9.10712831 34.5181263 18.288391 41.3841141 27.4696538 35.1397149 27.4696538 29.2659878 19.3547862"></polygon>
                <polygon id="XMLID_105_" fill="#FF6B35" points="187.263544 19.3490835 181.389817 27.4639511 175.145418 27.4639511 182.011405 18.2826884 175.327902 9.10142566 181.754786 9.10142566 188.044807 18.2826884"></polygon>
                <path d="M71.9160896,8.2688391 L75.485947,8.2688391 L75.485947,13.8004073 L71.9160896,13.8004073 L71.9160896,27.4696538 L66.1564155,27.4696538 L66.1564155,13.8004073 L63.5845214,13.8004073 L63.5845214,8.2688391 L66.1564155,8.2688391 C66.1564155,2.89124236 69.110387,-0.330753564 75.485947,0.0513238289 L75.485947,5.58289206 C73.3360489,5.38900204 71.9160896,6.04480652 71.9160896,8.2688391 Z" id="XMLID_106_" fill="#0A0A0A"></path>
                <path d="M86.4236253,8.2688391 L89.9934827,8.2688391 L89.9934827,13.8004073 L86.4236253,13.8004073 L86.4236253,27.4696538 L80.6639511,27.4696538 L80.6639511,13.8004073 L78.092057,13.8004073 L78.092057,8.2688391 L80.6639511,8.2688391 C80.6639511,2.89124236 83.6179226,-0.330753564 89.9934827,0.0513238289 L89.9934827,5.58289206 C87.8435845,5.38900204 86.4236253,6.04480652 86.4236253,8.2688391 Z" id="XMLID_108_" fill="#0A0A0A"></path>
                <path d="M90.8545825,18.1515275 C90.8545825,12.8138493 95.0802444,8.69653768 100.343788,8.69653768 C105.607332,8.69653768 109.838697,12.8138493 109.838697,18.1515275 C109.838697,23.4892057 105.613035,27.6065173 100.343788,27.6065173 C95.0802444,27.6065173 90.8545825,23.4892057 90.8545825,18.1515275 Z M104.4611,18.1515275 C104.4611,15.6081466 102.670468,13.9258656 100.343788,13.9258656 C98.0171079,13.9258656 96.2264766,15.6081466 96.2264766,18.1515275 C96.2264766,20.6949084 98.0171079,22.3771894 100.343788,22.3771894 C102.670468,22.3771894 104.4611,20.6949084 104.4611,18.1515275 Z" id="XMLID_110_" fill="#0A0A0A"></path>
                <polyline id="XMLID_113_" fill="#0A0A0A" points="117.480244 27.3213849 112.017108 27.3213849 112.017108 1.84195519 117.480244 1.84195519 117.520163 27.3384929"></polyline>
                <path d="M139.292872,1.98452138 L139.292872,27.4639511 L133.829735,27.4639511 L133.829735,25.7531568 C132.626477,27.1389002 130.847251,27.9714868 128.406517,27.9714868 C123.639104,27.9714868 119.704277,23.7857434 119.704277,18.3625255 C119.704277,12.9393075 123.633401,8.75356415 128.406517,8.75356415 C130.847251,8.75356415 132.626477,9.59185336 133.829735,10.9718941 L133.829735,1.98452138 L139.292872,1.98452138 Z M133.835438,18.3682281 C133.835438,15.6366599 132.016293,13.9258656 129.501426,13.9258656 C126.992261,13.9258656 125.167413,15.6366599 125.167413,18.3682281 C125.167413,21.0997963 126.986558,22.8105906 129.501426,22.8105906 C132.016293,22.804888 133.835438,21.0940937 133.835438,18.3682281 Z" id="XMLID_115_" fill="#0A0A0A"></path>
                <path d="M151.798778,22.6224033 C153.292872,22.6224033 154.564562,22.0407332 155.294501,21.2366599 L159.662729,23.7458248 C157.8778,26.2207739 155.186151,27.4924644 151.724644,27.4924644 C145.497352,27.4924644 141.642363,23.306721 141.642363,17.8835031 C141.642363,12.4602851 145.571487,8.27454175 151.325458,8.27454175 C156.640326,8.27454175 160.56945,12.3861507 160.56945,17.8835031 C160.56945,18.6476578 160.495316,19.3775967 160.352749,20.0676171 L147.43055,20.0676171 C148.126273,21.9665988 149.797149,22.6224033 151.798778,22.6224033 Z M155.151935,15.9959267 C154.570265,13.885947 152.933605,13.1217923 151.291242,13.1217923 C149.215479,13.1217923 147.835438,14.1425662 147.3222,15.9959267 L155.151935,15.9959267 Z" id="XMLID_118_" fill="#0A0A0A"></path>
                <path d="M174.067617,8.90183299 L174.067617,15.0892057 C171.809369,14.7242363 168.604481,15.6366599 168.604481,19.2407332 L168.604481,27.4696538 L163.141344,27.4696538 L163.141344,9.26680244 L168.604481,9.26680244 L168.604481,12.5059063 C169.33442,10.0651731 171.775153,8.90183299 174.067617,8.90183299 Z" id="XMLID_121_" fill="#0A0A0A"></path>
            </g>
        </g>
    </g>
</svg>