<svg width="20px" height="20px" viewBox="0 0 20 20" version="1.1" xmlns="http://www.w3.org/2000/svg" xmlns:xlink="http://www.w3.org/1999/xlink">
    <g id="Home" stroke="none" stroke-width="1" fill="none" fill-rule="evenodd">
        <g id="Home---After-Landing-Animation" transform="translate(-1075.000000, -4687.000000)">
            <rect fill="#FFFFFF" x="0" y="0" width="1440" height="4759"></rect>
            <g id="S/Icons/Social/Facebook-color" transform="translate(1060.000000, 4672.000000)">
                <g id="Group-3">
                    <rect id="Rectangle" x="0" y="0" width="50" height="50"></rect>
                    <path d="M16.5980772,34.4444444 C16.0221397,34.4444444 15.5555556,33.9775707 15.5555556,33.4018576 L15.5555556,16.5980691 C15.5555556,16.0222094 16.022213,15.5555556 16.5980772,15.5555556 L33.4019961,15.5555556 C33.9777137,15.5555556 34.4444444,16.0222094 34.4444444,16.5980691 L34.4444444,33.4018576 C34.4444444,33.977644 33.9776404,34.4444444 33.4019961,34.4444444 L28.5886155,34.4444444 L28.5886155,27.1296257 L31.0438625,27.1296257 L31.4115009,24.278911 L28.5886155,24.278911 L28.5886155,22.4589098 C28.5886155,21.6335621 28.8178032,21.0711149 30.0013408,21.0711149 L31.5108864,21.0704553 L31.5108864,18.5207532 C31.2498162,18.4860125 30.3537343,18.4083957 29.3112126,18.4083957 C27.1347727,18.4083957 25.6447231,19.7368969 25.6447231,22.1765868 L25.6447231,24.278911 L23.1831729,24.278911 L23.1831729,27.1296257 L25.6447231,27.1296257 L25.6447231,34.4444444 L16.5980772,34.4444444 Z" id="Facebook" fill="#4469B0"></path>
                </g>
            </g>
        </g>
    </g>
</svg>
