<?xml version="1.0" encoding="UTF-8"?>
<svg width="512px" height="512px" viewBox="0 0 512 512" version="1.1" xmlns="http://www.w3.org/2000/svg" xmlns:xlink="http://www.w3.org/1999/xlink">
    <!-- Generator: Sketch 53.2 (72643) - https://sketchapp.com -->
    <title>NG_safari_pinned_tab_icon-black</title>
    <desc>Created with Sketch.</desc>
    <g id="NG_safari_pinned_tab_icon-black" stroke="none" stroke-width="1" fill="none" fill-rule="evenodd">
        <g id="Logo-BG">
            <g id="Logo" transform="translate(29.000000, 14.000000)">
                <path d="M224.896296,6.43195165 L9.62551981,83.3738956 L5.97061643,84.6804219 L6.41621221,88.5516917 L39.2497954,373.840831 L39.5385196,376.346804 L41.7354181,377.566909 L224.171138,478.842016 L226.530437,480.150848 L228.887614,478.842777 L411.324141,377.567223 L413.521981,376.346804 L413.810251,373.841509 L446.643981,88.5510888 L447.089901,84.6802769 L443.435652,83.3739846 L228.162103,6.43133473 L226.531184,5.84798981 L224.896296,6.43195165 Z" id="badge-BG" stroke="#000000" stroke-width="11.013883" fill="#FFFFFF"></path>
                <g id="Elements" transform="translate(43.124427, 98.244668)" fill="#000000">
                    <path d="M220.598776,166.051346 L220.601971,166.051346 C221.917266,166.051346 223.154298,166.564417 224.085466,167.496909 C225.016634,168.429401 225.530134,169.670056 225.530933,170.989153 L235.659583,170.98435 C235.657187,166.952622 234.089535,163.164222 231.244121,160.314717 C228.400305,157.466814 224.621327,155.898786 220.601971,155.898786 L220.593186,155.898786 C212.290137,155.903589 205.538768,162.678365 205.542761,171.001159 L205.548351,181.017647 L215.676203,181.011244 L215.671411,170.995556 C215.669814,168.270117 217.88034,166.052947 220.598776,166.051346" id="Fill-2"></path>
                    <polygon id="Fill-4" points="107.061023 0.554612805 33.5434575 0.554612805 33.5434575 10.7063724 112.897994 10.7063724"></polygon>
                    <path d="M206.725808,90.7912928 L179.593355,90.7912928 L180.150778,90.4687225 L165.904544,65.6812361 L154.20904,65.6812361 L168.64614,90.7912928 L123.082786,90.7912928 L123.077196,81.3711195 C123.076397,80.0520231 123.589099,78.8105677 124.519468,77.8764745 C125.450637,76.9431818 126.687669,76.4285101 128.004561,76.4285101 L128.007755,76.4285101 C129.323849,76.4285101 130.560881,76.9407805 131.491251,77.8724724 C132.423218,78.8057651 132.936718,80.0464201 132.937516,81.3671174 L143.066167,81.360714 C143.063771,77.3297859 141.495319,73.539785 138.649107,70.691081 C135.806089,67.8439779 132.027112,66.2759501 128.008554,66.2759501 L127.999769,66.2759501 C123.977219,66.2783513 120.196644,67.8495809 117.353626,70.7022869 C114.510608,73.554993 112.946948,77.3457943 112.949344,81.3775229 L112.954136,90.7912928 L76.807081,90.7912928 L76.8022894,81.396733 C76.8006922,78.6712941 79.0112184,76.4541236 81.7288559,76.4525227 L81.7312517,76.4525227 C84.4488893,76.4525227 86.6602141,78.6680924 86.6618113,81.3911301 L96.7904615,81.3863275 C96.7864685,73.0659348 90.0311068,66.2999627 81.7304531,66.2999627 L81.7240643,66.2999627 C73.4210149,66.3047653 66.6696461,73.079542 66.6736392,81.402336 L66.6784308,90.7912928 L53.1908668,90.7912928 L53.1908668,65.6812361 L43.0622165,65.6812361 L43.0622165,90.7912928 L33.543697,90.7912928 L33.543697,100.943052 L212.562779,100.943052 L206.725808,90.7912928 Z" id="Fill-6"></path>
                    <polygon id="Fill-8" points="157.069866 45.6729928 130.710459 45.6729928 116.603181 21.127234 104.907677 21.127234 119.020545 45.6729928 53.1903077 45.6729928 53.1903077 21.127234 43.0616575 21.127234 43.0616575 45.6729928 33.543138 45.6729928 33.543138 55.8247524 162.906837 55.8247524"></polygon>
                    <path d="M252.054213,135.909673 L229.18469,135.909673 L229.448228,135.756792 L215.202792,110.970106 L203.507288,110.970106 L217.846959,135.909673 L169.379894,135.909673 L169.374303,125.901189 C169.373505,124.581292 169.885408,123.340637 170.816576,122.406544 C171.746946,121.473251 172.984776,120.957779 174.301669,120.957779 L174.304863,120.957779 C175.620957,120.957779 176.85719,121.47085 177.788358,122.402542 C178.720325,123.335835 179.233027,124.57649 179.233825,125.895586 L189.362476,125.890783 C189.360878,121.859055 187.792427,118.069854 184.946215,115.22035 C182.102398,112.374047 178.324219,110.80602 174.305662,110.80602 L174.296078,110.80602 C170.274326,110.808421 166.492953,112.37965 163.650734,115.232356 C160.807716,118.083462 159.244056,121.875063 159.245653,125.906792 L159.251243,135.909673 L123.104189,135.909673 L123.098598,125.925202 C123.0978,124.606105 123.610501,123.36465 124.540871,122.431357 C125.472039,121.497264 126.709071,120.983393 128.025964,120.982592 L128.029158,120.982592 C130.745997,120.982592 132.957322,123.196561 132.958919,125.921199 L143.087569,125.914796 C143.082778,117.595204 136.329013,110.830032 128.029158,110.830032 L128.021172,110.830032 C123.998621,110.832433 120.218046,112.404463 117.375029,115.256369 C114.532011,118.109075 112.968351,121.899876 112.970747,125.930805 L112.975538,135.909673 L76.8284835,135.909673 L76.8236919,125.950815 C76.8220947,123.226177 79.0326209,121.009006 81.751057,121.007405 L81.7534528,121.007405 C84.4702918,121.007405 86.6816166,123.221374 86.6832138,125.946013 L96.811864,125.939609 C96.8070724,117.620017 90.0533079,110.854845 81.7534528,110.854845 L81.7454668,110.854845 C73.4416187,110.859648 66.69025,117.634425 66.6950416,125.956418 L66.7006318,135.909673 L53.190707,135.909673 L53.190707,111.363914 L43.0620568,111.363914 L43.0620568,135.909673 L33.5435373,135.909673 L33.5435373,146.061432 L257.891184,146.061432 L252.054213,135.909673 Z" id="Fill-10"></path>
                    <polygon id="Fill-12" points="336.753064 100.942732 336.753064 90.7909727 218.723103 90.7909727 224.55688 100.942732"></polygon>
                    <polygon id="Fill-14" points="317.105814 111.363914 317.105814 135.909673 263.865514 135.909673 269.70009 146.061432 336.752984 146.061432 336.752984 135.909673 327.234465 135.909673 327.234465 111.363914"></polygon>
                    <path d="M327.234145,181.028053 L327.234145,156.471889 L317.105495,156.471889 L317.105495,181.028053 L275.892917,181.028053 L262.125843,157.073806 L250.431137,157.073806 L264.203003,181.028053 L169.401136,181.028053 L169.395546,171.018769 C169.394748,169.699672 169.907449,168.459017 170.837819,167.524924 C171.768188,166.591631 173.006019,166.076159 174.322911,166.076159 L174.326106,166.076159 C175.642199,166.076159 176.879232,166.58923 177.8104,167.520922 C178.741568,168.454215 179.255068,169.69487 179.255867,171.014766 L189.384517,171.008363 C189.382121,166.977435 187.81367,163.188234 184.967458,160.33873 C182.12444,157.492427 178.345462,155.9244 174.326904,155.9244 L174.31812,155.9244 C170.295569,155.926801 166.514994,157.49803 163.671976,160.349936 C160.829757,163.201842 159.265299,166.993443 159.267695,171.024371 L159.272486,181.028053 L123.125431,181.028053 L123.12064,171.043582 C123.119841,169.724485 123.631744,168.48303 124.562114,167.549737 C125.493282,166.615644 126.731113,166.101773 128.047206,166.100972 L128.049602,166.100972 C130.766441,166.100972 132.978564,168.314941 132.980162,171.03958 L143.108812,171.033176 C143.10402,162.713584 136.349457,155.948412 128.048804,155.948412 L128.042415,155.948412 C124.019864,155.950813 120.239289,157.522843 117.396271,160.374749 C114.554052,163.227455 112.989594,167.018256 112.99199,171.049985 L112.99758,181.028053 L76.8505249,181.028053 L76.8449347,171.069996 C76.8433375,168.344557 79.0538637,166.127386 81.7722998,166.125785 C83.1179417,166.136991 84.3270228,166.637255 85.2589896,167.571348 C86.1901578,168.503841 86.7044566,169.743695 86.7052552,171.063592 L96.8331068,171.05879 C96.8315096,167.027061 95.2630582,163.237861 92.4176446,160.389157 C89.5738282,157.541253 85.7948506,155.973225 81.7754942,155.973225 L81.7667096,155.973225 C73.4636601,155.978028 66.7122914,162.752805 66.7162844,171.074798 L66.7218746,181.028053 L52.9548004,181.028053 L52.9548004,157.073806 L42.8269488,157.073806 L42.8269488,181.028053 L0.600148282,181.028053 L1.76850083,191.179812 L365.043886,191.179812 L366.212239,181.028053 L327.234145,181.028053 Z" id="Fill-16"></path>
                    <polygon id="Fill-18" points="103.167846 206.40313 103.167846 319.872635 113.296496 325.494803 113.296496 206.40313"></polygon>
                    <polygon id="Fill-20" points="128.218506 206.40313 128.218506 333.779177 138.347156 339.401345 138.347156 206.40313"></polygon>
                    <polygon id="Fill-22" points="78.1167858 206.40313 78.1167858 305.966093 88.2454361 311.588262 88.2454361 206.40313"></polygon>
                    <polygon id="Fill-24" points="53.0662052 206.40313 53.0662052 292.059551 63.1948555 297.68252 63.1948555 206.40313"></polygon>
                    <polygon id="Fill-26" points="3.52063034 206.40313 10.6705007 268.523926 13.0934546 269.869436 13.0934546 206.40313"></polygon>
                    <polygon id="Fill-28" points="178.319747 206.40313 178.319747 361.59146 183.406034 364.414551 188.448397 361.615473 188.448397 206.40313"></polygon>
                    <polygon id="Fill-30" points="28.0155447 206.40313 28.0155447 278.15381 38.144195 283.775978 38.144195 206.40313"></polygon>
                    <polygon id="Fill-32" points="153.269087 206.40313 153.269087 347.685719 163.397737 353.307887 163.397737 206.40313"></polygon>
                    <polygon id="Fill-34" points="328.624269 206.40313 328.624269 283.799991 338.752919 278.177823 338.752919 206.40313"></polygon>
                    <polygon id="Fill-36" points="203.370727 206.40313 203.370727 353.3319 213.499377 347.708931 213.499377 206.40313"></polygon>
                    <polygon id="Fill-38" points="303.573689 206.40313 303.573689 297.706533 313.702339 292.083564 313.702339 206.40313"></polygon>
                    <polygon id="Fill-40" points="353.67493 206.40313 353.67493 269.893449 356.141807 268.523926 363.291677 206.40313"></polygon>
                    <polygon id="Fill-42" points="278.523028 206.40313 278.523028 311.612274 288.651678 305.990106 288.651678 206.40313"></polygon>
                    <polygon id="Fill-44" points="228.421388 206.40313 228.421388 339.425358 238.550038 333.80319 238.550038 206.40313"></polygon>
                    <polygon id="Fill-46" points="253.472048 206.40313 253.472048 325.518816 263.600698 319.896648 263.600698 206.40313"></polygon>
                </g>
            </g>
        </g>
    </g>
</svg>