<svg width="21px" height="20px" viewBox="0 0 21 20" version="1.1" xmlns="http://www.w3.org/2000/svg" xmlns:xlink="http://www.w3.org/1999/xlink">
    <g id="Home" stroke="none" stroke-width="1" fill="none" fill-rule="evenodd">
        <g id="Home---After-Landing-Animation" transform="translate(-1150.000000, -4689.000000)">
            <rect fill="#FFFFFF" x="0" y="0" width="1440" height="4759"></rect>
            <g id="S/Icons/Social/Twitter-color" transform="translate(1135.000000, 4672.000000)">
                <g id="Group-7">
                    <rect id="Rectangle-Copy" x="0" y="0" width="50" height="50"></rect>
                    <path d="M35.9041667,19.6388839 C35.1407172,20.0181624 34.3187284,20.2746529 33.456494,20.389255 C34.337022,19.7998726 35.0126626,18.8653194 35.3309698,17.7520415 C34.5065419,18.2977659 33.5955247,18.6947805 32.6223095,18.9076131 C31.8466644,17.9812457 30.7380772,17.4027778 29.5111919,17.4027778 C27.1586455,17.4027778 25.2500218,19.5379248 25.2500218,22.1710455 C25.2500218,22.5448668 25.2866088,22.9077736 25.3597829,23.2570372 C21.8169382,23.0578478 18.676551,21.1614552 16.5727964,18.2732083 C16.2057065,18.9799216 15.9959408,19.7998726 15.9959408,20.6730318 C15.9959408,22.326577 16.7484142,23.78639 17.8923688,24.6418131 C17.194776,24.6186198 16.5362093,24.4016944 15.9605733,24.0469734 L15.9605733,24.1056388 C15.9605733,26.416782 17.4301526,28.3445538 19.3814612,28.7811334 C19.0241278,28.8930069 18.6472813,28.9489437 18.2582392,28.9489437 C17.9838364,28.9489437 17.7155315,28.9202931 17.4557635,28.8643564 C17.9984712,30.7580203 19.5717138,32.137339 21.4376526,32.1741754 C19.9790494,33.4538993 18.1399411,34.2165493 16.1435085,34.2165493 C15.7995904,34.2165493 15.4593309,34.1947203 15.1263889,34.1510624 C17.0130604,35.5017305 19.2546261,36.2916667 21.6608335,36.2916667 C29.5026549,36.2916667 33.789436,29.0267094 33.789436,22.7249559 C33.789436,22.5175806 33.7857773,22.3102052 33.7784599,22.1069229 C34.6114247,21.4343174 35.3346285,20.595266 35.9041667,19.6388839" id="Twitter" fill="#2BA3EF"></path>
                </g>
            </g>
        </g>
    </g>
</svg>
