<svg width="30px" height="22px" viewBox="0 0 30 22" version="1.1" xmlns="http://www.w3.org/2000/svg" xmlns:xlink="http://www.w3.org/1999/xlink">
    <g id="Home" stroke="none" stroke-width="1" fill="none" fill-rule="evenodd">
        <g id="Home---After-Landing-Animation" transform="translate(-1221.000000, -4686.000000)">
            <rect fill="#FFFFFF" x="0" y="0" width="1440" height="4759"></rect>
            <g id="S/Icons/Social/Youtube-color" transform="translate(1210.000000, 4672.000000)">
                <g id="Group-10">
                    <rect id="Rectangle-Copy-6" x="0" y="0" width="50" height="50"></rect>
                    <path d="M22.9134217,28.8930851 L22.9124921,20.4597088 L30.9498879,24.6909357 L22.9134217,28.8930851 Z M40.5611111,18.9983363 C40.5611111,18.9983363 40.2701436,16.9300909 39.378649,16.0193125 C38.2473153,14.8233883 36.9793292,14.8177604 36.3983239,14.7483499 C32.2355366,14.4444444 25.9913557,14.4444444 25.9913557,14.4444444 L25.9783412,14.4444444 C25.9783412,14.4444444 19.7341604,14.4444444 15.5713731,14.7483499 C14.9894381,14.8177604 13.7223816,14.8233883 12.5901184,16.0193125 C11.6986237,16.9300909 11.4085859,18.9983363 11.4085859,18.9983363 C11.4085859,18.9983363 11.1111111,21.427704 11.1111111,23.8561336 L11.1111111,26.1335486 C11.1111111,28.5629162 11.4085859,30.9913459 11.4085859,30.9913459 C11.4085859,30.9913459 11.6986237,33.0595913 12.5901184,33.9703697 C13.7223816,35.1662939 15.2088258,35.1287748 15.8707071,35.2535261 C18.2505051,35.4842691 25.9848485,35.5555556 25.9848485,35.5555556 C25.9848485,35.5555556 32.2355366,35.5461758 36.3983239,35.2422703 C36.9793292,35.1719218 38.2473153,35.1662939 39.378649,33.9703697 C40.2701436,33.0595913 40.5611111,30.9913459 40.5611111,30.9913459 C40.5611111,30.9913459 40.8585859,28.5629162 40.8585859,26.1335486 L40.8585859,23.8561336 C40.8585859,21.427704 40.5611111,18.9983363 40.5611111,18.9983363 L40.5611111,18.9983363 Z" id="Youtube" fill="#FB0018"></path>
                </g>
            </g>
        </g>
    </g>
</svg>
