<?xml version="1.0" encoding="UTF-8"?>
<svg width="366px" height="239px" viewBox="0 0 366 239" version="1.1" xmlns="http://www.w3.org/2000/svg" xmlns:xlink="http://www.w3.org/1999/xlink">
    <!-- Generator: Sketch 56.3 (81716) - https://sketch.com -->
    <title>logo_kp</title>
    <desc>Created with Sketch.</desc>
    <g id="logo_kp" stroke="none" stroke-width="1" fill="none" fill-rule="evenodd">
        <g id="kp_logo_espanso" transform="translate(54.000000, 93.000000)" fill-rule="nonzero">
            <polygon id="Path" fill="#000000" points="87.0981647 10.3382118 82.8996235 10.3382118 74.2437647 16.9960471 76.2411765 18.4220706"></polygon>
            <polygon id="Path" fill="#000000" points="71.4694118 10.3382118 68.5311059 10.3382118 68.5311059 29.1322353 71.4694118 29.1322353 71.4694118 20.1215529 83.9616471 29.1322353 87.9411765 29.1322353 71.4694118 16.8333176"></polygon>
            <polygon id="Path" fill="#000000" points="90.9730824 13.0636235 102.601506 13.0636235 102.601506 10.5492706 88.036 10.5492706 88.036 29.1322353 102.813176 29.1322353 102.813176 26.8289412 90.9730824 26.8289412"></polygon>
            <rect id="Rectangle" fill="#000000" x="92.2645176" y="18.3719059" width="9.0688" height="2.51496471"></rect>
            <polygon id="Path" fill="#000000" points="106.392 10.3382118 103.009553 10.3382118 112.175012 19.9618824 113.875106 18.2611765"></polygon>
            <polygon id="Path" fill="#000000" points="122.828282 10.3382118 113.142824 20.8844235 113.142824 29.1322353 116.080518 29.1322353 116.080518 21.3365176 126.418729 10.3382118"></polygon>
            <g id="Group" transform="translate(70.964706, 10.400000)">
                <polygon id="Path" fill="#6D6E71" points="148.572565 14.8567059 135.308282 0.141317647 135.263012 0.0905411765 132.314918 0.0905411765 148.868659 18.5786824 151.203765 18.5786824 151.203765 0.0905411765 148.572565 0.0905411765"></polygon>
                <polygon id="Path" fill="#6D6E71" points="132.504565 18.5792941 135.135765 18.5792941 135.135765 5.4704 132.504565 2.59877647"></polygon>
                <polygon id="Path" fill="#6D6E71" points="110.911718 2.51068235 118.734353 2.51068235 118.734353 18.5792941 121.366776 18.5792941 121.366776 2.51068235 129.611529 2.51068235 129.611529 0.0905411765 110.911718 0.0905411765"></polygon>
                <path d="M106.881412,10.2592941 C107.149976,10.0977882 107.436282,9.89345882 107.732376,9.65181176 C108.033365,9.40527059 108.297035,9.11407059 108.518494,8.78188235 C108.790118,8.34691765 108.988329,7.85016471 109.1064,7.30630588 C109.222024,6.76795294 109.281976,6.22348235 109.281976,5.68818824 C109.281976,5.15289412 109.231812,4.63595294 109.133318,4.15143529 C109.034212,3.66385882 108.900235,3.25030588 108.734447,2.91872941 C108.407153,2.3192 107.986259,1.83896471 107.484612,1.49270588 C106.990918,1.15134118 106.480094,0.891341176 105.966212,0.720047059 C105.456,0.549976471 104.973929,0.441082353 104.532235,0.395811765 C104.099106,0.351764706 103.767529,0.320564706 103.525882,0.302211765 L93.8581647,0.302211765 L93.8581647,18.5792941 L96.7010353,18.5792941 L96.7010353,2.51068235 L103.3136,2.51068235 C103.4696,2.51068235 103.659247,2.52047059 103.884376,2.53698824 C104.103388,2.55411765 104.335859,2.59265882 104.572612,2.652 C104.803859,2.71011765 105.044282,2.80738824 105.288988,2.94136471 C105.526965,3.07289412 105.7472,3.26498824 105.946024,3.51336471 C106.193788,3.81129412 106.380376,4.17468235 106.496612,4.59251765 C106.615294,5.01891765 106.675859,5.45449412 106.675859,5.8864 C106.675859,6.31769412 106.612235,6.72818824 106.4856,7.10625882 C106.363247,7.47392941 106.187671,7.7584 105.958871,7.95477647 C105.7264,8.17011765 105.475576,8.33345882 105.211906,8.44051765 C104.942118,8.55063529 104.679671,8.632 104.433129,8.68338824 C104.188424,8.73355294 103.966353,8.75924706 103.776706,8.75924706 L98.2989647,8.75924706 L98.2989647,11.1793882 L103.436565,11.1793882 L107.665082,18.5792941 L110.553224,18.5792941 L106.070824,10.6795765 C106.34,10.5645647 106.612847,10.4238588 106.881412,10.2592941" id="Path" fill="#6D6E71"></path>
                <path d="M73.4955765,7.93948235 C73.6142588,7.71129412 73.7023529,7.50207059 73.7555765,7.32465882 C74.0627277,6.43943529 74.1397647,5.59887059 73.9856,4.8256 C73.8326588,4.06150588 73.5536941,3.37571765 73.1566588,2.78842353 C72.7614588,2.20418824 72.2965176,1.71171765 71.7728471,1.32385882 C71.2522353,0.937835294 70.7591529,0.659482353 70.3052235,0.496141176 C69.8384471,0.334635294 69.4059294,0.225741176 69.0205176,0.171905882 C68.6314353,0.117458824 68.3873412,0.0911529412 68.2723294,0.0911529412 L58.6058353,0.0911529412 L58.6058353,18.5792941 L61.2370353,18.5792941 L61.2370353,2.29962353 L67.8496,2.29962353 C67.9542118,2.29962353 68.1059294,2.30390588 68.3053647,2.31247059 C68.4962353,2.32103529 68.7109647,2.35896471 68.9440471,2.42564706 C69.1814118,2.49355294 69.4395765,2.59694118 69.7105882,2.73275294 C69.9773176,2.86611765 70.2391529,3.06065882 70.4899765,3.31209412 C70.7365176,3.55802353 70.9243294,3.86696471 71.0485176,4.23035294 C71.1739294,4.59985882 71.2332706,4.99138824 71.2253176,5.39392941 C71.2161412,5.79891765 71.1347765,6.21369412 70.9830588,6.62602353 C70.8325647,7.03590588 70.5945882,7.41397647 70.2746353,7.75105882 C70.0586824,7.98414118 69.8274353,8.16950588 69.5864,8.30225882 C69.3423059,8.43745882 69.0988235,8.53962353 68.8645176,8.60630588 C68.6265412,8.67482353 68.4008,8.71703529 68.1940235,8.73294118 C67.9774588,8.75068235 67.7933176,8.75924706 67.6385412,8.75924706 L63.0454118,8.75924706 L63.0454118,10.9677176 L68.0612706,10.9677176 C68.2209412,10.9677176 68.4424,10.9634353 68.7268706,10.9548706 C69.0150118,10.9456941 69.3490353,10.8998118 69.7191529,10.8190588 C70.0892706,10.7376941 70.4942588,10.6055529 70.9212706,10.4275294 C71.3550118,10.2470588 71.8028235,9.97298824 72.2573647,9.60898824 C72.3870588,9.49825882 72.5302118,9.35021176 72.6837647,9.16974118 C72.8360941,8.99049412 72.9823059,8.79411765 73.1181176,8.58611765 C73.2508706,8.38178824 73.3781176,8.164 73.4955765,7.93948235" id="Path" fill="#6D6E71"></path>
                <polygon id="Path" fill="#6D6E71" points="83.5939765 0.302211765 80.8575529 0.302211765 72.7828706 18.3639529 72.6856 18.5792941 75.5596706 18.5792941 82.2199529 3.38367059 85.3791059 11.0845647 80.8624471 11.0845647 79.8634353 13.0825882 86.3548706 13.0825882 88.8924706 18.5792941 91.5487529 18.5792941 83.6337412 0.393976471"></polygon>
                <polygon id="Path" fill="#6D6E71" points="156.744518 2.51068235 168.373553 2.51068235 168.373553 0.302211765 154.113318 0.302211765 154.113318 18.5792941 168.584612 18.5792941 168.584612 16.5818824 156.744518 16.5818824"></polygon>
                <rect id="Rectangle" fill="#6D6E71" x="158.341835" y="8.12484706" width="8.76291765" height="2.20908235"></rect>
                <path d="M183.350165,10.6795765 C183.619953,10.5645647 183.893412,10.4238588 184.161365,10.2592941 C184.429318,10.0984 184.715012,9.89407059 185.012329,9.65181176 C185.313318,9.40527059 185.5776,9.11345882 185.798447,8.78188235 C186.069459,8.34691765 186.268282,7.85016471 186.386353,7.30630588 C186.502588,6.76734118 186.561318,6.22287059 186.561318,5.68818824 C186.561318,5.15289412 186.511765,4.63595294 186.413271,4.15143529 C186.314165,3.66385882 186.179576,3.25030588 186.0144,2.91872941 C185.686494,2.31858824 185.266212,1.83896471 184.765176,1.49270588 C184.270871,1.15134118 183.760047,0.891341176 183.246165,0.720047059 C182.735953,0.549976471 182.253882,0.441082353 181.812188,0.395811765 C181.379059,0.351764706 181.047482,0.320564706 180.805835,0.302211765 L171.138729,0.302211765 L171.138729,18.5792941 L173.9816,18.5792941 L173.9816,2.51068235 L180.594165,2.51068235 C180.749553,2.51068235 180.939812,2.52047059 181.164329,2.53698824 C181.383953,2.55411765 181.615812,2.59327059 181.852565,2.652 C182.084424,2.71011765 182.324847,2.80738824 182.568941,2.94136471 C182.806918,3.07289412 183.027153,3.26437647 183.225976,3.51336471 C183.474353,3.81129412 183.660329,4.17468235 183.776565,4.59251765 C183.895859,5.01891765 183.955812,5.45388235 183.955812,5.8864 C183.955812,6.31830588 183.892188,6.7288 183.765553,7.10625882 C183.6432,7.47392941 183.467624,7.7584 183.238824,7.95477647 C183.006353,8.17011765 182.755529,8.33345882 182.492471,8.44051765 C182.222071,8.55063529 181.959624,8.632 181.713082,8.68338824 C181.468376,8.73355294 181.246918,8.75924706 181.057271,8.75924706 L175.578918,8.75924706 L175.578918,11.1793882 L180.716518,11.1793882 L184.945035,18.5792941 L187.833788,18.5792941 L183.350165,10.6795765 Z" id="Path" fill="#6D6E71"></path>
                <rect id="Rectangle" fill="#000000" x="0.448423529" y="23.8949176" width="184.547388" height="1"></rect>
            </g>
            <g id="Group" fill="#2A7AB6">
                <rect id="Rectangle" x="0.263058824" y="0.609929412" width="52.4820706" height="52.3181176"></rect>
            </g>
            <path d="M32.3856,52.9476235 L43.6347294,52.9286588 L15.0341176,22.8842824 L6.23327059,28.5981647 L27.2920471,50.6168 C28.6556706,52.0428235 30.4108235,52.936 32.3856,52.9476235" id="Path" fill="#E6E7E8"></path>
            <path d="M29.9819765,0.609929412 L40.0950588,0.609929412 L0.262447059,39.8399529 L0.262447059,26.7365647 L25.4151529,2.30941176 C26.6246118,1.16908235 28.2561882,0.550588235 29.9819765,0.609929412" id="Path" fill="#E6E7E8"></path>
            <path d="M40.0889412,46.1056471 L34.1536,39.7738824 C33.0144941,38.5595294 32.3807059,36.9567059 32.3807059,35.2914824 L32.3807059,16.3004706 L38.3160471,22.6316235 C39.4551529,23.8465882 40.0889412,25.4494118 40.0889412,27.1146353 L40.0889412,46.1056471 Z" id="Path" fill="#E6E7E8"></path>
            <path d="M52.7445176,6.51712941 C52.5505882,6.43576471 52.3536,6.35807059 52.1535529,6.28404706 C50.1243294,5.53524706 49.088,5.16084706 46.4757647,5.16084706 L41.7529412,5.05501176 C40.0277647,5.01647059 38.3576471,5.65943529 37.1041412,6.84442353 L30.0676235,13.4949176 L35.8457412,13.4949176 L35.8457412,13.4857412 L44.8723294,13.4857412 C47.1578824,13.4857412 48.9344471,14.0167529 50.2026353,15.0787765 C51.4708235,16.1414118 52.1058353,17.9192 52.1058353,20.4121412 C52.1058353,22.9056941 51.4708235,24.7263059 50.2026353,25.8752 C48.9344471,27.0240941 47.1578824,27.5985412 44.8723294,27.5985412 L35.8457412,27.5985412 L35.8457412,27.5905882 L32.3800941,27.6052706 L40.0889412,35.8592 L40.0889412,35.8585882 L45.8260706,35.8585882 C48.7649882,35.8585882 50.0362353,35.4860235 52.2098353,34.7408941 C52.3909176,34.6784941 52.5683294,34.6124235 52.7445176,34.5451294 L52.7445176,6.51712941 Z" id="Path" fill="#E6E7E8"></path>
            <path d="M106.531482,41.5957176 L106.809224,41.5957176 C106.850824,41.5957176 106.887529,41.5938824 106.918118,41.5902118 C106.949318,41.5871529 106.977459,41.5810353 107.002541,41.5724706 C107.027624,41.5639059 107.050871,41.5510588 107.071671,41.5339294 C107.092471,41.5186353 107.115106,41.4978353 107.139576,41.4733647 L109.025647,39.5340706 C109.058682,39.4967529 109.091106,39.4704471 109.122918,39.4582118 C109.155341,39.4447529 109.193271,39.4386353 109.237318,39.4386353 L109.508329,39.4386353 L107.466259,41.5357647 C107.424659,41.5804235 107.387953,41.6146824 107.356141,41.6391529 C107.323718,41.6624 107.288235,41.6825882 107.248471,41.6984941 C107.294965,41.7113412 107.336565,41.7321412 107.373882,41.7596706 C107.4112,41.7872 107.449129,41.8232941 107.486447,41.8667294 L109.6368,44.1137412 L109.362729,44.1137412 C109.305224,44.1137412 109.264235,44.1064 109.238541,44.0923294 C109.213459,44.0782588 109.188988,44.0556235 109.164518,44.0250353 L107.189129,42.0031529 C107.164659,41.9786824 107.142635,41.9578824 107.121224,41.9401412 C107.100424,41.9224 107.077176,41.9071059 107.052094,41.8954824 C107.0264,41.8832471 106.997035,41.8746824 106.962776,41.8691765 C106.928518,41.8636706 106.885082,41.8606118 106.832471,41.8606118 L106.531482,41.8606118 L106.531482,44.1137412 L106.191341,44.1137412 L106.191341,39.4392471 L106.531482,39.4392471 L106.531482,41.5957176 L106.531482,41.5957176 Z" id="Path" fill="#000000"></path>
            <path d="M117.627671,39.4386353 L117.627671,44.1131294 L117.469224,44.1131294 C117.440471,44.1131294 117.416612,44.1082353 117.398259,44.0984471 C117.379294,44.0886588 117.360941,44.0715294 117.343812,44.0476706 L114.307624,39.9898353 C114.314353,40.0565176 114.317412,40.1195294 114.317412,40.1788706 L114.317412,44.1137412 L114.020094,44.1137412 L114.020094,39.4392471 L114.188329,39.4392471 C114.219529,39.4392471 114.243388,39.4429176 114.259906,39.4508706 C114.275812,39.4588235 114.294165,39.4759529 114.314353,39.5022588 L117.343812,43.5490824 C117.337082,43.4824 117.334024,43.42 117.334024,43.3606588 L117.334024,39.4392471 L117.627671,39.4392471 L117.627671,39.4386353 Z" id="Path" fill="#000000"></path>
            <path d="M126.794965,41.7737412 C126.794965,42.1352941 126.741129,42.4625882 126.633459,42.7556235 C126.525176,43.0498824 126.373459,43.3019294 126.177694,43.5093176 C125.981318,43.7173176 125.745788,43.8782118 125.472329,43.9913882 C125.197647,44.1051765 124.895435,44.1614588 124.565082,44.1614588 C124.234729,44.1614588 123.933129,44.1045647 123.660282,43.9913882 C123.386824,43.8776 123.152518,43.7173176 122.956141,43.5093176 C122.760376,43.3013176 122.608659,43.0498824 122.500376,42.7556235 C122.392706,42.4625882 122.338871,42.1346824 122.338871,41.7737412 C122.338871,41.4146353 122.392706,41.0885647 122.500376,40.7936941 C122.608659,40.5006588 122.760376,40.2486118 122.956141,40.0412235 C123.152518,39.8332235 123.386824,39.6717176 123.660282,39.5573176 C123.933129,39.4423059 124.234729,39.3854118 124.565082,39.3854118 C124.895435,39.3854118 125.197647,39.4416941 125.472329,39.5554824 C125.745788,39.6692706 125.981318,39.8301647 126.177694,40.0393882 C126.373459,40.2492235 126.525176,40.5006588 126.633459,40.7936941 C126.741129,41.0885647 126.794965,41.4146353 126.794965,41.7737412 M126.445035,41.7737412 C126.445035,41.4482824 126.399765,41.1546353 126.309224,40.8940235 C126.219294,40.6346353 126.091435,40.4150118 125.926259,40.2333176 C125.761082,40.0528471 125.562871,39.9152 125.331624,39.8197647 C125.100376,39.7231059 124.844659,39.676 124.565082,39.676 C124.287953,39.676 124.033459,39.7231059 123.802212,39.8197647 C123.570965,39.9152 123.372141,40.0528471 123.205741,40.2333176 C123.039341,40.4150118 122.910871,40.6346353 122.819106,40.8940235 C122.727953,41.1546353 122.682071,41.4476706 122.682071,41.7737412 C122.682071,42.1022588 122.727953,42.3959059 122.819106,42.6534588 C122.910871,42.9128471 123.039341,43.1324706 123.205741,43.3129412 C123.372141,43.4934118 123.570965,43.6316706 123.802212,43.7252706 C124.033459,43.8207059 124.287953,43.8678118 124.565082,43.8678118 C124.844659,43.8678118 125.100376,43.8207059 125.331624,43.7252706 C125.562871,43.6316706 125.761082,43.4934118 125.926259,43.3129412 C126.091435,43.1324706 126.219294,42.9128471 126.309224,42.6534588 C126.399765,42.3959059 126.445035,42.1022588 126.445035,41.7737412" id="Shape" fill="#000000"></path>
            <path d="M137.343624,39.4386353 L135.873553,44.1131294 L135.569506,44.1131294 L134.188753,40.0565176 C134.171624,40.0014588 134.155718,39.9439529 134.142259,39.8846118 C134.129412,39.9445647 134.113506,40.0014588 134.096376,40.0565176 L132.711953,44.1131294 L132.410965,44.1131294 L130.938447,39.4386353 L131.219247,39.4386353 C131.282871,39.4386353 131.323859,39.4686118 131.340988,39.5279529 L132.521082,43.3698353 C132.544941,43.4585412 132.566965,43.5576471 132.586541,43.6702118 C132.598165,43.6127059 132.608565,43.5594824 132.620188,43.5099294 C132.6312,43.4603765 132.644047,43.4138824 132.659341,43.3698353 L133.980141,39.5279529 C133.989318,39.5034824 134.004612,39.4832941 134.026635,39.4649412 C134.048659,39.4478118 134.074965,39.4386353 134.106165,39.4386353 L134.198541,39.4386353 C134.229129,39.4386353 134.254824,39.4472 134.2744,39.4631059 C134.293976,39.4790118 134.309882,39.5010353 134.320282,39.5273412 L135.641694,43.3692235 C135.656988,43.4108235 135.671059,43.4579294 135.682682,43.5074824 C135.694918,43.5582588 135.706541,43.6120941 135.717553,43.6671529 C135.729176,43.6120941 135.738965,43.5594824 135.749365,43.5099294 C135.759765,43.4603765 135.769553,43.4138824 135.781176,43.3698353 L136.960659,39.5279529 C136.966776,39.5034824 136.982071,39.4832941 137.004706,39.4649412 C137.027953,39.4478118 137.054871,39.4386353 137.086071,39.4386353 L137.343624,39.4386353 Z" id="Path" fill="#000000"></path>
            <polygon id="Path" fill="#000000" points="144.380141 43.8256 144.380141 44.1125176 141.826024 44.1125176 141.826024 39.4386353 142.166776 39.4386353 142.166776 43.8256"></polygon>
            <polygon id="Path" fill="#000000" points="151.6112 43.8317176 151.604471 44.1125176 148.8032 44.1125176 148.8032 39.4380235 151.604471 39.4380235 151.604471 39.7188235 149.143341 39.7188235 149.143341 41.6091765 151.192141 41.6091765 151.192141 41.8826353 149.143341 41.8826353 149.143341 43.8317176"></polygon>
            <path d="M160.207106,41.7737412 C160.207106,42.1352941 160.153271,42.4601412 160.044988,42.7488941 C159.936706,43.0370353 159.784988,43.2829647 159.589224,43.4854588 C159.393459,43.6879529 159.158541,43.8433412 158.884471,43.9510118 C158.609788,44.0586824 158.307576,44.1131294 157.977224,44.1131294 L156.269176,44.1131294 L156.269176,39.4386353 L157.977224,39.4386353 C158.307576,39.4386353 158.609788,39.4924706 158.884471,39.6007529 C159.158541,39.7084235 159.393459,39.8638118 159.589224,40.0663059 C159.784988,40.2694118 159.936706,40.5141176 160.044988,40.8034824 C160.153271,41.0916235 160.207106,41.4146353 160.207106,41.7737412 M159.857176,41.7737412 C159.857176,41.4482824 159.811906,41.1570824 159.721365,40.9013647 C159.631435,40.6462588 159.503576,40.4303059 159.3384,40.2541176 C159.172612,40.0779294 158.9744,39.9433412 158.743153,39.8503529 C158.511906,39.7585882 158.256188,39.7120941 157.976612,39.7120941 L156.609318,39.7120941 L156.609318,43.8378353 L157.976612,43.8378353 C158.256188,43.8378353 158.511906,43.7919529 158.743153,43.6983529 C158.9744,43.6065882 159.172612,43.4713882 159.3384,43.2958118 C159.503576,43.1202353 159.631435,42.9036706 159.721365,42.6485647 C159.811294,42.3940706 159.857176,42.1022588 159.857176,41.7737412" id="Shape" fill="#000000"></path>
            <path d="M168.6568,41.9921412 L168.6568,43.6543059 C168.423718,43.8188706 168.175341,43.9455059 167.910447,44.0342118 C167.646165,44.1216941 167.348847,44.1663529 167.018494,44.1663529 C166.648988,44.1663529 166.316188,44.1094588 166.020706,43.9956706 C165.725224,43.8824941 165.473788,43.7222118 165.265788,43.5136 C165.057788,43.3049882 164.898118,43.0535529 164.787388,42.7592941 C164.675435,42.4644235 164.620376,42.1352941 164.620376,41.7749647 C164.620376,41.4146353 164.674824,41.0861176 164.783718,40.7924706 C164.893835,40.4988235 165.050447,40.2467765 165.254165,40.0393882 C165.457882,39.832 165.703812,39.6704941 165.991953,39.5573176 C166.280706,39.4435294 166.605553,39.3872471 166.966494,39.3872471 C167.145129,39.3872471 167.310306,39.4000941 167.460188,39.4239529 C167.611294,39.4484235 167.752612,39.4839059 167.881694,39.5316235 C168.011388,39.5787294 168.133129,39.6368471 168.245082,39.7065882 C168.358259,39.7757176 168.465318,39.8558588 168.568706,39.9457882 L168.476329,40.0913882 C168.445741,40.1446118 168.399247,40.1562353 168.338071,40.1280941 C168.304424,40.1152471 168.257318,40.0840471 168.195529,40.0357176 C168.133741,39.9873882 168.049929,39.9366118 167.941035,39.884 C167.833365,39.8307765 167.699388,39.7836706 167.540329,39.7414588 C167.380047,39.7004706 167.186118,39.6790588 166.957318,39.6790588 C166.653271,39.6790588 166.378588,39.7273882 166.132659,39.8240471 C165.886729,39.9207059 165.678118,40.0601882 165.5056,40.2406588 C165.332471,40.4211294 165.199106,40.6413647 165.105506,40.9013647 C165.012518,41.1613647 164.965412,41.4525647 164.965412,41.7768 C164.965412,42.1053176 165.011906,42.4008 165.105506,42.6620235 C165.199106,42.9244706 165.334918,43.1465412 165.511718,43.3294588 C165.689129,43.5117647 165.905082,43.6518588 166.157741,43.7491294 C166.411012,43.8457882 166.696094,43.8941176 167.0136,43.8941176 C167.152471,43.8941176 167.280941,43.8855529 167.3984,43.8684235 C167.516471,43.8506824 167.628424,43.8262118 167.735482,43.7931765 C167.842541,43.7619765 167.945318,43.7222118 168.046259,43.6751059 C168.145976,43.628 168.248141,43.5741647 168.351529,43.5142118 L168.351529,42.2558118 L167.456518,42.2558118 C167.432047,42.2558118 167.411859,42.2478588 167.395341,42.2325647 C167.378824,42.2178824 167.370259,42.1995294 167.370259,42.1799529 L167.370259,41.9945882 L168.6568,41.9945882 L168.6568,41.9921412 Z" id="Path" fill="#000000"></path>
            <polygon id="Path" fill="#000000" points="176.222494 43.8317176 176.215765 44.1125176 173.414494 44.1125176 173.414494 39.4380235 176.215765 39.4380235 176.215765 39.7188235 173.754024 39.7188235 173.754024 41.6091765 175.802824 41.6091765 175.802824 41.8826353 173.754024 41.8826353 173.754024 43.8317176"></polygon>
            <path d="M182.191482,39.3780706 C182.490635,39.3780706 182.751247,39.4135529 182.972706,39.4832941 C183.193553,39.5518118 183.377082,39.6509176 183.522071,39.7781647 C183.667671,39.9060235 183.775953,40.0601882 183.847529,40.2406588 C183.919106,40.4211294 183.954588,40.6224 183.954588,40.8450824 C183.954588,41.0653176 183.916659,41.2665882 183.839576,41.4495059 C183.762494,41.6324235 183.649318,41.7902588 183.500659,41.9217882 C183.352612,42.0533176 183.167859,42.1573176 182.949459,42.2301176 C182.730447,42.3041412 182.477788,42.3414588 182.191482,42.3414588 L181.431671,42.3414588 L181.431671,44.1125176 L180.794212,44.1125176 L180.794212,39.3780706 L182.191482,39.3780706 Z M182.191482,41.8336941 C182.3744,41.8336941 182.535294,41.8092235 182.675388,41.7608941 C182.815482,41.7125647 182.932941,41.6446588 183.028988,41.5577882 C183.124424,41.4709176 183.196612,41.3663059 183.245553,41.2457882 C183.293882,41.1246588 183.317741,40.9912941 183.317741,40.8456941 C183.317741,40.5440941 183.225365,40.3085647 183.038776,40.1384941 C182.8528,39.9696471 182.570165,39.884 182.191482,39.884 L181.431671,39.884 L181.431671,41.8343059 L182.191482,41.8343059 L182.191482,41.8336941 Z" id="Shape" fill="#000000"></path>
            <path d="M192.769506,41.7474353 C192.769506,42.1022588 192.713224,42.4264941 192.600659,42.7238118 C192.488706,43.0199059 192.329647,43.2750118 192.125318,43.4885176 C191.920376,43.7020235 191.675059,43.8678118 191.386918,43.9852706 C191.099388,44.1033412 190.782494,44.1620706 190.433788,44.1620706 C190.085082,44.1620706 189.7688,44.1033412 189.482494,43.9852706 C189.196188,43.8678118 188.950871,43.7014118 188.745929,43.4885176 C188.540988,43.2756235 188.382541,43.0199059 188.269976,42.7238118 C188.158024,42.4271059 188.102353,42.1022588 188.102353,41.7474353 C188.102353,41.3932235 188.158635,41.0677647 188.269976,40.7704471 C188.383153,40.4749647 188.540988,40.2198588 188.745929,40.0039059 C188.950871,39.7897882 189.196188,39.6227765 189.482494,39.5040941 C189.7688,39.3854118 190.085082,39.3260706 190.433788,39.3260706 C190.782494,39.3260706 191.099388,39.3854118 191.386918,39.5040941 C191.675059,39.6227765 191.920376,39.7904 192.125318,40.0039059 C192.329647,40.2198588 192.489318,40.4749647 192.600659,40.7704471 C192.713835,41.0677647 192.769506,41.3932235 192.769506,41.7474353 M192.111859,41.7474353 C192.111859,41.4556235 192.072706,41.1962353 191.993176,40.9649882 C191.913647,40.7331294 191.802306,40.5373647 191.656094,40.3783059 C191.511106,40.2186353 191.334306,40.0956706 191.127529,40.0094118 C190.920753,39.9237647 190.689506,39.8809412 190.433788,39.8809412 C190.180518,39.8809412 189.950494,39.9237647 189.743106,40.0094118 C189.536329,40.0956706 189.359529,40.2186353 189.213318,40.3783059 C189.066494,40.5373647 188.953929,40.7331294 188.8744,40.9649882 C188.795482,41.1962353 188.755718,41.4562353 188.755718,41.7474353 C188.755718,42.0386353 188.795482,42.2980235 188.8744,42.5280471 C188.953929,42.7580706 189.065882,42.9532235 189.213318,43.1128941 C189.359529,43.2731765 189.536329,43.3943059 189.743106,43.4799529 C189.950494,43.5649882 190.180518,43.6072 190.433788,43.6072 C190.689506,43.6072 190.920753,43.5649882 191.127529,43.4799529 C191.334306,43.3943059 191.511106,43.2731765 191.656094,43.1128941 C191.801694,42.9532235 191.913647,42.7580706 191.993176,42.5280471 C192.072706,42.2980235 192.111859,42.0386353 192.111859,41.7474353" id="Shape" fill="#000000"></path>
            <path d="M203.383624,39.3786824 L201.906824,44.1119059 L201.331765,44.1119059 L200.133318,40.5018824 C200.121694,40.4657882 200.111906,40.4296941 200.101506,40.3887059 L200.069694,40.2639059 C200.058682,40.3079529 200.048282,40.3501647 200.037271,40.3887059 C200.025647,40.4290824 200.015247,40.4657882 200.003624,40.5018824 L198.797835,44.1119059 L198.223388,44.1119059 L196.746588,39.3786824 L197.278212,39.3786824 C197.335718,39.3786824 197.383435,39.3921412 197.421365,39.4208941 C197.459906,39.4502588 197.484988,39.4863529 197.496,39.5310118 L198.474212,42.8210824 C198.488894,42.8810353 198.5048,42.9446588 198.518259,43.0119529 C198.532941,43.0804706 198.5464,43.1532706 198.559859,43.2303529 C198.574541,43.1532706 198.591059,43.0798588 198.607576,43.0101176 C198.623482,42.9416 198.642447,42.8779765 198.662024,42.8204706 L199.774824,39.5304 C199.788282,39.4924706 199.813976,39.4582118 199.852518,39.4264 C199.891059,39.3933647 199.938776,39.3780706 199.992612,39.3780706 L200.177976,39.3780706 C200.234871,39.3780706 200.281365,39.3915294 200.317459,39.4202824 C200.352329,39.4496471 200.378635,39.4857412 200.396376,39.5304 L201.506118,42.8204706 C201.525694,42.8779765 201.544047,42.9385412 201.561176,43.0058353 C201.577082,43.0712941 201.5936,43.1410353 201.608282,43.2138353 C201.619906,43.1410353 201.631529,43.0719059 201.6456,43.0058353 C201.658447,42.9391529 201.673129,42.8779765 201.6872,42.8204706 L202.668471,39.5304 C202.680094,39.4906353 202.704565,39.4551529 202.743106,39.4245647 C202.781035,39.3927529 202.828141,39.3780706 202.8832,39.3780706 L203.383624,39.3780706 L203.383624,39.3786824 Z" id="Path" fill="#000000"></path>
            <polygon id="Path" fill="#000000" points="210.644659 43.5912941 210.6416 44.1125176 207.724706 44.1125176 207.724706 39.3786824 210.6416 39.3786824 210.6416 39.9011294 208.365835 39.9011294 208.365835 41.4733647 210.208471 41.4733647 210.208471 41.9750118 208.365835 41.9750118 208.365835 43.5912941"></polygon>
            <path d="M218.672235,44.1125176 L218.103294,44.1125176 C217.987059,44.1125176 217.901412,44.0678588 217.845741,43.9773176 L216.616706,42.2851765 C216.579388,42.2325647 216.539012,42.1940235 216.496188,42.1707765 C216.453976,42.1481412 216.386682,42.1365176 216.296753,42.1365176 L215.8104,42.1365176 L215.8104,44.1119059 L215.173553,44.1119059 L215.173553,39.3780706 L216.511482,39.3780706 C216.811247,39.3780706 217.070024,39.4086588 217.287812,39.468 C217.506212,39.5297882 217.686071,39.6166588 217.828612,39.7316706 C217.969929,39.8466824 218.075153,39.9843294 218.144282,40.1464471 C218.212188,40.3079529 218.246447,40.4890353 218.246447,40.6896941 C218.246447,40.8573176 218.220141,41.0133176 218.167529,41.1595294 C218.114918,41.3039059 218.037835,41.4354353 217.938118,41.5510588 C217.837176,41.6666824 217.715435,41.7651765 217.571059,41.8465412 C217.426682,41.9279059 217.262729,41.9896941 217.079812,42.0319059 C217.161176,42.0777882 217.232141,42.1450824 217.292094,42.2331765 L218.672235,44.1125176 Z M216.485176,41.6715765 C216.670541,41.6715765 216.833882,41.6489412 216.975812,41.6042824 C217.117741,41.5584 217.237035,41.4947765 217.332471,41.4128 C217.428518,41.3296 217.500706,41.2317176 217.549035,41.1173176 C217.597365,41.0029176 217.621835,40.8756706 217.621835,40.7374118 C217.621835,40.4553882 217.529459,40.2424941 217.344094,40.0999529 C217.158729,39.9568 216.880988,39.8846118 216.511482,39.8846118 L215.8104,39.8846118 L215.8104,41.6721882 L216.485176,41.6721882 L216.485176,41.6715765 Z" id="Shape" fill="#000000"></path>
            <path d="M0.263058824,27.8762824 L0.263058824,49.6324706 C0.263058824,51.4530824 1.73802353,52.9280471 3.55802353,52.9280471 L8.52983529,52.9280471 L8.52983529,27.8762824 L0.263058824,27.8762824 Z" id="Path" fill="#E6E7E8"></path>
            <path d="M3.55741176,0.609929412 C1.73741176,0.609929412 0.262447059,2.08489412 0.262447059,3.90489412 L0.262447059,20.9015529 L22.2021647,0.609929412 L3.55741176,0.609929412 Z" id="Path" fill="#E6E7E8"></path>
        </g>
    </g>
</svg>