<?xml version="1.0" encoding="UTF-8"?>
<svg width="366px" height="239px" viewBox="0 0 366 239" version="1.1" xmlns="http://www.w3.org/2000/svg" xmlns:xlink="http://www.w3.org/1999/xlink">
    <!-- Generator: Sketch 56.3 (81716) - https://sketch.com -->
    <title>logo_stickermule</title>
    <desc>Created with Sketch.</desc>
    <g id="logo_stickermule" stroke="none" stroke-width="1" fill="none" fill-rule="evenodd">
        <g id="02-sticker-mule" transform="translate(63.000000, 50.000000)">
            <path d="M11.3362665,139.293526 C7.26335638,139.293526 3.66561911,138.818353 0.407291012,135.627907 L4.6159648,131.419233 C6.7203017,133.52357 9.50345695,133.862979 11.4720302,133.862979 C13.7121307,133.862979 16.0201131,133.116279 16.0201131,131.215588 C16.0201131,129.925833 15.3412948,129.043369 13.3048397,128.839723 L9.2319296,128.432432 C4.6159648,127.95726 1.76492772,125.988686 1.76492772,121.236958 C1.76492772,115.942175 6.44877436,113.023256 11.6756757,113.023256 C15.680704,113.023256 19.0069139,113.702074 21.5185418,116.010057 L17.5813953,120.015085 C16.087995,118.657448 13.8478944,118.318039 11.6077938,118.318039 C9.0282841,118.318039 7.94217473,119.47203 7.94217473,120.761785 C7.94217473,121.712131 8.34946574,122.79824 10.5895663,123.001886 L14.6624764,123.409177 C19.7536141,123.884349 22.3331238,126.599623 22.3331238,130.94406 C22.1973602,136.578253 17.3777498,139.293526 11.3362665,139.293526 Z" id="Path" fill="#4E2817" fill-rule="nonzero"></path>
            <path d="M33.397863,139.021999 C28.1709617,139.021999 25.9308611,135.35638 25.9308611,131.690761 L25.9308611,118.996857 L23.2155877,118.996857 L23.2155877,114.041483 L25.9308611,114.041483 L25.9308611,106.438718 L32.3117536,106.438718 L32.3117536,114.041483 L36.8598366,114.041483 L36.8598366,118.928975 L32.3117536,118.928975 L32.3117536,131.28347 C32.3117536,132.77687 32.990572,133.591452 34.5518542,133.591452 L36.8598366,133.591452 L36.8598366,139.021999 L33.397863,139.021999 L33.397863,139.021999 Z" id="Path" fill="#4E2817" fill-rule="nonzero"></path>
            <path d="M39.7108737,108.950346 L39.7108737,103.723444 L46.2954117,103.723444 L46.2954117,108.950346 L39.7108737,108.950346 Z M39.8466373,139.021999 L39.8466373,113.362665 L46.2275299,113.362665 L46.2275299,139.021999 L39.8466373,139.021999 Z" id="Shape" fill="#4E2817" fill-rule="nonzero"></path>
            <path d="M60.7542426,139.293526 C55.5952231,139.293526 49.2822124,136.510371 49.2822124,126.12445 C49.2822124,115.738529 55.663105,113.023256 60.7542426,113.023256 C64.2840981,113.023256 66.9993715,114.109365 69.239472,116.485229 L64.8950346,120.829667 C63.5373979,119.404148 62.4512885,118.793212 60.7542426,118.793212 C59.1929604,118.793212 58.0389692,119.336266 57.0886235,120.490258 C56.070396,121.712131 55.663105,123.477058 55.663105,126.192332 C55.663105,128.907605 56.1382778,130.672533 57.0886235,131.894406 C58.0389692,133.048397 59.1929604,133.591452 60.7542426,133.591452 C62.4512885,133.591452 63.5373979,132.980515 64.8950346,131.554997 L69.239472,135.831552 C66.9314896,138.207417 64.2840981,139.293526 60.7542426,139.293526 Z" id="Path" fill="#4E2817" fill-rule="nonzero"></path>
            <polygon id="Path" fill="#4E2817" fill-rule="nonzero" points="86.8887492 139.021999 80.5757385 128.296669 77.8604651 131.351351 77.8604651 139.021999 71.4795726 139.021999 71.4795726 103.92709 77.8604651 103.92709 77.8604651 123.816468 86.4135764 113.294783 94.1521056 113.294783 84.9880578 123.680704 94.8309239 139.021999 86.8887492 139.021999"></polygon>
            <path d="M100.193589,128.160905 C100.193589,131.487115 102.230044,133.862979 105.827781,133.862979 C108.610937,133.862979 110.036455,133.048397 111.665619,131.419233 L115.534884,135.220616 C112.955374,137.800126 110.375864,139.293526 105.759899,139.293526 C99.7184161,139.293526 93.8805783,136.510371 93.8805783,126.12445 C93.8805783,117.774984 98.4286612,113.023256 105.081081,113.023256 C112.208674,113.023256 116.281584,118.250157 116.281584,125.309868 L116.281584,128.160905 L100.193589,128.160905 Z M109.357637,121.033312 C108.678818,119.47203 107.2533,118.385921 105.081081,118.385921 C102.908862,118.385921 101.483344,119.539912 100.804525,121.033312 C100.397234,121.983658 100.261471,122.662476 100.193589,123.816468 L109.968573,123.816468 C109.900691,122.662476 109.764928,121.983658 109.357637,121.033312 Z" id="Shape" fill="#4E2817" fill-rule="nonzero"></path>
            <path d="M133.252043,120.354494 C132.233815,119.336266 131.419233,118.793212 129.857951,118.793212 C127.889378,118.793212 125.717159,120.286612 125.717159,123.54494 L125.717159,139.021999 L119.336266,139.021999 L119.336266,113.362665 L125.581395,113.362665 L125.581395,115.806411 C126.803268,114.313011 129.314896,113.023256 132.03017,113.023256 C134.541798,113.023256 136.306725,113.634192 138.071653,115.467002 L133.252043,120.354494 Z" id="Path" fill="#4E2817" fill-rule="nonzero"></path>
            <path d="M166.921433,113.023256 C163.730987,113.023256 161.423004,114.041483 159.250786,116.281584 C157.621622,114.041483 155.313639,113.023256 152.462602,113.023256 C150.086738,113.023256 147.710874,113.973602 146.08171,115.670647 L146.08171,113.362665 L139.836581,113.362665 L139.836581,139.021999 L146.217473,139.021999 L146.217473,123.477058 C146.217473,119.947203 148.457574,118.793212 150.494029,118.793212 C152.530484,118.793212 154.702703,119.947203 154.702703,123.477058 L154.702703,139.021999 L161.083595,139.021999 L161.083595,123.341295 C161.083595,120.015085 163.391578,118.793212 165.360151,118.793212 C167.396606,118.793212 169.568825,119.947203 169.568825,123.477058 L169.568825,139.021999 L175.949717,139.021999 L175.949717,122.594595 C175.949717,119.811439 175.203017,117.367693 173.166562,115.263356 C171.808925,113.90572 169.500943,113.023256 166.921433,113.023256 Z" id="Path" fill="#F26922" fill-rule="nonzero"></path>
            <path d="M194.752986,128.839723 C194.752986,132.369579 192.512885,133.52357 190.47643,133.52357 C188.439975,133.52357 186.267756,132.369579 186.267756,128.839723 L186.267756,113.362665 L179.886864,113.362665 L179.886864,129.790069 C179.886864,132.573224 180.429918,135.01697 182.466373,137.053426 C183.891892,138.478944 185.996229,139.293526 188.507857,139.293526 C190.883721,139.293526 193.259585,138.411062 194.888749,136.646135 L194.888749,139.021999 L201.133878,139.021999 L201.133878,113.362665 L194.752986,113.362665 L194.752986,128.839723 Z" id="Path" fill="#F26922" fill-rule="nonzero"></path>
            <path d="M211.655563,131.28347 L211.655563,103.92709 L205.27467,103.92709 L205.27467,131.690761 C205.27467,135.35638 207.514771,139.021999 212.741672,139.021999 L216.407291,139.021999 L216.407291,133.591452 L213.963545,133.591452 C212.334381,133.591452 211.655563,132.844752 211.655563,131.28347 Z" id="Path" fill="#F26922" fill-rule="nonzero"></path>
            <path d="M239.962288,125.309868 C239.962288,118.250157 235.889378,113.023256 228.761785,113.023256 C222.109365,113.023256 217.561282,117.774984 217.561282,126.12445 C217.561282,136.510371 223.39912,139.293526 229.440603,139.293526 C234.056568,139.293526 236.568196,137.868008 239.215588,135.220616 L235.346323,131.419233 C233.717159,133.048397 232.359522,133.862979 229.508485,133.862979 C225.910748,133.862979 223.874293,131.419233 223.874293,128.160905 L239.962288,128.160905 L239.962288,125.309868 L239.962288,125.309868 Z M223.874293,123.816468 C223.942175,122.662476 224.077938,121.983658 224.485229,121.033312 C225.164048,119.47203 226.589566,118.385921 228.761785,118.385921 C230.934004,118.385921 232.359522,119.539912 233.038341,121.033312 C233.445632,121.983658 233.581395,122.662476 233.649277,123.816468 L223.874293,123.816468 Z" id="Shape" fill="#F26922" fill-rule="nonzero"></path>
            <path d="M132.03017,96.3922062 C131.147706,96.7994972 129.925833,96.7316153 128.636078,96.7994972 C127.549969,96.7994972 125.988686,96.867379 125.37775,96.2564425 C125.038341,95.9170333 124.902577,95.3060968 124.902577,94.8988058 C124.902577,94.4236329 124.970459,93.8805783 125.106223,93.3375236 C125.241986,92.7265871 125.37775,91.912005 125.106223,91.6404777 C124.834695,91.2331867 123.816468,91.4368322 123.341295,91.097423 C122.79824,90.7580138 122.662476,90.0791955 122.458831,89.1967316 C122.390949,88.9252043 122.255185,88.7215588 122.187304,88.5179133 C122.05154,87.2281584 122.458831,85.5311125 122.730358,84.2413576 C123.069767,82.8837209 123.409177,81.5939661 123.680704,80.3042112 C124.020113,78.4035198 124.155877,76.2313011 124.020113,74.194846 C123.952231,73.1766185 123.816468,72.3620365 123.952231,71.4795726 C124.087995,70.6649906 124.427404,69.9861722 124.63105,69.1715902 C124.698931,68.9000629 124.63105,68.6285355 124.698931,68.3570082 C124.698931,68.0854808 124.902577,67.8818353 124.902577,67.6781898 C124.902577,67.1351351 124.766813,66.4563168 124.698931,65.7774984 C124.563168,63.9446889 124.698931,61.433061 124.834695,59.8717788 C124.902577,59.3287241 125.106223,58.7177876 124.766813,58.4462602 C122.866122,58.4462602 121.169076,58.7856694 119.404148,58.9893149 C114.720302,59.6002514 108.814582,59.6681332 104.266499,58.7856694 C103.859208,58.7177876 103.384035,58.7177876 102.976744,58.5820239 C99.7862979,57.8353237 96.7994972,56.477687 94.4915148,54.6448774 C94.1521056,54.3733501 93.7448146,54.0339409 93.3375236,53.7624136 C92.9302326,53.4908862 92.5229415,53.0157134 92.1835324,52.8799497 C90.3507228,51.9974859 87.9069767,53.0157134 87.1602766,54.1697046 C86.8887492,54.6448774 86.6172219,55.255814 86.3456945,55.7988686 C86.0741672,56.3419233 85.8026398,56.884978 85.5989943,57.4280327 C84.3771213,60.2111879 83.0194846,62.8585795 81.7976116,65.6417348 C81.1187932,67.2708988 80.3042112,69.0358265 79.7611565,70.8007542 C78.6750471,74.602137 79.6932747,79.7611565 80.5757385,83.3588938 C80.6436204,83.698303 80.8472659,84.0377121 80.9830295,84.3771213 C81.2545569,85.2595852 81.8654934,86.4135764 82.5443118,87.0245129 C82.8837209,87.3639221 83.4946574,87.4996857 83.9019485,87.8390949 C84.3771213,88.2463859 84.7844123,89.1288498 85.1917033,89.87555 C85.327467,90.1470773 85.5989943,90.5543683 85.8026398,90.8937775 C86.2778127,91.7083595 86.4135764,92.4550597 85.5311125,92.9302326 C84.8522942,93.2696417 83.8340666,93.4054054 82.8837209,93.4732872 C82.4764299,93.6090509 82.6121936,94.1521056 82.3406662,94.4236329 C82.2049026,94.5593966 81.5260842,94.8309239 81.186675,94.9666876 C79.964802,95.3060968 77.7925833,95.3060968 76.8422376,94.9666876 C76.3670647,94.7630421 75.8240101,94.4236329 75.6882464,94.0163419 C75.416719,93.2696417 76.0276556,92.2514142 75.4846009,91.7083595 C75.2130735,91.4368322 74.7379007,91.504714 74.2627278,91.3010685 C73.5839095,91.0295412 72.972973,90.4186047 72.7014456,89.6040226 C71.9547454,87.7033312 72.4299183,84.7844123 72.3620365,82.4764299 C72.3620365,81.7976116 72.2262728,81.0509114 72.2262728,80.3042112 C72.1583909,78.9465745 71.8868636,77.5889378 71.6832181,76.2313011 C71.6153363,75.5524827 71.4116908,75.009428 71.2759271,74.3984915 C71.0722816,73.4481458 70.8686361,72.3620365 70.5971087,71.4116908 C70.2576996,70.3255814 70.2576996,69.3073539 70.6649906,68.3570082 C70.7328724,68.0854808 71.0043997,67.8818353 71.2080453,67.5424261 C71.4116908,66.9993715 71.4795726,66.3884349 71.4795726,65.9132621 C71.3438089,65.6417348 70.6649906,65.8453803 70.5292269,65.5738529 C70.1219359,62.5870522 69.7146449,59.6681332 69.4431175,56.5455688 C69.3752357,55.5273413 69.3752357,54.4412319 69.239472,53.3551226 C69.0358265,51.2507857 69.239472,49.0785669 69.0358265,47.0421119 C68.9679447,46.0238843 68.6964173,45.0735387 68.5606537,44.123193 C68.2212445,41.4079195 67.4745443,37.9459459 68.017599,35.0949089 C68.3570082,33.2620993 69.0358265,31.8365808 70.0540541,30.4789441 C70.8007542,29.5285984 71.5474544,28.6461345 72.4299183,27.8315525 C73.2445003,27.0169705 74.194846,26.2702703 75.2130735,25.5235701 C75.8240101,25.0483972 76.5028284,24.5053426 77.2495286,24.2338152 C78.8108108,23.487115 80.8472659,22.8761785 83.0194846,22.8082967 C85.1917033,22.7404148 87.6354494,22.672533 89.7397863,23.079824 C91.7762414,23.4192332 93.8126964,23.8265242 95.8491515,24.2338152 C97.8177247,24.6411062 99.7184161,25.1841609 101.619107,25.6593338 C101.890635,25.7272156 102.09428,25.8629793 102.297926,25.9308611 C102.908862,26.0666248 103.587681,26.1345066 104.198617,26.3381521 C105.963545,26.813325 108.203646,27.0169705 110.307982,27.0169705 C112.615965,27.0169705 114.65242,26.9490886 116.553111,26.4739158 C116.824639,26.4060339 117.028284,26.2702703 117.367693,26.1345066 C117.639221,25.9987429 118.046512,26.0666248 118.318039,25.9308611 C118.521684,25.8629793 118.72533,25.6593338 118.928975,25.5914519 C120.015085,25.0483972 120.965431,24.5732244 121.915776,23.894406 C122.662476,23.3513514 123.341295,22.8761785 124.359522,22.4688875 C124.834695,22.265242 125.241986,22.0615965 125.717159,21.9258328 C126.667505,21.5864236 127.753614,21.3148963 128.500314,20.8397234 C129.654305,20.0930233 130.536769,19.0069139 131.487115,18.1923319 C132.505343,17.309868 133.52357,16.495286 134.609679,15.6128221 C136.781898,13.9157762 138.954117,12.354494 140.990572,10.72533 C142.008799,9.91074796 143.162791,9.09616593 144.384664,8.41734758 C146.760528,7.05971087 149.136392,5.49842866 152.530484,5.22690132 C153.888121,5.15901948 155.245757,5.09113765 156.603394,5.29478316 C156.942803,5.36266499 157.485858,5.5663105 157.825267,5.49842866 C158.164676,5.43054683 158.436204,4.88749214 158.707731,4.4123193 C159.182904,3.52985544 159.590195,2.91891892 159.997486,1.83280955 C160.269013,1.1539912 160.13325,0.475172847 160.812068,0.543054683 C161.490886,0.543054683 161.423004,2.37586424 161.423004,3.05468259 C161.490886,3.86926461 161.355123,4.95537398 161.490886,5.49842866 C161.558768,5.90571967 162.101823,6.44877436 162.644877,6.44877436 C163.052168,6.44877436 163.255814,6.17724701 163.595223,5.90571967 C163.934632,5.70207417 164.274041,5.5663105 164.545569,5.36266499 C165.088624,4.95537398 165.767442,4.27655563 166.310497,3.66561911 C166.785669,3.19044626 167.53237,2.1043369 168.27907,2.17221873 C169.636706,2.3079824 168.27907,4.27655563 168.007542,4.95537398 C167.328724,6.51665619 166.649906,7.60276556 165.835324,9.09616593 C165.495915,9.70710245 164.749214,10.5216845 164.749214,11.132621 C164.749214,11.539912 165.088624,11.8793212 165.292269,12.2866122 C165.360151,12.4902577 165.428033,12.761785 165.495915,12.9654305 C165.971087,14.0515399 166.310497,15.5449403 166.649906,16.7668133 C166.989315,17.7850409 167.19296,18.9390321 167.600251,19.9572596 C167.939661,20.9754871 168.482715,21.9258328 168.890006,22.8761785 C169.02577,23.1477058 169.02577,23.487115 169.093652,23.6907605 C169.976116,25.8629793 170.790698,28.3746072 171.808925,30.4789441 C172.216216,31.3614079 172.827153,32.3796354 172.827153,33.6693903 C172.827153,35.027027 172.080453,35.7058454 171.469516,36.7240729 C171.130107,37.2671276 170.654934,38.0817096 170.179761,38.2853551 C169.840352,38.4211188 169.365179,38.2853551 169.02577,38.353237 C168.482715,38.4211188 168.143306,38.760528 167.668133,38.8284098 C166.378378,38.9641735 165.224387,38.0138278 164.884978,37.0634821 C164.749214,36.7240729 164.817096,36.3167819 164.749214,35.9094909 C164.477687,34.4160905 163.730987,33.6693903 162.644877,32.6511628 C161.966059,32.0402263 161.423004,31.5650534 160.608422,31.0898806 C159.386549,30.4789441 158.096794,30.071653 156.80704,29.3928347 C156.331867,29.1213074 155.788812,28.9176618 155.381521,28.9855437 C154.702703,29.1213074 154.023884,30.2074167 153.48083,30.8862351 C150.15462,35.2306725 147.235701,39.7108737 144.045255,43.9874293 C141.940918,46.8384664 139.632935,49.6895035 137.935889,52.9478316 C137.528598,53.7624136 137.257071,54.7127593 136.917662,55.663105 C136.578253,56.6134507 136.442489,57.6316782 136.10308,58.5820239 C134.881207,62.1118793 134.473916,66.4563168 133.319925,70.1898177 C133.184161,70.5971087 133.184161,71.0043997 133.048397,71.4795726 C132.505343,73.380264 132.03017,75.5524827 131.419233,77.5889378 C130.94406,79.0823382 130.808297,81.1187932 130.740415,83.0873664 C130.672533,84.920176 130.604651,87.5675676 131.28347,88.7215588 C131.622879,89.3324953 132.912634,89.6040226 133.387806,90.2149591 C133.727216,90.690132 133.930861,91.5725959 134.27027,92.1156505 C134.473916,92.5229415 135.152734,93.4054054 135.084852,94.0163419 C135.01697,94.4915148 134.609679,94.8309239 134.27027,94.9666876 C133.862979,95.1703331 133.319925,95.0345695 132.912634,95.238215 C132.301697,95.5776241 132.505343,96.1206788 132.03017,96.3922062 Z" id="Path" fill="#4E2817"></path>
        </g>
    </g>
</svg>