<?xml version="1.0" encoding="UTF-8"?>
<svg width="366px" height="239px" viewBox="0 0 366 239" version="1.1" xmlns="http://www.w3.org/2000/svg" xmlns:xlink="http://www.w3.org/1999/xlink">
    <!-- Generator: Sketch 56.3 (81716) - https://sketch.com -->
    <title>logo_tag</title>
    <desc>Created with Sketch.</desc>
    <g id="logo_tag" stroke="none" stroke-width="1" fill="none" fill-rule="evenodd">
        <g id="Tag" transform="translate(63.000000, 62.000000)">
            <g id="Group">
                <polygon id="Path" points="28.0725854 50.9752195 32.2435122 50.9752195 32.2435122 45.7303415 28.0725854 45.7303415 28.0725854 37.4634146 22.4780488 37.4634146 22.4780488 45.7303415 18.6068293 45.7303415 18.6068293 50.9752195 22.4780488 50.9752195 22.4780488 70.2563902 32.5182439 70.2563902 32.5182439 65.0115122 28.0725854 65.0115122"></polygon>
                <path d="M58.9923902,19.8056585 C58.942439,22.9026341 59.9914146,25.9746341 62.0394146,28.6969756 C64.5619512,31.9438049 64.7617561,36.0398049 64.2122927,39.5114146 L72.3543415,36.0148293 L73.5032195,36.3644878 C76.1756098,37.2136585 79.0228293,37.6632195 81.9449756,37.7381463 C82.1198049,37.7381463 82.3196098,37.7381463 82.494439,37.7381463 C95.0321951,37.7381463 105.397073,30.1205854 105.571902,20.7297561 C105.671805,16.2341463 103.424,11.8883902 99.2780488,8.51668293 C94.9073171,4.97014634 88.9880976,2.92214634 82.6193171,2.82218286 C82.4195122,2.82218286 82.1947317,2.82218286 81.9949268,2.82218286 C69.507122,2.79726829 59.1921951,10.4398049 58.9923902,19.8056585 Z M91.136,17.5079024 C92.7594146,17.5079024 94.0581463,18.8066341 94.0581463,20.4300488 C94.0581463,22.0534634 92.7594146,23.3521951 91.136,23.3521951 C89.537561,23.3521951 88.2138537,22.0534634 88.2138537,20.4300488 C88.2138537,18.8066341 89.537561,17.5079024 91.136,17.5079024 Z M82.819122,17.5079024 C84.417561,17.5079024 85.7412683,18.8066341 85.7412683,20.4300488 C85.7412683,22.0534634 84.4425366,23.3521951 82.819122,23.3521951 C81.2206829,23.3521951 79.8969756,22.0534634 79.8969756,20.4300488 C79.8969756,18.8066341 81.1957073,17.5079024 82.819122,17.5079024 Z M74.4772683,17.5079024 C76.1006829,17.5079024 77.3994146,18.8066341 77.3994146,20.4300488 C77.3994146,22.0534634 76.1006829,23.3521951 74.4772683,23.3521951 C72.8538537,23.3521951 71.555122,22.0534634 71.555122,20.4300488 C71.555122,18.8066341 72.8538537,17.5079024 74.4772683,17.5079024 Z" id="Shape"></path>
                <path d="M53.7724878,49.2269268 C52.0741463,46.5545366 49.3268293,45.0809756 46.1549268,45.0809756 C38.9869268,45.0809756 33.2924878,51.0001951 33.2924878,58.1182439 C33.2924878,65.0614634 38.8620488,70.8807805 45.8801951,70.8807805 C49.1020488,70.8807805 51.9742439,69.632 53.7724878,66.9346341 L53.7724878,70.2563902 L62.5389268,70.2563902 L62.5389268,65.0115122 L59.4669268,65.0115122 L59.4669268,50.9502439 L62.5389268,50.9502439 L62.5389268,45.7053659 L53.7724878,45.7053659 L53.7724878,49.2269268 Z M46.4046829,65.4360976 C42.4585366,65.4360976 39.1118049,62.1393171 39.1118049,58.1432195 C39.1118049,54.0222439 42.3336585,50.5756098 46.5045854,50.5756098 C50.5506341,50.5756098 53.8973659,53.8474146 53.8973659,57.8684878 C53.8723902,62.0394146 50.625561,65.4360976 46.4046829,65.4360976 Z" id="Shape"></path>
                <path d="M84.2177561,49.3018537 C82.369561,46.4546341 79.3475122,45.3057561 76.0507317,45.3057561 C69.2573659,45.3057561 63.612878,51.1750244 63.612878,57.9434146 C63.612878,64.7867317 69.0325854,70.6310244 76.0007805,70.6310244 C79.297561,70.6310244 82.1198049,69.3822439 83.843122,66.5350244 L83.843122,67.459122 C83.843122,69.756878 83.6932683,71.3053659 82.1447805,73.153561 C80.896,74.5771707 78.8729756,75.4013659 76.9498537,75.4013659 C74.8019512,75.4013659 72.4042927,74.4273171 71.4302439,72.3793171 L64.961561,72.3793171 C66.2602927,77.699122 71.5800976,80.2466341 76.675122,80.2466341 C80.2965854,80.2466341 83.6433171,79.0977561 86.2657561,76.5252683 C89.0630244,73.728 89.3377561,70.780878 89.3377561,67.009561 L89.3377561,50.9752195 L92.5096585,50.9752195 L92.5096585,45.7303415 L84.1927805,45.7303415 L84.1927805,49.3018537 L84.2177561,49.3018537 Z M76.8249756,65.4360976 C72.6540488,65.4360976 69.3572683,62.0893659 69.3572683,57.8934634 C69.3572683,53.7974634 72.704,50.4507317 76.8,50.4507317 C80.896,50.4507317 84.2926829,53.7475122 84.2926829,57.8435122 C84.2677073,61.9894634 81.0458537,65.4360976 76.8249756,65.4360976 Z" id="Shape"></path>
                <path d="M74.4772683,23.3272195 C76.1006829,23.3272195 77.3994146,22.0284878 77.3994146,20.4050732 C77.3994146,18.7816585 76.1006829,17.4829268 74.4772683,17.4829268 C72.8538537,17.4829268 71.555122,18.7816585 71.555122,20.4050732 C71.555122,22.0284878 72.8538537,23.3272195 74.4772683,23.3272195 Z" id="Path" fill="#F47B64" fill-rule="nonzero"></path>
                <path d="M82.819122,23.3272195 C84.417561,23.3272195 85.7412683,22.0284878 85.7412683,20.4050732 C85.7412683,18.7816585 84.4425366,17.4829268 82.819122,17.4829268 C81.2206829,17.4829268 79.8969756,18.7816585 79.8969756,20.4050732 C79.8969756,22.0284878 81.1957073,23.3272195 82.819122,23.3272195 Z" id="Path" fill="#F47B64" fill-rule="nonzero"></path>
                <path d="M91.136,23.3272195 C92.7594146,23.3272195 94.0581463,22.0284878 94.0581463,20.4050732 C94.0581463,18.7816585 92.7594146,17.4829268 91.136,17.4829268 C89.537561,17.4829268 88.2138537,18.7816585 88.2138537,20.4050732 C88.2138537,22.0284878 89.537561,23.3272195 91.136,23.3272195 Z" id="Path" fill="#F47B64" fill-rule="nonzero"></path>
                <path d="M46.4796098,50.5506341 C42.3086829,50.5506341 39.0868293,53.9972683 39.0868293,58.1182439 C39.0868293,62.1143415 42.433561,65.411122 46.3797073,65.411122 C50.6005854,65.411122 53.8723902,62.014439 53.8723902,57.8185366 C53.8723902,53.822439 50.5256585,50.5506341 46.4796098,50.5506341 Z" id="Path" fill="#F47B64" fill-rule="nonzero"></path>
                <path d="M103.948488,31.4442927 C106.595902,28.3722927 108.169366,24.700878 108.244293,20.7797073 C108.344195,15.4349268 105.771707,10.3399024 100.97639,6.44370732 C96.131122,2.52253659 89.6374634,0.274731707 82.6942439,0.149853659 C82.4694634,0.149853659 82.2446829,0.149853659 82.0199024,0.149853659 C76.1506341,0.149853659 70.7059512,1.69834146 66.3601951,4.32078049 C62.8636098,3.62146341 59.267122,3.24682927 55.5707317,3.24682927 C24.8757073,3.24682927 4.54747351e-13,28.1475122 4.54747351e-13,58.8425366 C4.54747351e-13,89.537561 24.8757073,114.438244 55.5707317,114.438244 C86.2657561,114.438244 111.141463,89.537561 111.141463,58.8425366 C111.141463,48.8772683 108.519024,39.5363902 103.948488,31.4442927 Z M82.6442927,2.79726829 C89.0130732,2.92214634 94.9322927,4.94517073 99.3030244,8.49170732 C103.448976,11.8634146 105.671805,16.1841951 105.596878,20.7047805 C105.422049,30.0956098 95.0571707,37.7131707 82.5194146,37.7131707 C82.3445854,37.7131707 82.1447805,37.7131707 81.9699512,37.7131707 C79.0478049,37.6632195 76.225561,37.1886829 73.5281951,36.3395122 L72.3793171,35.9898537 L64.2372683,39.486439 C64.7867317,36.0148293 64.6119024,31.9438049 62.0643902,28.672 C60.0163902,25.9496585 58.942439,22.8776585 59.0173659,19.7806829 C59.2171707,10.3898537 69.5320976,2.77229268 82.044878,2.77229268 C82.2197073,2.79726829 82.4195122,2.79726829 82.6442927,2.79726829 Z M32.5182439,70.2563902 L22.4530732,70.2563902 L22.4530732,50.9502439 L18.6068293,50.9502439 L18.6068293,45.7053659 L22.4530732,45.7053659 L22.4530732,37.4634146 L28.0476098,37.4634146 L28.0476098,45.7303415 L32.2185366,45.7303415 L32.2185366,50.9752195 L28.0476098,50.9752195 L28.0476098,65.0364878 L32.4932683,65.0364878 L32.4932683,70.2563902 L32.5182439,70.2563902 Z M62.5639024,50.9752195 L59.4919024,50.9752195 L59.4919024,65.0364878 L62.5639024,65.0364878 L62.5639024,70.2813659 L53.7974634,70.2813659 L53.7974634,66.9596098 C51.9992195,69.6819512 49.1270244,70.9057561 45.9051707,70.9057561 C38.8870244,70.9057561 33.3174634,65.0614634 33.3174634,58.1432195 C33.3174634,51.0251707 39.0119024,45.1059512 46.1799024,45.1059512 C49.3518049,45.1059512 52.099122,46.5795122 53.7974634,49.2519024 L53.7974634,45.7553171 L62.5639024,45.7553171 L62.5639024,50.9752195 Z M92.5346341,50.9752195 L89.3627317,50.9752195 L89.3627317,67.009561 C89.3627317,70.780878 89.088,73.728 86.2907317,76.5252683 C83.6682927,79.0977561 80.321561,80.2466341 76.7000976,80.2466341 C71.6050732,80.2466341 66.2852683,77.7240976 64.9865366,72.3793171 L71.4552195,72.3793171 C72.4292683,74.4522927 74.8019512,75.4013659 76.9748293,75.4013659 C78.8979512,75.4013659 80.9209756,74.5771707 82.1697561,73.153561 C83.7182439,71.3053659 83.8680976,69.756878 83.8680976,67.459122 L83.8680976,66.5350244 C82.1198049,69.3822439 79.3225366,70.6310244 76.0257561,70.6310244 C69.057561,70.6310244 63.6378537,64.7867317 63.6378537,57.9434146 C63.6378537,51.2 69.2823415,45.3057561 76.0757073,45.3057561 C79.3724878,45.3057561 82.4195122,46.4546341 84.2427317,49.3018537 L84.2427317,45.7303415 L92.5596098,45.7303415 L92.5596098,50.9752195 L92.5346341,50.9752195 Z" id="Shape" fill="#F47B64" fill-rule="nonzero"></path>
                <path d="M76.8,50.4507317 C72.7289756,50.4507317 69.3572683,53.7974634 69.3572683,57.8934634 C69.3572683,62.0643902 72.6540488,65.4360976 76.8249756,65.4360976 C81.0458537,65.4360976 84.2677073,61.9894634 84.2677073,57.8435122 C84.2677073,53.7724878 80.8710244,50.4507317 76.8,50.4507317 Z" id="Path" fill="#F47B64" fill-rule="nonzero"></path>
            </g>
            <g id="Group" transform="translate(124.530313, 20.330671)" fill="#000000" font-family="Helvetica" font-size="34.4663415" font-weight="normal">
                <text id="Talent">
                    <tspan x="0" y="34">Talent</tspan>
                </text>
                <text id="Garden">
                    <tspan x="0" y="67.7170732">Garden</tspan>
                </text>
            </g>
        </g>
    </g>
</svg>