<?xml version="1.0" encoding="UTF-8"?>
<svg width="366px" height="239px" viewBox="0 0 366 239" version="1.1" xmlns="http://www.w3.org/2000/svg" xmlns:xlink="http://www.w3.org/1999/xlink">
    <!-- Generator: Sketch 56.3 (81716) - https://sketch.com -->
    <title>logo_kp-mod</title>
    <desc>Created with Sketch.</desc>
    <g id="logo_kp-mod" stroke="none" stroke-width="1" fill="none" fill-rule="evenodd">
        <g id="kp_logo_espanso" transform="translate(53.000000, 84.000000)" fill-rule="nonzero">
            <g id="KP" transform="translate(85.754386, 20.982456)">
                <polygon id="Path" fill="#000000" points="16.9383695 -9.23705556e-14 13.1081214 -9.23705556e-14 5.2115484 6.07381465 7.03374861 7.3747484"></polygon>
                <polygon id="Path" fill="#000000" points="2.68055975 1.24344979e-14 4.97379915e-14 1.24344979e-14 4.97379915e-14 17.145425 2.68055975 17.145425 2.68055975 8.92515335 14.0769849 17.145425 17.7074328 17.145425 2.68055975 5.92535975"></polygon>
                <polygon id="Path" fill="#000000" points="20.473382 2.48634056 31.0817684 2.48634056 31.0817684 0.192544892 17.7939385 0.192544892 17.7939385 17.145425 31.2748714 17.145425 31.2748714 15.0441742 20.473382 15.0441742"></polygon>
                <rect id="Rectangle" fill="#000000" x="21.6515335" y="7.32898411" width="8.27329123" height="2.29435377"></rect>
                <polygon id="Path" fill="#000000" points="34.5397631 -4.61852778e-14 31.4540219 -4.61852778e-14 39.8154931 8.77948896 41.3664561 7.2279678"></polygon>
                <polygon id="Path" fill="#000000" points="49.5342663 1.24344979e-14 40.6984091 9.62110547 40.6984091 17.145425 43.3784107 17.145425 43.3784107 10.0335422 52.8097618 1.24344979e-14"></polygon>
                <g id="Group" transform="translate(2.220126, 0.056368)">
                    <polygon id="Path" fill="#6D6E71" points="135.539884 13.5534861 123.439135 0.128921362 123.397835 0.082598968 120.708346 0.082598968 135.810005 16.9489734 137.940277 16.9489734 137.940277 0.082598968 135.539884 0.082598968"></polygon>
                    <polygon id="Path" fill="#6D6E71" points="120.881357 16.9495315 123.28175 16.9495315 123.28175 4.99054035 120.881357 2.37081362"></polygon>
                    <polygon id="Path" fill="#6D6E71" points="101.18262 2.29044706 108.319059 2.29044706 108.319059 16.9495315 110.720568 16.9495315 110.720568 2.29044706 118.242097 2.29044706 118.242097 0.082598968 101.18262 0.082598968"></polygon>
                    <path d="M97.5058493,9.35935604 C97.7508557,9.21201734 98.0120471,9.02561156 98.282168,8.80516161 C98.5567538,8.58024685 98.7972954,8.31459071 98.999328,8.0115418 C99.2471249,7.61473189 99.4279496,7.16155377 99.5356632,6.66540186 C99.6411443,6.17427286 99.6958382,5.67756285 99.6958382,5.18922436 C99.6958382,4.70088586 99.6500739,4.2292904 99.5602196,3.7872743 C99.4698072,3.3424677 99.3475831,2.96519133 99.1963377,2.66270052 C98.8977536,2.1157614 98.51378,1.67765201 98.056137,1.36176677 C97.6057494,1.05034634 97.139735,0.813153354 96.67093,0.656885036 C96.2054737,0.501732921 95.76569,0.402390918 95.362741,0.361091434 C94.9676054,0.320908153 94.6651146,0.292444995 94.4446646,0.275701961 L85.6249924,0.275701961 L85.6249924,16.9495315 L88.2184883,16.9495315 L88.2184883,2.29044706 L94.2510035,2.29044706 C94.3933193,2.29044706 94.5663307,2.29937668 94.7717119,2.31444541 C94.9715121,2.33007224 95.1835905,2.36523261 95.3995756,2.41936842 C95.6105379,2.47238803 95.8298716,2.56112611 96.0531121,2.68335026 C96.2702134,2.803342 96.4711298,2.97858576 96.6525127,3.20517482 C96.8785437,3.47697007 97.0487645,3.80848215 97.1548037,4.18966522 C97.2630753,4.57866171 97.3183273,4.97602972 97.3183273,5.37004912 C97.3183273,5.76351042 97.2602848,6.13799628 97.1447579,6.48290279 C97.0331377,6.81832157 96.8729626,7.0778386 96.6642328,7.25698906 C96.4521544,7.45344066 96.2233329,7.60245366 95.9827913,7.70012136 C95.7366687,7.80057957 95.4972433,7.87480702 95.2723286,7.92168751 C95.0490881,7.96745181 94.8464974,7.99089205 94.6734861,7.99089205 L89.6762485,7.99089205 L89.6762485,10.1987401 L94.3631818,10.1987401 L98.2207769,16.9495315 L100.855572,16.9495315 L96.7663653,9.74277152 C97.0119298,9.6378485 97.2608429,9.50948524 97.5058493,9.35935604" id="Path" fill="#6D6E71"></path>
                    <path d="M67.0485961,7.24303653 C67.1568677,7.03486481 67.2372343,6.84399422 67.2857891,6.68214489 C67.5659972,5.87457255 67.6362766,5.10774159 67.4956351,4.40230175 C67.3561098,3.70523344 67.1016157,3.07960206 66.739408,2.54382497 C66.3788747,2.01083839 65.9547179,1.56156698 65.4769833,1.20773086 C65.0020392,0.85556904 64.5522097,0.601633024 64.1380987,0.452620021 C63.7122675,0.305281321 63.31769,0.205939319 62.9660863,0.156826419 C62.611134,0.107155418 62.3884516,0.0831570691 62.2835286,0.0831570691 L53.4649725,0.0831570691 L53.4649725,16.9495315 L55.8653655,16.9495315 L55.8653655,2.09790217 L61.8978807,2.09790217 C61.993316,2.09790217 62.1317251,2.10180888 62.313666,2.10962229 C62.4877936,2.11743571 62.6836871,2.15203798 62.8963236,2.212871 C63.1128669,2.27482023 63.3483856,2.36913932 63.5956244,2.49303777 C63.8389564,2.61470382 64.0778237,2.79217998 64.3066452,3.02155955 C64.53156,3.2459162 64.702897,3.52775728 64.8161915,3.85926935 C64.9306023,4.19636244 64.9847381,4.55354716 64.9774828,4.92077771 C64.9691112,5.29024066 64.8948838,5.66863323 64.7564747,6.0447934 C64.6191818,6.41872116 64.4020805,6.76362766 64.1101936,7.07114138 C63.9131839,7.28377792 63.7022217,7.45288256 63.4823298,7.57399051 C63.2596475,7.69733086 63.0375232,7.79053375 62.8237705,7.85136677 C62.6066691,7.9138741 62.4007298,7.95238308 62.2120916,7.9668937 C62.0145238,7.98307864 61.8465354,7.99089205 61.7053358,7.99089205 L57.5151125,7.99089205 L57.5151125,10.0056372 L62.0909837,10.0056372 C62.2366481,10.0056372 62.4386807,10.0017304 62.6981977,9.99391703 C62.9610634,9.98554551 63.2657866,9.94368793 63.6034378,9.87001858 C63.941089,9.79579112 64.3105519,9.67524128 64.7001065,9.51283385 C65.0958002,9.34819401 65.5043302,9.09816471 65.9189994,8.76609453 C66.0373168,8.66507822 66.1679125,8.53001775 66.3079959,8.36537792 C66.4469631,8.20185428 66.5803492,8.02270382 66.7042477,7.83294943 C66.8253556,7.64654365 66.9414407,7.44785965 67.0485961,7.24303653" id="Path" fill="#6D6E71"></path>
                    <polygon id="Path" fill="#6D6E71" points="76.2611715 0.275701961 73.7647851 0.275701961 66.3984083 16.7530799 66.3096702 16.9495315 68.9316293 16.9495315 75.0076764 3.08685738 77.8897106 10.1122345 73.7692499 10.1122345 72.8578708 11.9349928 78.7798819 11.9349928 81.0948854 16.9495315 83.5181606 16.9495315 76.2974481 0.359417131"></polygon>
                    <polygon id="Path" fill="#6D6E71" points="142.994999 2.29044706 153.603943 2.29044706 153.603943 0.275701961 140.594606 0.275701961 140.594606 16.9495315 153.796488 16.9495315 153.796488 15.1273313 142.994999 15.1273313"></polygon>
                    <rect id="Rectangle" fill="#6D6E71" x="144.452201" y="7.41214118" width="7.99424066" height="2.0153032"></rect>
                    <path d="M167.266817,9.74277152 C167.51294,9.6378485 167.762411,9.50948524 168.006859,9.35935604 C168.251307,9.21257544 168.511941,9.02616966 168.783178,8.80516161 C169.057763,8.58024685 169.298863,8.31403261 169.500338,8.0115418 C169.747576,7.61473189 169.928959,7.16155377 170.036673,6.66540186 C170.142712,6.17371476 170.19629,5.67700475 170.19629,5.18922436 C170.19629,4.70088586 170.151084,4.2292904 170.061229,3.7872743 C169.970817,3.3424677 169.848035,2.96519133 169.697347,2.66270052 C169.398205,2.1152033 169.01479,1.67765201 168.557705,1.36176677 C168.106759,1.05034634 167.640745,0.813153354 167.17194,0.656885036 C166.706483,0.501732921 166.2667,0.402390918 165.863751,0.361091434 C165.468615,0.320908153 165.166124,0.292444995 164.945674,0.275701961 L156.12656,0.275701961 L156.12656,16.9495315 L158.720056,16.9495315 L158.720056,2.29044706 L164.752571,2.29044706 C164.894329,2.29044706 165.067898,2.29937668 165.272722,2.31444541 C165.47308,2.33007224 165.6846,2.36579071 165.900585,2.41936842 C166.112106,2.47238803 166.331439,2.56112611 166.554122,2.68335026 C166.771223,2.803342 166.97214,2.97802766 167.153522,3.20517482 C167.380111,3.47697007 167.549774,3.80848215 167.655813,4.18966522 C167.764643,4.57866171 167.819337,4.97547162 167.819337,5.37004912 C167.819337,5.76406852 167.761295,6.13855439 167.645768,6.48290279 C167.534147,6.81832157 167.373972,7.0778386 167.165243,7.25698906 C166.953164,7.45344066 166.724343,7.60245366 166.484359,7.70012136 C166.237678,7.80057957 165.998253,7.87480702 165.773338,7.92168751 C165.550098,7.96745181 165.348065,7.99089205 165.175054,7.99089205 L160.177258,7.99089205 L160.177258,10.1987401 L164.864192,10.1987401 L168.721787,16.9495315 L171.35714,16.9495315 L167.266817,9.74277152 Z" id="Path" fill="#6D6E71"></path>
                    <rect id="Rectangle" fill="#000000" x="0.409088132" y="21.7988722" width="168.359021" height="1"></rect>
                </g>
                <path d="M34.6670101,28.5156194 L34.920388,28.5156194 C34.9583389,28.5156194 34.991825,28.5139451 35.01973,28.5105965 C35.0481932,28.507806 35.0738658,28.502225 35.096748,28.4944116 C35.1196301,28.4865981 35.140838,28.474878 35.1598134,28.4592512 C35.1787889,28.4452987 35.1994386,28.4263232 35.2217626,28.4039992 L36.9423884,26.6348186 C36.9725259,26.6007744 37.0021053,26.5767761 37.0311265,26.565614 C37.0607059,26.5533358 37.0953082,26.5477548 37.1354914,26.5477548 L37.3827302,26.5477548 L35.5197886,28.4609255 C35.4818378,28.5016669 35.4483517,28.5329205 35.4193304,28.5552446 C35.3897511,28.5764524 35.3573812,28.5948698 35.3211046,28.6093804 C35.3635203,28.6211005 35.4014712,28.640076 35.4355154,28.6651905 C35.4695595,28.6903051 35.5041618,28.723233 35.538206,28.7628582 L37.4999315,30.8127637 L37.2499022,30.8127637 C37.1974407,30.8127637 37.1600479,30.8060665 37.1366076,30.7932301 C37.1137255,30.7803938 37.0914014,30.7597441 37.0690774,30.731839 L35.2669688,28.8873148 C35.2446448,28.8649907 35.2245531,28.8460153 35.2050196,28.8298303 C35.1860442,28.8136454 35.1648363,28.7996929 35.1419542,28.789089 C35.1185139,28.7779269 35.0917251,28.7701135 35.0604714,28.7650906 C35.0292178,28.7600677 34.9895926,28.7572772 34.9415959,28.7572772 L34.6670101,28.7572772 L34.6670101,30.8127637 L34.3567059,30.8127637 L34.3567059,26.5483129 L34.6670101,26.5483129 L34.6670101,28.5156194 L34.6670101,28.5156194 Z" id="Path" fill="#000000"></path>
                <path d="M44.7898485,26.5477548 L44.7898485,30.8122056 L44.6453003,30.8122056 C44.6190696,30.8122056 44.5973036,30.8077408 44.5805606,30.7988111 C44.5632594,30.7898815 44.5465164,30.7742547 44.5308896,30.7524888 L41.7610336,27.0506039 C41.7671728,27.1114369 41.7699633,27.1689214 41.7699633,27.2230572 L41.7699633,30.8127637 L41.4987261,30.8127637 L41.4987261,26.5483129 L41.6522039,26.5483129 C41.6806671,26.5483129 41.702433,26.5516615 41.7175018,26.5589168 C41.7320124,26.5661721 41.7487554,26.581799 41.7671728,26.6057973 L44.5308896,30.2976363 C44.5247505,30.2368033 44.52196,30.179877 44.52196,30.1257412 L44.52196,26.5483129 L44.7898485,26.5483129 L44.7898485,26.5477548 Z" id="Path" fill="#000000"></path>
                <path d="M53.152994,28.6780268 C53.152994,29.0078646 53.1038811,29.3064487 53.0056553,29.5737792 C52.9068714,29.8422258 52.7684623,30.0721635 52.58987,30.2613598 C52.4107195,30.4511141 52.1958506,30.5978947 51.9463794,30.7011434 C51.695792,30.8049503 51.42009,30.8562956 51.1187154,30.8562956 C50.8173408,30.8562956 50.5421969,30.8043922 50.2932838,30.7011434 C50.0438126,30.5973366 49.8300599,30.4511141 49.6509094,30.2613598 C49.472317,30.0716054 49.3339079,29.8422258 49.235124,29.5737792 C49.1368982,29.3064487 49.0877853,29.0073065 49.0877853,28.6780268 C49.0877853,28.3504215 49.1368982,28.0529536 49.235124,27.7839488 C49.3339079,27.5166184 49.472317,27.2866807 49.6509094,27.0974844 C49.8300599,26.90773 50.0438126,26.7603913 50.2932838,26.6560264 C50.5421969,26.5511034 50.8173408,26.4992 51.1187154,26.4992 C51.42009,26.4992 51.695792,26.5505453 51.9463794,26.6543521 C52.1958506,26.7581589 52.4107195,26.9049395 52.58987,27.0958101 C52.7684623,27.2872388 52.9068714,27.5166184 53.0056553,27.7839488 C53.1038811,28.0529536 53.152994,28.3504215 53.152994,28.6780268 M52.8337602,28.6780268 C52.8337602,28.381117 52.7924607,28.1132285 52.7098617,27.8754774 C52.6278208,27.6388425 52.5111777,27.4384842 52.3604904,27.2727282 C52.2098031,27.1080883 52.0289783,26.9825156 51.8180161,26.8954518 C51.6070539,26.8072718 51.3737676,26.764298 51.1187154,26.764298 C50.8658956,26.764298 50.6337255,26.8072718 50.4227633,26.8954518 C50.211801,26.9825156 50.0304182,27.1080883 49.8786147,27.2727282 C49.7268111,27.4384842 49.6096099,27.6388425 49.5258947,27.8754774 C49.4427377,28.1132285 49.4008801,28.3805589 49.4008801,28.6780268 C49.4008801,28.9777271 49.4427377,29.2456157 49.5258947,29.4805763 C49.6096099,29.7172111 49.7268111,29.9175695 49.8786147,30.0822093 C50.0304182,30.2468491 50.211801,30.37298 50.4227633,30.4583695 C50.6337255,30.5454332 50.8658956,30.588407 51.1187154,30.588407 C51.3737676,30.588407 51.6070539,30.5454332 51.8180161,30.4583695 C52.0289783,30.37298 52.2098031,30.2468491 52.3604904,30.0822093 C52.5111777,29.9175695 52.6278208,29.7172111 52.7098617,29.4805763 C52.7924607,29.2456157 52.8337602,28.9777271 52.8337602,28.6780268" id="Shape" fill="#000000"></path>
                <path d="M62.7763319,26.5477548 L61.4352149,30.8122056 L61.1578386,30.8122056 L59.8982043,27.1114369 C59.8825775,27.0612078 59.8680669,27.0087463 59.8557886,26.9546105 C59.8440685,27.0093044 59.8295579,27.0612078 59.8139311,27.1114369 L58.5509482,30.8122056 L58.2763624,30.8122056 L56.933013,26.5477548 L57.1891814,26.5477548 C57.2472239,26.5477548 57.2846167,26.5751018 57.3002436,26.6292376 L58.3768206,30.1341127 C58.3985866,30.2150374 58.4186782,30.3054497 58.4365375,30.4081404 C58.4471414,30.3556788 58.4566291,30.307124 58.467233,30.2619179 C58.4772788,30.2167117 58.488999,30.174296 58.5029515,30.1341127 L59.7078918,26.6292376 C59.7162634,26.6069135 59.7302159,26.5884962 59.7503075,26.5717531 C59.7703992,26.5561263 59.7943975,26.5477548 59.8228607,26.5477548 L59.907134,26.5477548 C59.935039,26.5477548 59.9584793,26.5555682 59.9763385,26.5700788 C59.9941977,26.5845895 60.0087084,26.6046811 60.0181961,26.6286795 L61.2236945,30.1335546 C61.2376471,30.1715055 61.2504834,30.2144793 61.2610873,30.2596854 C61.2722493,30.3060078 61.2828533,30.3551207 61.2928991,30.4053498 C61.303503,30.3551207 61.3124326,30.307124 61.3219203,30.2619179 C61.331408,30.2167117 61.3403377,30.174296 61.3509416,30.1341127 L62.4269606,26.6292376 C62.4325416,26.6069135 62.4464941,26.5884962 62.4671439,26.5717531 C62.4883517,26.5561263 62.5129082,26.5477548 62.5413713,26.5477548 L62.7763319,26.5477548 Z" id="Path" fill="#000000"></path>
                <polygon id="Path" fill="#000000" points="69.1956111 30.549898 69.1956111 30.8116475 66.8655389 30.8116475 66.8655389 26.5477548 67.1764012 26.5477548 67.1764012 30.549898"></polygon>
                <polygon id="Path" fill="#000000" points="75.7923666 30.5554791 75.7862275 30.8116475 73.2306824 30.8116475 73.2306824 26.5471967 75.7862275 26.5471967 75.7862275 26.8033651 73.5409866 26.8033651 73.5409866 28.5278976 75.4100673 28.5278976 75.4100673 28.7773688 73.5409866 28.7773688 73.5409866 30.5554791"></polygon>
                <path d="M83.6342456,28.6780268 C83.6342456,29.0078646 83.5851327,29.3042163 83.4863488,29.56764 C83.3875649,29.8305057 83.2491558,30.0548623 83.0705635,30.2395938 C82.8919711,30.4243253 82.6776603,30.566083 82.427631,30.6643088 C82.1770436,30.7625346 81.9013416,30.8122056 81.599967,30.8122056 L80.0417486,30.8122056 L80.0417486,26.5477548 L81.599967,26.5477548 C81.9013416,26.5477548 82.1770436,26.5968677 82.427631,26.6956516 C82.6776603,26.7938774 82.8919711,26.9356351 83.0705635,27.1203666 C83.2491558,27.3056561 83.3875649,27.5288966 83.4863488,27.7928784 C83.5851327,28.0557441 83.6342456,28.3504215 83.6342456,28.6780268 M83.3150118,28.6780268 C83.3150118,28.381117 83.2737123,28.1154609 83.1911133,27.8821746 C83.1090724,27.6494464 82.9924293,27.4524367 82.841742,27.2917036 C82.6904966,27.1309705 82.5096718,27.0081882 82.2987096,26.9233569 C82.0877474,26.8396417 81.8544611,26.797226 81.5994089,26.797226 L80.3520528,26.797226 L80.3520528,30.5610601 L81.5994089,30.5610601 C81.8544611,30.5610601 82.0877474,30.5192025 82.2987096,30.433813 C82.5096718,30.3500978 82.6904966,30.2267575 82.841742,30.0665825 C82.9924293,29.9064074 83.1090724,29.7088396 83.1911133,29.4761115 C83.2731542,29.2439414 83.3150118,28.9777271 83.3150118,28.6780268" id="Shape" fill="#000000"></path>
                <path d="M91.3427385,28.8772689 L91.3427385,30.3936297 C91.130102,30.5437589 90.9035129,30.6592859 90.6618551,30.7402105 C90.4207554,30.820019 90.1495183,30.8607604 89.8481437,30.8607604 C89.5110506,30.8607604 89.2074436,30.808857 88.9378807,30.7050502 C88.6683179,30.6018014 88.4389383,30.4555789 88.2491839,30.2652665 C88.0594295,30.074954 87.9137651,29.8455744 87.8127488,29.5771278 C87.7106163,29.308123 87.6603872,29.0078646 87.6603872,28.679143 C87.6603872,28.3504215 87.7100582,28.0507212 87.8094002,27.7828326 C87.9098584,27.5149441 88.0527323,27.2850064 88.23858,27.0958101 C88.4244277,26.9066138 88.6487843,26.7592751 88.9116499,26.6560264 C89.1750737,26.5522196 89.4714254,26.5008743 89.8007051,26.5008743 C89.9636706,26.5008743 90.1143579,26.5125944 90.2510927,26.5343604 C90.3889437,26.5566844 90.517865,26.5890543 90.6356244,26.6325862 C90.7539418,26.67556 90.8650039,26.7285796 90.9671364,26.7922031 C91.0703851,26.8552685 91.1680528,26.9283798 91.2623719,27.0104206 L91.1780987,27.1432487 C91.1501936,27.1918035 91.1077779,27.2024074 91.0519678,27.1767348 C91.0212722,27.1650147 90.9782985,27.1365515 90.9219302,27.0924615 C90.865562,27.0483715 90.7891022,27.0020491 90.6897602,26.9540524 C90.5915344,26.9054976 90.4693102,26.8625238 90.3242039,26.8240149 C90.1779814,26.7866221 90.0010634,26.7670885 89.7923335,26.7670885 C89.5149573,26.7670885 89.2643699,26.8111785 89.0400132,26.8993585 C88.8156566,26.9875385 88.6253441,27.1147856 88.4679595,27.2794254 C88.3100169,27.4440652 88.1883509,27.6449816 88.1029614,27.8821746 C88.01813,28.1193676 87.9751562,28.3850237 87.9751562,28.6808173 C87.9751562,28.9805176 88.0175719,29.2500805 88.1029614,29.4883897 C88.1883509,29.7278151 88.3122493,29.9304058 88.4735406,30.097278 C88.6353899,30.2635922 88.8323996,30.3913973 89.0628954,30.4801354 C89.2939492,30.5683154 89.5540244,30.6124054 89.8436788,30.6124054 C89.9703678,30.6124054 90.087569,30.604592 90.1947245,30.5889651 C90.302438,30.5727802 90.4045705,30.5504561 90.5022382,30.5203187 C90.5999059,30.4918555 90.6936669,30.4555789 90.7857536,30.4126052 C90.876724,30.3696314 90.9699269,30.3205185 91.064246,30.2658246 L91.064246,29.1178105 L90.2477441,29.1178105 C90.22542,29.1178105 90.2070027,29.1105552 90.191934,29.0966027 C90.1768652,29.0832083 90.1690518,29.0664652 90.1690518,29.048606 L90.1690518,28.8795013 L91.3427385,28.8795013 L91.3427385,28.8772689 Z" id="Path" fill="#000000"></path>
                <polygon id="Path" fill="#000000" points="98.2447752 30.5554791 98.2386361 30.8116475 95.683091 30.8116475 95.683091 26.5471967 98.2386361 26.5471967 98.2386361 26.8033651 95.9928372 26.8033651 95.9928372 28.5278976 97.8619179 28.5278976 97.8619179 28.7773688 95.9928372 28.7773688 95.9928372 30.5554791"></polygon>
                <path d="M103.690168,26.4925028 C103.963079,26.4925028 104.200831,26.5248727 104.402863,26.5884962 C104.604338,26.6510035 104.771768,26.7414159 104.904038,26.8575009 C105.036866,26.9741441 105.13565,27.1147856 105.200948,27.2794254 C105.266246,27.4440652 105.298615,27.6276805 105.298615,27.8308293 C105.298615,28.0317457 105.264013,28.215361 105.193692,28.3822332 C105.123372,28.5491055 105.020123,28.6930956 104.884504,28.8130873 C104.749444,28.9330791 104.580897,29.0279562 104.381655,29.0943703 C104.181855,29.1619005 103.951359,29.1959447 103.690168,29.1959447 L102.997006,29.1959447 L102.997006,30.8116475 L102.415465,30.8116475 L102.415465,26.4925028 L103.690168,26.4925028 Z M103.690168,28.7327207 C103.85704,28.7327207 104.003821,28.7103967 104.131626,28.6663067 C104.259431,28.6222167 104.366587,28.5602675 104.454208,28.4810171 C104.541272,28.4017668 104.607128,28.3063315 104.651776,28.1963856 C104.695866,28.0858815 104.717632,27.9642155 104.717632,27.8313874 C104.717632,27.5562436 104.633359,27.3413746 104.463138,27.1862225 C104.293475,27.0321866 104.035633,26.9540524 103.690168,26.9540524 L102.997006,26.9540524 L102.997006,28.7332788 L103.690168,28.7332788 L103.690168,28.7327207 Z" id="Shape" fill="#000000"></path>
                <path d="M113.340295,28.6540285 C113.340295,28.9777271 113.288949,29.2735207 113.186259,29.5447579 C113.084126,29.8148788 112.93902,30.047607 112.752614,30.2423843 C112.56565,30.4371616 112.341852,30.588407 112.078986,30.6955624 C111.816679,30.803276 111.527582,30.8568537 111.209465,30.8568537 C110.891347,30.8568537 110.602809,30.803276 110.341617,30.6955624 C110.080426,30.588407 109.856627,30.4366035 109.669664,30.2423843 C109.4827,30.0481651 109.338151,29.8148788 109.235461,29.5447579 C109.133328,29.2740788 109.082541,28.9777271 109.082541,28.6540285 C109.082541,28.3308879 109.133886,28.0339781 109.235461,27.762741 C109.33871,27.4931781 109.4827,27.2604499 109.669664,27.0634402 C109.856627,26.8681049 110.080426,26.7157432 110.341617,26.6074716 C110.602809,26.4992 110.891347,26.4450642 111.209465,26.4450642 C111.527582,26.4450642 111.816679,26.4992 112.078986,26.6074716 C112.341852,26.7157432 112.56565,26.868663 112.752614,27.0634402 C112.93902,27.2604499 113.084684,27.4931781 113.186259,27.762741 C113.289508,28.0339781 113.340295,28.3308879 113.340295,28.6540285 M112.740336,28.6540285 C112.740336,28.3878142 112.704618,28.1511794 112.632064,27.9402171 C112.559511,27.7286968 112.457937,27.5501044 112.324551,27.4049981 C112.192281,27.2593337 112.030989,27.1471554 111.842351,27.0684632 C111.653713,26.990329 111.442751,26.9512619 111.209465,26.9512619 C110.978411,26.9512619 110.768565,26.990329 110.579368,27.0684632 C110.39073,27.1471554 110.229439,27.2593337 110.096053,27.4049981 C109.962109,27.5501044 109.859418,27.7286968 109.786865,27.9402171 C109.71487,28.1511794 109.678593,28.3883723 109.678593,28.6540285 C109.678593,28.9196846 109.71487,29.1563195 109.786865,29.3661655 C109.859418,29.5760116 109.96155,29.7540458 110.096053,29.8997102 C110.229439,30.0459327 110.39073,30.1564367 110.579368,30.2345709 C110.768565,30.312147 110.978411,30.3506559 111.209465,30.3506559 C111.442751,30.3506559 111.653713,30.312147 111.842351,30.2345709 C112.030989,30.1564367 112.192281,30.0459327 112.324551,29.8997102 C112.457379,29.7540458 112.559511,29.5760116 112.632064,29.3661655 C112.704618,29.1563195 112.740336,28.9196846 112.740336,28.6540285" id="Shape" fill="#000000"></path>
                <path d="M123.023349,26.4930609 L121.676093,30.8110894 L121.151478,30.8110894 L120.058158,27.5177346 C120.047554,27.4848066 120.038625,27.4518786 120.029137,27.4144859 L120.000116,27.3006332 C119.99007,27.3408165 119.980582,27.3793255 119.970536,27.4144859 C119.959932,27.4513205 119.950445,27.4848066 119.939841,27.5177346 L118.839823,30.8110894 L118.315766,30.8110894 L116.96851,26.4930609 L117.4535,26.4930609 C117.505962,26.4930609 117.549493,26.5053391 117.584096,26.5315699 C117.619256,26.5583587 117.642138,26.5912867 117.652184,26.6320281 L118.544588,29.633496 C118.557982,29.6881899 118.572493,29.7462324 118.584771,29.8076235 C118.598166,29.8701309 118.610444,29.9365449 118.622722,30.0068656 C118.636116,29.9365449 118.651185,29.8695728 118.666254,29.8059492 C118.680764,29.7434419 118.698066,29.6853994 118.715925,29.6329379 L119.731111,26.63147 C119.743389,26.5968677 119.766829,26.565614 119.80199,26.5365928 C119.83715,26.5064553 119.880682,26.4925028 119.929795,26.4925028 L120.098899,26.4925028 C120.150803,26.4925028 120.193219,26.504781 120.226147,26.5310118 C120.257958,26.5578006 120.281957,26.5907286 120.298142,26.63147 L121.310537,29.6329379 C121.328396,29.6853994 121.345139,29.7406514 121.360766,29.8020425 C121.375277,29.8617593 121.390346,29.9253829 121.40374,29.9917969 C121.414344,29.9253829 121.424948,29.8623174 121.437784,29.8020425 C121.449504,29.7412095 121.462899,29.6853994 121.475735,29.6329379 L122.370929,26.63147 C122.381533,26.5951934 122.403857,26.5628235 122.439018,26.5349185 C122.47362,26.5058972 122.516594,26.4925028 122.566823,26.4925028 L123.023349,26.4925028 L123.023349,26.4930609 Z" id="Path" fill="#000000"></path>
                <polygon id="Path" fill="#000000" points="129.647452 30.3361453 129.644661 30.8116475 126.983635 30.8116475 126.983635 26.4930609 129.644661 26.4930609 129.644661 26.9696793 127.568525 26.9696793 127.568525 28.4039992 129.249526 28.4039992 129.249526 28.8616421 127.568525 28.8616421 127.568525 30.3361453"></polygon>
                <path d="M136.970855,30.8116475 L136.451821,30.8116475 C136.345782,30.8116475 136.267647,30.7709061 136.21686,30.6883071 L135.095635,29.1445994 C135.061591,29.0966027 135.024756,29.0614423 134.985689,29.0402345 C134.94718,29.0195847 134.885789,29.0089808 134.803748,29.0089808 L134.360058,29.0089808 L134.360058,30.8110894 L133.779075,30.8110894 L133.779075,26.4925028 L134.999642,26.4925028 C135.273111,26.4925028 135.509188,26.5204078 135.707872,26.5745437 C135.907114,26.6309119 136.071196,26.7101622 136.201233,26.8150852 C136.330155,26.9200083 136.426148,27.045581 136.489214,27.1934778 C136.551163,27.3408165 136.582417,27.5060144 136.582417,27.6890716 C136.582417,27.8419913 136.558418,27.9843071 136.510421,28.1176933 C136.462425,28.2494052 136.392104,28.3693969 136.301134,28.474878 C136.209047,28.5803591 136.097985,28.6702134 135.966273,28.7444409 C135.834561,28.8186683 135.68499,28.8750365 135.518118,28.9135455 C135.592345,28.9554031 135.657085,29.0167942 135.711779,29.0971608 L136.970855,30.8116475 Z M134.975643,28.5848239 C135.144748,28.5848239 135.293761,28.5641742 135.42324,28.5234328 C135.55272,28.4815752 135.66155,28.4235327 135.748613,28.3487472 C135.836235,28.2728454 135.902091,28.1835492 135.946181,28.0791843 C135.990271,27.9748194 136.012595,27.8587344 136.012595,27.7326035 C136.012595,27.4753189 135.928322,27.2810997 135.759217,27.1510621 C135.590113,27.0204665 135.336735,26.9546105 134.999642,26.9546105 L134.360058,26.9546105 L134.360058,28.585382 L134.975643,28.585382 L134.975643,28.5848239 Z" id="Shape" fill="#000000"></path>
            </g>
            <g id="logo">
                <g id="Group" fill="#2A7AB6">
                    <rect id="Rectangle" x="0.362239227" y="0.110064996" width="72.2692531" height="72.0434854"></rect>
                </g>
                <path d="M44.595861,72.1805077 L60.0862212,72.1543928 L20.7023931,30.782461 L8.58338486,38.650634 L37.5818986,68.9708997 C39.4596457,70.9345733 41.8765395,72.1645018 44.595861,72.1805077" id="Path" fill="#E6E7E8"></path>
                <path d="M41.2860053,0.110064996 L55.2119976,0.110064996 L0.361396811,54.1308852 L0.361396811,36.0871596 L34.9973639,2.45029889 C36.6628219,0.880033958 38.9095475,0.0283505656 41.2860053,0.110064996" id="Path" fill="#E6E7E8"></path>
                <path d="M55.2035734,62.7589182 L47.0304455,54.0399042 C45.4618655,52.3677068 44.5891216,50.1605748 44.5891216,47.8675162 L44.5891216,21.7163713 L52.7622495,30.4345428 C54.3308296,32.1075826 55.2035734,34.3147146 55.2035734,36.6077732 L55.2035734,62.7589182 Z" id="Path" fill="#E6E7E8"></path>
                <path d="M72.6306499,8.24444169 C72.3636038,8.13240026 72.0923456,8.02541332 71.8168753,7.92348089 C69.0225787,6.89236272 67.5955247,6.37680363 63.9984049,6.37680363 L57.4949471,6.23106552 C55.1193317,6.17799326 52.8195339,7.06337333 51.0934218,8.69513468 L41.4039437,17.8530478 L49.3605704,17.8530478 L49.3605704,17.8404116 L61.7904304,17.8404116 C64.9376996,17.8404116 67.384078,18.5716293 69.1304081,20.0340649 C70.8767381,21.4973429 71.7511668,23.9454062 71.7511668,27.3782546 C71.7511668,30.8119456 70.8767381,33.318978 69.1304081,34.9010367 C67.384078,36.4830955 64.9376996,37.2741249 61.7904304,37.2741249 L49.3605704,37.2741249 L49.3605704,37.2631735 L44.5882792,37.2833915 L55.2035734,48.649279 L55.2035734,48.6484366 L63.1037582,48.6484366 C67.1507286,48.6484366 68.9012707,48.1354048 71.8943776,47.1093411 C72.143733,47.0234146 72.3880339,46.9324336 72.6306499,46.8397677 L72.6306499,8.24444169 Z" id="Path" fill="#E6E7E8"></path>
                <path d="M0.362239227,37.6565821 L0.362239227,67.6154511 C0.362239227,70.1224835 2.39330615,72.1535504 4.89949615,72.1535504 L11.7458176,72.1535504 L11.7458176,37.6565821 L0.362239227,37.6565821 Z" id="Path" fill="#E6E7E8"></path>
                <path d="M4.89865374,0.110064996 C2.39246373,0.110064996 0.361396811,2.14113192 0.361396811,4.64732192 L0.361396811,28.0521881 L30.5729908,0.110064996 L4.89865374,0.110064996 Z" id="Path" fill="#E6E7E8"></path>
            </g>
        </g>
    </g>
</svg>