<?xml version="1.0" encoding="UTF-8"?>
<svg width="366px" height="239px" viewBox="0 0 366 239" version="1.1" xmlns="http://www.w3.org/2000/svg" xmlns:xlink="http://www.w3.org/1999/xlink">
    <!-- Generator: Sketch 56.3 (81716) - https://sketch.com -->
    <title>logo_skaffolder</title>
    <desc>Created with Sketch.</desc>
    <g id="logo_skaffolder" stroke="none" stroke-width="1" fill="none" fill-rule="evenodd">
        <g id="skaffolder_logo-nero" transform="translate(54.000000, 100.000000)" fill-rule="nonzero">
            <path d="M0.00784491212,29.1673833 L6.91921249,25.1586331 C8.17439843,28.0612507 10.3239044,30.0146337 14.27774,30.0146337 C18.0825225,30.0146337 19.0317568,28.5162555 19.0317568,27.1590858 C19.0317568,25.0095798 17.0313043,24.1544844 11.7673682,22.7031757 C6.56619145,21.2518669 1.45915365,18.74934 1.45915365,12.0419401 C1.45915365,5.27962585 7.17024968,1.37285962 13.2265218,1.37285962 C18.9846873,1.37285962 23.4955118,4.12642378 26.0451082,9.28837596 L19.2827939,13.2422117 C18.0825225,10.7396847 16.427246,9.1863921 13.2265218,9.1863921 C10.7239949,9.1863921 9.46880893,10.441578 9.46880893,11.8379724 C9.46880893,13.4383345 10.3239044,14.5444671 15.7761182,16.1918987 C21.0871238,17.7922607 27.0414121,19.6436599 27.0414121,27.0571019 C27.0414121,33.8194162 21.6362676,37.8203345 14.018858,37.8203345 C6.6681753,37.8281662 1.96122802,34.3214905 0.00784491212,29.1673833 Z" id="XMLID_69_" fill="#0A0A0A"></path>
            <polygon id="XMLID_98_" fill="#0A0A0A" points="38.1654975 26.6177868 38.1654975 37.7810968 30.5873123 37.7810968 30.5873123 2.42407785 38.1654975 2.42407785 38.1654975 23.5896507"></polygon>
            <path d="M83.3051219,12.7479822 L83.3051219,37.7889417 L75.789696,37.7889417 L75.789696,35.4354681 C74.1344196,37.3417818 71.686807,38.4871389 68.3291846,38.4871389 C61.7708381,38.4871389 56.3578487,32.7289733 56.3578487,25.2684619 C56.3578487,17.8079505 61.7629931,12.049785 68.3291846,12.049785 C71.686807,12.049785 74.1344196,13.2029871 75.789696,15.1014558 L75.789696,12.7479822 L83.3051219,12.7479822 Z M75.797541,25.2684619 C75.797541,21.5107491 73.295014,19.1572754 69.8354078,19.1572754 C66.3836464,19.1572754 63.8732745,21.5107491 63.8732745,25.2684619 C63.8732745,29.0261748 66.3758014,31.3796484 69.8354078,31.3796484 C73.295014,31.3718036 75.797541,29.01833 75.797541,25.2684619 Z" id="XMLID_100_" fill="#0A0A0A"></path>
            <polygon id="XMLID_103_" fill="#FF6B35" points="39.1853361 25.1586331 47.8382741 12.5283247 56.67949 12.5283247 47.4852531 25.1586331 56.9305273 37.7889417 48.3403485 37.7889417 40.260089 26.6256318"></polygon>
            <polygon id="XMLID_105_" fill="#FF6B35" points="257.611225 26.6177868 249.530965 37.7810968 240.940787 37.7810968 250.38606 25.1507883 241.191823 12.5204797 250.033039 12.5204797 258.685978 25.1507883"></polygon>
            <path d="M98.9321868,11.3751226 L103.843102,11.3751226 L103.843102,18.9846873 L98.9321868,18.9846873 L98.9321868,37.7889417 L91.0088256,37.7889417 L91.0088256,18.9846873 L87.4707702,18.9846873 L87.4707702,11.3751226 L91.0088256,11.3751226 C91.0088256,3.97737044 95.0724901,-0.455004903 103.843102,0.0706042091 L103.843102,7.68016897 C100.88557,7.41344196 98.9321868,8.31560685 98.9321868,11.3751226 Z" id="XMLID_106_" fill="#0A0A0A"></path>
            <path d="M118.889643,11.3751226 L123.800558,11.3751226 L123.800558,18.9846873 L118.889643,18.9846873 L118.889643,37.7889417 L110.966282,37.7889417 L110.966282,18.9846873 L107.428227,18.9846873 L107.428227,11.3751226 L110.966282,11.3751226 C110.966282,3.97737044 115.029946,-0.455004903 123.800558,0.0706042091 L123.800558,7.68016897 C120.843026,7.41344196 118.889643,8.31560685 118.889643,11.3751226 Z" id="XMLID_108_" fill="#0A0A0A"></path>
            <path d="M124.98514,24.9703553 C124.98514,17.6275176 130.79822,11.963491 138.039073,11.963491 C145.279928,11.963491 151.100853,17.6275176 151.100853,24.9703553 C151.100853,32.313193 145.287773,37.9772196 138.039073,37.9772196 C130.79822,37.9772196 124.98514,32.313193 124.98514,24.9703553 Z M143.703101,24.9703553 C143.703101,21.4715244 141.239797,19.1572754 138.039073,19.1572754 C134.838349,19.1572754 132.375047,21.4715244 132.375047,24.9703553 C132.375047,28.4691862 134.838349,30.7834352 138.039073,30.7834352 C141.239797,30.7834352 143.703101,28.4691862 143.703101,24.9703553 Z" id="XMLID_110_" fill="#0A0A0A"></path>
            <polyline id="XMLID_113_" fill="#0A0A0A" points="161.613034 37.5849739 154.097609 37.5849739 154.097609 2.53390661 161.613034 2.53390661 161.667949 37.6085088"></polyline>
            <path d="M191.619824,2.73002941 L191.619824,37.7810968 L184.104397,37.7810968 L184.104397,35.4276231 C182.449122,37.3339368 180.001509,38.479294 176.643886,38.479294 C170.08554,38.479294 164.67255,32.7211285 164.67255,25.2606171 C164.67255,17.8001056 170.077694,12.0419401 176.643886,12.0419401 C180.001509,12.0419401 182.449122,13.1951422 184.104397,15.0936109 L184.104397,2.73002941 L191.619824,2.73002941 Z M184.112243,25.2684619 C184.112243,21.5107491 181.609715,19.1572754 178.15011,19.1572754 C174.698348,19.1572754 172.187976,21.5107491 172.187976,25.2684619 C172.187976,29.0261748 174.690503,31.3796484 178.15011,31.3796484 C181.609715,31.3718036 184.112243,29.01833 184.112243,25.2684619 Z" id="XMLID_115_" fill="#0A0A0A"></path>
            <path d="M208.823716,31.1207664 C210.879083,31.1207664 212.628498,30.3205854 213.632647,29.2144528 L219.641849,32.666214 C217.186392,36.0709059 213.483594,37.8203214 208.721732,37.8203214 C200.155087,37.8203214 194.851928,32.0621559 194.851928,24.6016445 C194.851928,17.1411329 200.257072,11.3829675 208.172588,11.3829675 C215.484046,11.3829675 220.88919,17.0391491 220.88919,24.6016445 C220.88919,25.6528626 220.787207,26.6570113 220.591083,27.6062457 L202.814513,27.6062457 C203.771592,30.2186015 206.070152,31.1207664 208.823716,31.1207664 Z M213.436524,22.0049785 C212.636343,19.102361 210.384853,18.0511428 208.125518,18.0511428 C205.269971,18.0511428 203.371502,19.4553821 202.66546,22.0049785 L213.436524,22.0049785 Z" id="XMLID_118_" fill="#0A0A0A"></path>
            <path d="M239.458097,12.2459078 L239.458097,20.7576375 C236.351513,20.2555632 231.942672,21.5107491 231.942672,26.4687335 L231.942672,37.7889417 L224.427246,37.7889417 L224.427246,12.7479822 L231.942672,12.7479822 L231.942672,17.2038923 C232.946821,13.8462699 236.304443,12.2459078 239.458097,12.2459078 Z" id="XMLID_121_" fill="#0A0A0A"></path>
        </g>
    </g>
</svg>