<?xml version="1.0" encoding="UTF-8"?>
<svg width="366px" height="239px" viewBox="0 0 366 239" version="1.1" xmlns="http://www.w3.org/2000/svg" xmlns:xlink="http://www.w3.org/1999/xlink">
    <!-- Generator: Sketch 56.3 (81716) - https://sketch.com -->
    <title>logo_blexin</title>
    <desc>Created with Sketch.</desc>
    <g id="logo_blexin" stroke="none" stroke-width="1" fill="none" fill-rule="evenodd">
        <g id="blexin_cropped" transform="translate(53.000000, 86.000000)" fill-rule="nonzero">
            <path d="M249.350554,47.3948339 C248.199262,46.2435424 247.623616,44.804428 247.623616,43.1734317 C247.623616,41.5424354 248.199262,40.103321 249.350554,38.9520295 C250.501845,37.800738 251.845018,37.2250923 253.476015,37.2250923 C255.107011,37.2250923 256.450185,37.800738 257.601476,38.9520295 C258.752768,40.103321 259.328413,41.5424354 259.328413,43.1734317 C259.328413,44.804428 258.752768,46.2435424 257.601476,47.3948339 C256.450185,48.5461255 255.107011,49.1217712 253.476015,49.1217712 C251.749077,49.1217712 250.405904,48.5461255 249.350554,47.3948339 Z" id="Path" fill="#E8E100"></path>
            <polyline id="Path" fill="#E8E100" points="44.3247232 48.8339483 0 48.8339483 0 37.5129151 44.3247232 37.5129151"></polyline>
            <path d="M74.2583026,49.8892989 C72.9151292,49.8892989 71.6678967,49.697417 70.5166052,49.4095941 C69.4612546,49.1217712 68.4059041,48.7380074 67.5424354,48.2583026 C66.6789668,47.7785978 65.8154982,47.202952 65.1439114,46.5313653 C64.4723247,45.8597786 63.800738,45.1881919 63.2250923,44.5166052 L63.2250923,48.9298893 L50.3690037,48.9298893 L50.3690037,0 L63.2250923,0 L63.1291513,17.5571956 C63.800738,16.7896679 64.4723247,16.1180812 65.1439114,15.4464945 C65.8154982,14.7749077 66.6789668,14.199262 67.5424354,13.6236162 C68.4059041,13.1439114 69.3653137,12.6642066 70.5166052,12.3763838 C71.5719557,12.0885609 72.8191882,11.896679 74.1623616,11.896679 C76.2730627,11.896679 78.3837638,12.3763838 80.302583,13.2398524 C82.2214022,14.103321 83.9483395,15.3505535 85.3874539,16.9815498 C86.8265683,18.6125461 88.0738007,20.5313653 88.9372694,22.9298893 C89.800738,25.2324723 90.2804428,27.9188192 90.2804428,30.797048 L90.2804428,30.8929889 C90.2804428,33.8671587 89.800738,36.4575646 88.9372694,38.8560886 C88.0738007,41.1586716 86.9225092,43.1734317 85.4833948,44.804428 C84.0442804,46.4354244 82.3173432,47.6826568 80.398524,48.5461255 C78.3837638,49.5055351 76.3690037,49.8892989 74.2583026,49.8892989 Z M70.2287823,39.2398524 C72.3394834,39.2398524 74.0664207,38.4723247 75.5055351,36.9372694 C76.9446494,35.402214 77.6162362,33.3874539 77.6162362,30.9889299 L77.6162362,30.8929889 C77.6162362,28.4944649 76.9446494,26.4797048 75.5055351,24.9446494 C74.0664207,23.4095941 72.3394834,22.6420664 70.2287823,22.6420664 C69.1734317,22.6420664 68.2140221,22.8339483 67.3505535,23.2177122 C66.4870849,23.601476 65.7195572,24.1771218 65.0479705,24.9446494 C64.3763838,25.7121771 63.896679,26.5756458 63.5129151,27.5350554 C63.1291513,28.4944649 62.9372694,29.6457565 62.9372694,30.797048 L62.9372694,30.8929889 C62.9372694,32.1402214 63.1291513,33.195572 63.5129151,34.2509225 C63.896679,35.2103321 64.3763838,36.1697417 65.0479705,36.8413284 C65.7195572,37.6088561 66.4870849,38.1845018 67.3505535,38.5682657 C68.3099631,39.0479705 69.2693727,39.2398524 70.2287823,39.2398524 Z" id="Shape" fill="#000000"></path>
            <polygon id="Path" fill="#000000" points="92.8708487 0.0959409594 105.726937 0.0959409594 105.726937 49.0258303 92.8708487 49.0258303"></polygon>
            <path d="M127.601476,49.9852399 C124.723247,49.9852399 122.132841,49.5055351 119.734317,48.6420664 C117.335793,47.6826568 115.321033,46.4354244 113.594096,44.804428 C111.867159,43.1734317 110.523985,41.1586716 109.564576,38.8560886 C108.605166,36.5535055 108.125461,33.9630996 108.125461,31.1808118 L108.125461,31.0848708 C108.125461,28.4944649 108.605166,26 109.468635,23.697417 C110.332103,21.3948339 111.579336,19.3800738 113.306273,17.6531365 C114.937269,15.9261993 116.856089,14.5830258 119.062731,13.6236162 C121.269373,12.6642066 123.763838,12.1845018 126.450185,12.1845018 C129.616236,12.1845018 132.302583,12.7601476 134.605166,13.8154982 C136.907749,14.8708487 138.826568,16.3099631 140.265683,18.1328413 C141.800738,19.9557196 142.856089,22.0664207 143.623616,24.4649446 C144.391144,26.8634686 144.774908,29.3579336 144.774908,32.0442804 C144.774908,32.4280443 144.774908,32.9077491 144.774908,33.2915129 C144.774908,33.7712177 144.774908,34.1549815 144.678967,34.6346863 L120.405904,34.6346863 C120.885609,36.6494465 121.845018,38.1845018 123.188192,39.1439114 C124.531365,40.103321 126.258303,40.5830258 128.273063,40.5830258 C129.808118,40.5830258 131.151292,40.295203 132.494465,39.7195572 C133.741697,39.1439114 135.084871,38.1845018 136.332103,36.9372694 L143.335793,42.7896679 C141.608856,44.99631 139.402214,46.8191882 136.907749,48.1623616 C134.317343,49.3136531 131.247232,49.9852399 127.601476,49.9852399 Z M132.878229,28.0147601 C132.686347,26 132.01476,24.3690037 130.863469,23.2177122 C129.712177,22.0664207 128.273063,21.3948339 126.546125,21.3948339 C124.819188,21.3948339 123.476015,21.9704797 122.420664,23.2177122 C121.365314,24.3690037 120.597786,26 120.309963,28.0147601 L132.878229,28.0147601 Z" id="Shape" fill="#000000"></path>
            <polygon id="Path" fill="#000000" points="156.479705 30.797048 144.487085 12.8560886 158.206642 12.8560886 163.579336 21.7785978 168.95203 12.8560886 182.479705 12.8560886 170.583026 30.797048 182.767528 49.2177122 169.04797 49.2177122 163.387454 39.9114391 157.726937 49.2177122 144.295203 49.2177122"></polygon>
            <polygon id="Path" fill="#000000" points="186.892989 12.8560886 199.749077 12.8560886 199.749077 49.1217712 186.892989 49.1217712"></polygon>
            <path d="M205.793358,12.8560886 L218.553506,12.8560886 L218.553506,17.9409594 C219.129151,17.1734317 219.800738,16.4059041 220.472325,15.7343173 C221.143911,15.0627306 222.00738,14.3911439 222.870849,13.8154982 C223.734317,13.2398524 224.693727,12.8560886 225.749077,12.4723247 C226.804428,12.0885609 227.95572,11.9926199 229.298893,11.9926199 C233.232472,11.9926199 236.302583,13.1439114 238.413284,15.5424354 C240.619926,17.9409594 241.675277,21.202952 241.675277,25.3284133 L241.675277,49.1217712 L228.819188,49.1217712 L228.819188,29.4538745 C228.819188,27.4391144 228.339483,25.904059 227.476015,24.8487085 C226.516605,23.7933579 225.365314,23.3136531 223.830258,23.3136531 C222.295203,23.3136531 221.04797,23.7933579 219.99262,24.8487085 C219.03321,25.904059 218.457565,27.4391144 218.457565,29.4538745 L218.457565,49.1217712 L205.601476,49.1217712 L205.601476,12.8560886 L205.793358,12.8560886 Z" id="Path" fill="#000000"></path>
            <g id="Group" transform="translate(96.900369, 57.564576)" fill="#000000">
                <polygon id="Path" points="0.191881919 1.24723247 1.63099631 1.24723247 1.63099631 8.82656827 0.191881919 8.82656827"></polygon>
                <polygon id="Path" points="5.18081181 2.49446494 2.68634686 2.49446494 2.68634686 1.34317343 9.11439114 1.34317343 9.11439114 2.49446494 6.6199262 2.49446494 6.6199262 8.92250923 5.18081181 8.92250923 5.18081181 2.49446494"></polygon>
                <path d="M11.4169742,1.05535055 C11.6088561,1.24723247 11.704797,1.43911439 11.704797,1.72693727 C11.704797,1.82287823 11.704797,2.01476015 11.6088561,2.11070111 C11.6088561,2.20664207 11.5129151,2.39852399 11.4169742,2.68634686 L10.8413284,4.22140221 L9.97785978,4.22140221 L10.4575646,2.5904059 C10.2656827,2.49446494 10.1697417,2.39852399 10.0738007,2.30258303 C9.97785978,2.20664207 9.97785978,2.01476015 9.97785978,1.82287823 C9.97785978,1.53505535 10.0738007,1.34317343 10.2656827,1.15129151 C10.4575646,0.959409594 10.6494465,0.863468635 10.9372694,0.863468635 C11.0332103,0.767527675 11.2250923,0.863468635 11.4169742,1.05535055 Z" id="Path"></path>
                <path d="M13.9114391,8.73062731 C13.3357934,8.53874539 12.9520295,8.34686347 12.5682657,8.05904059 L13.0479705,7.00369004 C13.3357934,7.29151292 13.7195572,7.48339483 14.199262,7.57933579 C14.6789668,7.77121771 15.0627306,7.77121771 15.5424354,7.77121771 C16.1180812,7.77121771 16.501845,7.67527675 16.7896679,7.48339483 C17.0774908,7.29151292 17.1734317,7.099631 17.1734317,6.81180812 C17.1734317,6.6199262 17.0774908,6.42804428 16.9815498,6.23616236 C16.7896679,6.1402214 16.597786,5.94833948 16.4059041,5.94833948 C16.2140221,5.85239852 15.8302583,5.75645756 15.4464945,5.66051661 C14.8708487,5.56457565 14.3911439,5.37269373 14.0073801,5.27675277 C13.6236162,5.18081181 13.3357934,4.89298893 13.0479705,4.60516605 C12.7601476,4.31734317 12.6642066,3.93357934 12.6642066,3.45387454 C12.6642066,3.0701107 12.7601476,2.68634686 13.0479705,2.30258303 C13.2398524,1.91881919 13.6236162,1.72693727 14.103321,1.43911439 C14.5830258,1.24723247 15.1586716,1.15129151 15.8302583,1.15129151 C16.3099631,1.15129151 16.7896679,1.24723247 17.1734317,1.34317343 C17.6531365,1.43911439 18.0369004,1.63099631 18.3247232,1.82287823 L17.8450185,2.87822878 C17.5571956,2.68634686 17.1734317,2.49446494 16.7896679,2.39852399 C16.4059041,2.30258303 16.1180812,2.20664207 15.7343173,2.20664207 C15.1586716,2.20664207 14.7749077,2.30258303 14.4870849,2.49446494 C14.199262,2.68634686 14.103321,2.97416974 14.103321,3.26199262 C14.103321,3.45387454 14.199262,3.64575646 14.295203,3.83763838 C14.4870849,3.93357934 14.6789668,4.12546125 14.8708487,4.12546125 C15.0627306,4.22140221 15.4464945,4.31734317 15.8302583,4.41328413 C16.4059041,4.50922509 16.8856089,4.70110701 17.2693727,4.79704797 C17.6531365,4.89298893 17.9409594,5.18081181 18.2287823,5.46863469 C18.5166052,5.75645756 18.6125461,6.1402214 18.6125461,6.6199262 C18.6125461,7.00369004 18.5166052,7.38745387 18.2287823,7.77121771 C18.0369004,8.15498155 17.6531365,8.34686347 17.1734317,8.63468635 C16.6937269,8.82656827 16.1180812,8.92250923 15.4464945,8.92250923 C15.0627306,9.01845018 14.4870849,8.92250923 13.9114391,8.73062731 Z" id="Path"></path>
                <polygon id="Path" points="28.7822878 7.77121771 28.7822878 8.92250923 23.0258303 8.92250923 23.0258303 1.34317343 28.5904059 1.34317343 28.5904059 2.49446494 24.4649446 2.49446494 24.4649446 4.50922509 28.1107011 4.50922509 28.1107011 5.66051661 24.4649446 5.66051661 24.4649446 7.77121771"></polygon>
                <path d="M35.3062731,7.099631 L31.4686347,7.099631 L30.701107,8.82656827 L29.2619926,8.82656827 L32.7158672,1.24723247 L34.1549815,1.24723247 L37.6088561,8.82656827 L36.1697417,8.82656827 L35.3062731,7.099631 Z M34.8265683,6.04428044 L33.3874539,2.68634686 L31.9483395,6.04428044 L34.8265683,6.04428044 Z" id="Shape"></path>
                <path d="M39.2398524,8.73062731 C38.6642066,8.53874539 38.2804428,8.34686347 37.896679,8.05904059 L38.3763838,7.00369004 C38.6642066,7.29151292 39.0479705,7.48339483 39.5276753,7.57933579 C40.0073801,7.77121771 40.3911439,7.77121771 40.8708487,7.77121771 C41.4464945,7.77121771 41.8302583,7.67527675 42.1180812,7.48339483 C42.4059041,7.29151292 42.501845,7.099631 42.501845,6.81180812 C42.501845,6.6199262 42.4059041,6.42804428 42.3099631,6.23616236 C42.1180812,6.1402214 41.9261993,5.94833948 41.7343173,5.94833948 C41.5424354,5.85239852 41.1586716,5.75645756 40.7749077,5.66051661 C40.199262,5.56457565 39.7195572,5.37269373 39.3357934,5.27675277 C38.9520295,5.18081181 38.6642066,4.89298893 38.3763838,4.60516605 C38.0885609,4.31734317 37.9926199,3.93357934 37.9926199,3.45387454 C37.9926199,3.0701107 38.0885609,2.68634686 38.3763838,2.30258303 C38.5682657,1.91881919 38.9520295,1.72693727 39.4317343,1.43911439 C39.9114391,1.24723247 40.4870849,1.15129151 41.1586716,1.15129151 C41.6383764,1.15129151 42.1180812,1.24723247 42.501845,1.34317343 C42.9815498,1.43911439 43.3653137,1.63099631 43.6531365,1.82287823 L43.1734317,2.87822878 C42.8856089,2.68634686 42.501845,2.49446494 42.1180812,2.39852399 C41.7343173,2.30258303 41.4464945,2.20664207 41.0627306,2.20664207 C40.4870849,2.20664207 40.103321,2.30258303 39.8154982,2.49446494 C39.5276753,2.68634686 39.4317343,2.97416974 39.4317343,3.26199262 C39.4317343,3.45387454 39.5276753,3.64575646 39.6236162,3.83763838 C39.8154982,3.93357934 40.0073801,4.12546125 40.199262,4.12546125 C40.3911439,4.22140221 40.7749077,4.31734317 41.1586716,4.41328413 C41.7343173,4.50922509 42.2140221,4.70110701 42.597786,4.79704797 C42.9815498,4.89298893 43.2693727,5.18081181 43.5571956,5.46863469 C43.8450185,5.75645756 43.9409594,6.1402214 43.9409594,6.6199262 C43.9409594,7.00369004 43.8450185,7.38745387 43.5571956,7.77121771 C43.3653137,8.15498155 42.9815498,8.34686347 42.501845,8.63468635 C42.0221402,8.82656827 41.4464945,8.92250923 40.7749077,8.92250923 C40.295203,9.01845018 39.7195572,8.92250923 39.2398524,8.73062731 Z" id="Path"></path>
                <polygon id="Path" points="48.5461255 6.23616236 48.5461255 8.92250923 47.1070111 8.92250923 47.1070111 6.23616236 44.1328413 1.24723247 45.6678967 1.24723247 47.8745387 4.98892989 50.0811808 1.24723247 51.5202952 1.24723247"></polygon>
                <polygon id="Path" points="66.5830258 1.24723247 64.0885609 8.82656827 62.5535055 8.82656827 60.6346863 3.16605166 58.7158672 8.82656827 57.1808118 8.82656827 54.6863469 1.24723247 56.1254613 1.24723247 58.0442804 7.00369004 60.0590406 1.24723247 61.402214 1.24723247 63.3210332 7.099631 65.2398524 1.24723247 66.5830258 1.24723247"></polygon>
                <polygon id="Path" points="67.7343173 1.24723247 69.1734317 1.24723247 69.1734317 8.82656827 67.7343173 8.82656827"></polygon>
                <polygon id="Path" points="72.7232472 2.49446494 70.2287823 2.49446494 70.2287823 1.34317343 76.6568266 1.34317343 76.6568266 2.49446494 74.1623616 2.49446494 74.1623616 8.92250923 72.7232472 8.92250923"></polygon>
                <polygon id="Path" points="84.5239852 1.24723247 84.5239852 8.82656827 83.0848708 8.82656827 83.0848708 5.66051661 79.1512915 5.66051661 79.1512915 8.92250923 77.7121771 8.92250923 77.7121771 1.34317343 79.1512915 1.34317343 79.1512915 4.50922509 83.0848708 4.50922509 83.0848708 1.34317343 84.5239852 1.34317343"></polygon>
                <path d="M90.3763838,8.15498155 C89.800738,7.57933579 89.5129151,6.71586716 89.5129151,5.66051661 L89.5129151,1.34317343 L90.9520295,1.34317343 L90.9520295,5.56457565 C90.9520295,7.099631 91.6236162,7.77121771 92.8708487,7.77121771 C94.1180812,7.77121771 94.7896679,7.00369004 94.7896679,5.56457565 L94.7896679,1.34317343 L96.2287823,1.34317343 L96.2287823,5.66051661 C96.2287823,6.71586716 95.9409594,7.57933579 95.3653137,8.15498155 C94.7896679,8.73062731 93.9261993,9.01845018 92.8708487,9.01845018 C91.7195572,9.01845018 90.9520295,8.73062731 90.3763838,8.15498155 Z" id="Path"></path>
                <path d="M98.8191882,8.73062731 C98.2435424,8.53874539 97.8597786,8.34686347 97.4760148,8.05904059 L97.9557196,7.00369004 C98.2435424,7.29151292 98.6273063,7.48339483 99.1070111,7.57933579 C99.5867159,7.77121771 99.9704797,7.77121771 100.450185,7.77121771 C101.02583,7.77121771 101.409594,7.67527675 101.697417,7.48339483 C101.98524,7.29151292 102.081181,7.099631 102.081181,6.81180812 C102.081181,6.6199262 101.98524,6.42804428 101.889299,6.23616236 C101.697417,6.1402214 101.505535,5.94833948 101.313653,5.94833948 C101.121771,5.85239852 100.738007,5.75645756 100.354244,5.66051661 C99.7785978,5.56457565 99.298893,5.37269373 98.9151292,5.27675277 C98.5313653,5.18081181 98.2435424,4.89298893 97.9557196,4.60516605 C97.6678967,4.31734317 97.5719557,3.93357934 97.5719557,3.45387454 C97.5719557,3.0701107 97.6678967,2.68634686 97.9557196,2.30258303 C98.1476015,1.91881919 98.5313653,1.72693727 99.0110701,1.43911439 C99.4907749,1.24723247 100.066421,1.15129151 100.738007,1.15129151 C101.217712,1.15129151 101.697417,1.24723247 102.081181,1.34317343 C102.560886,1.43911439 102.944649,1.63099631 103.232472,1.82287823 L102.752768,2.87822878 C102.464945,2.68634686 102.081181,2.49446494 101.697417,2.39852399 C101.313653,2.30258303 101.02583,2.20664207 100.642066,2.20664207 C100.066421,2.20664207 99.6826568,2.30258303 99.3948339,2.49446494 C99.1070111,2.68634686 99.0110701,2.97416974 99.0110701,3.26199262 C99.0110701,3.45387454 99.1070111,3.64575646 99.202952,3.83763838 C99.3948339,3.93357934 99.5867159,4.12546125 99.7785978,4.12546125 C99.9704797,4.22140221 100.354244,4.31734317 100.738007,4.41328413 C101.313653,4.50922509 101.793358,4.70110701 102.177122,4.79704797 C102.560886,4.89298893 102.848708,5.18081181 103.136531,5.46863469 C103.424354,5.75645756 103.520295,6.1402214 103.520295,6.6199262 C103.520295,7.00369004 103.424354,7.38745387 103.136531,7.77121771 C102.944649,8.15498155 102.560886,8.34686347 102.081181,8.63468635 C101.601476,8.82656827 101.02583,8.92250923 100.354244,8.92250923 C99.8745387,9.01845018 99.298893,8.92250923 98.8191882,8.73062731 Z" id="Path"></path>
            </g>
        </g>
    </g>
</svg>