<?xml version="1.0" encoding="UTF-8"?>
<svg width="366px" height="239px" viewBox="0 0 366 239" version="1.1" xmlns="http://www.w3.org/2000/svg" xmlns:xlink="http://www.w3.org/1999/xlink">
    <!-- Generator: Sketch 56.3 (81716) - https://sketch.com -->
    <title>logo_hotels</title>
    <desc>Created with Sketch.</desc>
    <g id="logo_hotels" stroke="none" stroke-width="1" fill="none" fill-rule="evenodd">
        <g id="Hotels_Logo_Vertical_RED_TM" transform="translate(73.000000, 55.000000)" fill="#D32E2E">
            <path d="M211.515388,101.172575 C211.258278,101.172575 211.001169,100.958317 211.001169,100.658356 L211.001169,97.2730814 L210.015582,97.2730814 C209.758473,97.2730814 209.587067,97.1016751 209.587067,96.8445656 C209.587067,96.6303078 209.801325,96.4160499 210.015582,96.4160499 L212.972341,96.4160499 C213.186599,96.4160499 213.400857,96.6303078 213.400857,96.8445656 C213.400857,97.1016751 213.229451,97.2730814 212.972341,97.2730814 L211.986755,97.2730814 L211.986755,100.658356 C212.029607,100.958317 211.815349,101.172575 211.515388,101.172575 L211.515388,101.172575 Z M218.800156,101.172575 C218.543046,101.172575 218.285937,100.958317 218.285937,100.658356 L218.285937,97.7444488 L217.00039,101.001169 C216.957538,101.129723 216.786132,101.215427 216.657577,101.172575 C216.571874,101.129723 216.529022,101.086872 216.486171,101.001169 L215.200623,97.7444488 L215.200623,100.701208 C215.200623,100.958317 214.986365,101.215427 214.729256,101.215427 C214.472146,101.215427 214.215037,101.001169 214.215037,100.701208 L214.215037,97.1873783 C214.215037,96.7588625 214.55785,96.3731983 215.029217,96.3731983 C215.37203,96.3731983 215.671991,96.5874562 215.800545,96.8874172 L216.74328,99.3728087 L217.686015,96.8874172 C217.81457,96.5874562 218.114531,96.3731983 218.457343,96.3731983 C218.928711,96.3731983 219.271523,96.7588625 219.271523,97.1873783 C219.271523,97.1873783 219.271523,97.1873783 219.271523,97.1873783 L219.271523,100.701208 C219.271523,100.958317 219.057265,101.215427 218.800156,101.172575 L218.800156,101.172575 Z" id="Shape"></path>
            <path d="M22.3685236,126.2836 L22.3685236,114.285158 L4.88507986,114.285158 L4.88507986,126.2836 C4.88507986,127.569147 3.85664199,128.640436 2.57109466,128.640436 C1.24269575,128.640436 0.171406311,127.569147 0.171406311,126.2836 L0.171406311,98.9014414 C0.171406311,97.615894 1.24269575,96.5446046 2.52824309,96.5446046 C3.85664199,96.5446046 4.88507986,97.615894 4.88507986,98.9014414 L4.88507986,110.042852 L22.4113751,110.042852 L22.4113751,98.9014414 C22.3685236,97.5730425 23.3541099,96.501753 24.6825088,96.4160499 C26.0109077,96.3731983 27.0821971,97.3587846 27.1679003,98.6871835 C27.1679003,98.7728866 27.1679003,98.8157382 27.1679003,98.9014414 L27.1679003,126.2836 C27.1250487,127.611998 26.0109077,128.597585 24.6825088,128.554733 C23.3969614,128.511882 22.4113751,127.526295 22.3685236,126.2836 Z" id="Path" fill-rule="nonzero"></path>
            <path d="M30.4674718,116.941956 C30.4674718,110.342813 34.9240358,104.943514 42.0373977,104.943514 C49.1507596,104.943514 53.6073237,110.342813 53.6073237,116.941956 C53.6073237,123.541099 49.1936112,128.983249 42.0373977,128.983249 C34.8811843,128.983249 30.4674718,123.58395 30.4674718,116.941956 Z M49.1507596,116.941956 C49.1507596,112.613946 46.6225166,108.714453 42.0373977,108.714453 C37.4522789,108.714453 34.9240358,112.613946 34.9240358,116.941956 C34.9240358,121.269965 37.4951305,125.21231 42.0373977,125.21231 C46.579665,125.21231 49.1507596,121.312817 49.1507596,116.941956 Z" id="Shape" fill-rule="nonzero"></path>
            <path d="M78.4612388,104.943514 C85.3603428,104.943514 89.602649,110.299961 89.602649,116.342034 C89.602649,117.627581 88.7027659,118.398909 87.0744059,118.398909 L71.4764316,118.398909 C71.8192443,122.298403 74.6474484,125.512271 79.2754188,125.512271 C81.3322945,125.512271 83.3034671,124.869497 84.9746786,123.669653 C85.2746397,123.498247 85.5746007,123.412544 85.9174133,123.455395 C86.860148,123.455395 87.6314764,124.226724 87.6314764,125.169459 C87.6314764,125.726529 87.374367,126.2836 86.860148,126.583561 C84.5033113,128.254772 81.7179587,129.111804 78.846903,129.068952 C72.0335021,129.068952 66.977016,124.226724 66.977016,117.027659 C66.977016,110.299961 71.7763927,104.943514 78.4612388,104.943514 Z M71.4335801,115.270744 L85.446046,115.270744 C85.3603428,112.228282 83.3034671,108.457343 78.4612388,108.457343 C73.8332684,108.457343 71.6906895,112.142579 71.4335801,115.270744 Z" id="Shape" fill-rule="nonzero"></path>
            <path d="M92.34515,126.540709 L92.34515,98.6871835 C92.34515,97.4873393 93.2878847,96.5446046 94.4877289,96.5446046 C95.687573,96.5446046 96.6303078,97.4873393 96.6303078,98.6871835 L96.6303078,126.540709 C96.6303078,127.740553 95.687573,128.683288 94.4877289,128.683288 C93.2878847,128.683288 92.34515,127.697702 92.34515,126.540709 Z" id="Path" fill-rule="nonzero"></path>
            <path d="M99.3299571,124.912349 C99.3299571,123.883911 100.101286,123.069731 101.129723,123.069731 C101.129723,123.069731 101.172575,123.069731 101.172575,123.069731 C101.558239,123.069731 101.901052,123.198286 102.201013,123.412544 C104.086482,124.783794 106.314764,125.555123 108.671601,125.597974 C111.885469,125.597974 113.599533,124.269575 113.599533,122.341254 C113.599533,120.070121 110.985586,119.298792 108.028827,118.656019 C104.129334,117.756136 99.5870666,116.727698 99.5870666,111.756915 C99.5870666,108.114531 102.715232,104.986365 108.328788,104.986365 C111.071289,104.943514 113.728087,105.757694 115.956369,107.343202 C116.427737,107.686015 116.684846,108.200234 116.727698,108.757304 C116.727698,109.742891 115.956369,110.514219 114.970783,110.514219 C114.62797,110.514219 114.285158,110.385664 114.028048,110.171406 C112.399688,109.014414 110.385664,108.37164 108.37164,108.414492 C105.457733,108.414492 103.657966,109.571484 103.657966,111.414102 C103.657966,113.428126 106.143358,114.0709 108.971562,114.756525 C112.956759,115.656408 117.713284,116.727698 117.713284,121.998442 C117.713284,125.940787 114.499416,129.026101 108.457343,129.026101 C105.286326,129.026101 102.415271,128.211921 100.101286,126.455006 C99.6299182,126.069342 99.3299571,125.512271 99.3299571,124.912349 Z" id="Path" fill-rule="nonzero"></path>
            <path d="M123.369692,123.02688 C124.998052,123.02688 126.326451,124.355279 126.369303,125.983638 C126.326451,127.611998 124.998052,128.940397 123.369692,128.983249 C121.741332,128.940397 120.412933,127.611998 120.412933,125.983638 C120.412933,124.355279 121.741332,123.02688 123.369692,123.02688 Z" id="Path" fill-rule="nonzero"></path>
            <path d="M148.523568,116.941956 C148.523568,110.342813 152.980132,104.943514 160.093494,104.943514 C167.206856,104.943514 171.66342,110.342813 171.66342,116.941956 C171.66342,123.541099 167.249708,128.983249 160.093494,128.983249 C152.937281,128.983249 148.523568,123.58395 148.523568,116.941956 Z M167.206856,116.941956 C167.206856,112.613946 164.678613,108.714453 160.093494,108.714453 C155.508376,108.714453 152.980132,112.613946 152.980132,116.941956 C152.980132,121.269965 155.551227,125.21231 160.093494,125.21231 C164.635762,125.21231 167.206856,121.312817 167.206856,116.941956 Z" id="Shape" fill-rule="nonzero"></path>
            <path d="M207.015972,111.842618 L207.015972,126.497857 C207.015972,127.697702 206.073237,128.640436 204.873393,128.640436 C204.873393,128.640436 204.830541,128.640436 204.830541,128.640436 C203.673549,128.640436 202.730814,127.65485 202.730814,126.497857 C202.730814,126.497857 202.730814,126.497857 202.730814,126.497857 L202.730814,113.128165 C202.730814,110.471367 201.53097,109.18582 198.745617,109.18582 C196.431632,109.18582 194.117647,111.799766 193.046358,113.470978 L193.046358,126.497857 C193.046358,127.697702 192.103623,128.640436 190.903779,128.640436 C189.703935,128.640436 188.7612,127.697702 188.7612,126.497857 L188.7612,113.128165 C188.7612,110.471367 187.604207,109.18582 184.733152,109.18582 C182.504869,109.18582 180.276587,111.971173 179.119595,113.642384 L179.119595,126.540709 C179.119595,127.740553 178.17686,128.683288 176.977016,128.683288 C175.777172,128.683288 174.834437,127.740553 174.834437,126.540709 L174.834437,107.428905 C174.834437,106.271913 175.73432,105.286326 176.934164,105.286326 C176.934164,105.286326 176.934164,105.286326 176.934164,105.286326 C178.134009,105.286326 179.076743,106.18621 179.119595,107.386054 C179.119595,107.386054 179.119595,107.428905 179.119595,107.428905 L179.119595,108.757304 C180.06233,107.343202 183.104792,104.986365 186.532918,104.986365 C189.961044,104.986365 192.01792,106.786132 192.746397,109.271523 C194.503311,106.657577 197.417219,105.072069 200.545384,104.986365 C204.78769,104.943514 207.015972,107.257499 207.015972,111.842618 Z" id="Path" fill-rule="nonzero"></path>
            <path d="M139.139073,104.943514 C142.395793,104.943514 144.709778,105.971952 146.423841,107.600312 C146.809505,107.985976 147.066615,108.457343 147.066615,109.014414 C147.066615,110.085703 146.252435,110.942735 145.181145,110.942735 C144.709778,110.942735 144.238411,110.771328 143.895598,110.471367 C142.652902,109.271523 140.981691,108.671601 139.310479,108.714453 C134.811063,108.714453 131.897156,112.18543 131.897156,116.941956 C131.897156,121.698481 134.811063,125.040904 139.310479,125.21231 C142.352941,125.298013 145.395403,123.112583 147.880795,119.213089 C148.180756,118.741722 148.652123,117.841839 148.994936,117.370471 C149.680561,116.470588 150.19478,116.899104 150.580444,117.32762 C151.351772,118.098948 151.351772,119.984418 150.837554,120.927152 C149.851967,122.812622 148.56642,124.569536 146.980912,126.02649 C144.838333,127.997663 142.010129,129.068952 139.096221,129.026101 C132.154266,129.026101 127.440592,123.84106 127.440592,116.984807 C127.440592,110.128555 132.197117,104.943514 139.139073,104.943514 Z" id="Path" fill-rule="nonzero"></path>
            <path d="M70.019478,124.912349 C70.019478,125.726529 67.7054928,127.526295 66.0342813,128.340475 C65.0058434,128.811843 63.8917024,129.068952 62.7775614,128.983249 C59.1780288,128.983249 57.335411,126.926373 57.335411,123.326841 L57.335411,109.228672 L55.1499805,109.228672 C54.1215427,109.271523 53.2216595,108.500195 53.1788079,107.428905 C53.1359564,106.400467 53.9072848,105.500584 54.9785742,105.457733 C55.0214258,105.457733 55.1071289,105.457733 55.1499805,105.457733 L57.335411,105.457733 L57.335411,101.129723 C57.335411,99.9298792 58.2781457,98.9871445 59.4779899,98.9871445 C60.677834,98.9871445 61.6205688,99.9298792 61.6205688,101.129723 L61.6205688,105.500584 L64.6201792,105.500584 C65.6486171,105.457733 66.5485002,106.229061 66.5913518,107.300351 C66.6342034,108.37164 65.862875,109.228672 64.7915855,109.271523 C64.7487339,109.271523 64.6630308,109.271523 64.6201792,109.271523 L61.6205688,109.271523 L61.6205688,122.426958 C61.6205688,124.055317 62.3918972,125.21231 63.8488508,125.21231 C66.462797,125.21231 68.5196728,121.14141 69.6766654,121.14141 C70.833658,121.14141 70.019478,123.84106 70.019478,124.912349 Z" id="Path" fill-rule="nonzero"></path>
            <path d="M113.599533,14.0981691 C113.599533,12.0841449 114.199455,10.1129723 115.356447,8.44176081 C111.928321,9.4273471 109.571484,12.5555123 109.571484,16.1121932 L109.571484,22.5399299 L113.599533,22.7541878 L113.599533,14.0981691 Z" id="Path" fill-rule="nonzero"></path>
            <path d="M109.571484,58.3209973 C109.571484,61.8776782 111.928321,65.0058434 115.356447,65.9914297 C114.199455,64.3202182 113.599533,62.3490456 113.599533,60.3350214 L113.599533,48.2508765 L109.571484,48.2508765 L109.571484,58.3209973 Z" id="Path" fill-rule="nonzero"></path>
            <path d="M119.641605,48.2508765 L115.613557,48.2508765 L115.613557,60.2921698 C115.613557,63.8488508 117.970393,66.977016 121.39852,67.9626023 C120.241527,66.2913907 119.641605,64.3202182 119.641605,62.306194 L119.641605,48.2508765 Z" id="Path" fill-rule="nonzero"></path>
            <path d="M119.641605,12.0841449 C119.641605,10.0701208 120.241527,8.09894819 121.39852,6.42773666 C117.970393,7.41332295 115.613557,10.5414881 115.613557,14.0981691 L115.613557,22.8398909 L119.641605,23.0541488 L119.641605,12.0841449 Z" id="Path" fill-rule="nonzero"></path>
            <path d="M74.3474873,9.51305025 C71.3050253,11.3128165 69.4195559,14.5695364 69.4195559,18.1262174 L69.4195559,56.3069731 C69.4195559,59.8636541 71.3050253,63.120374 74.3474873,64.9201402 C73.7475653,63.4631866 73.4476042,61.9205298 73.4476042,60.3350214 L73.4476042,14.0981691 C73.4047526,12.5555123 73.7475653,10.9700039 74.3474873,9.51305025 Z" id="Path" fill-rule="nonzero"></path>
            <path d="M79.4468251,10.0701208 C79.4468251,8.48461239 79.7467861,6.94195559 80.3467082,5.48500195 C77.3042462,7.28476821 75.4187768,10.5843397 75.4187768,14.0981691 L75.4187768,60.2921698 C75.4187768,64.4916245 78.032723,68.2197117 81.9750682,69.6766654 C80.3467082,67.5769381 79.4468251,64.9629918 79.4468251,62.306194 L79.4468251,10.0701208 Z" id="Path" fill-rule="nonzero"></path>
            <path d="M129.668874,4.07089988 C125.255162,4.07089988 121.655629,7.67043241 121.612778,12.0841449 C121.612778,12.0841449 121.612778,12.0841449 121.612778,12.0841449 L121.612778,25.1538761 L101.558239,24.1682898 L101.558239,10.0701208 C101.558239,4.54226724 97.0588235,0.0428515777 91.53097,0.0428515777 C86.0031165,0.0428515777 81.5037008,4.54226724 81.5037008,10.0701208 L81.5037008,62.306194 C81.5037008,67.8340475 86.0031165,72.3334632 91.53097,72.3334632 C97.0588235,72.3334632 101.558239,67.8340475 101.558239,62.306194 L101.558239,46.2368524 L121.655629,46.2368524 L121.655629,62.306194 C121.655629,66.7627581 125.255162,70.3622906 129.711726,70.3622906 C134.16829,70.3622906 137.767822,66.7627581 137.767822,62.306194 L137.767822,12.0841449 C137.724971,7.67043241 134.125438,4.07089988 129.668874,4.07089988 C129.668874,4.07089988 129.668874,4.07089988 129.668874,4.07089988 Z" id="Path" fill-rule="nonzero"></path>
            <path d="M137.724971,62.306194 C137.724971,66.7627581 134.125438,70.3622906 129.668874,70.3622906 C125.21231,70.3622906 121.612778,66.7627581 121.612778,62.306194 L121.612778,46.2368524 L101.558239,46.2368524 L101.558239,62.306194 C101.558239,67.8340475 97.0588235,72.3334632 91.53097,72.3334632 C86.0031165,72.3334632 81.5037008,67.8340475 81.5037008,62.306194 L81.5037008,10.0701208 C81.5037008,4.54226724 86.0031165,0.0428515777 91.53097,0.0428515777 C97.0588235,0.0428515777 101.558239,4.54226724 101.558239,10.0701208 L101.558239,24.1254383 L121.655629,25.1538761 L121.655629,12.0841449 C121.655629,7.62758083 125.255162,4.07089988 129.711726,4.07089988 C134.16829,4.07089988 137.767822,7.67043241 137.767822,12.0841449 L137.724971,62.306194 Z" id="Path" fill-rule="nonzero"></path>
        </g>
    </g>
</svg>