<?xml version="1.0" encoding="UTF-8"?>
<svg width="366px" height="239px" viewBox="0 0 366 239" version="1.1" xmlns="http://www.w3.org/2000/svg" xmlns:xlink="http://www.w3.org/1999/xlink">
    <!-- Generator: Sketch 56.3 (81716) - https://sketch.com -->
    <title>logo_ng</title>
    <desc>Created with Sketch.</desc>
    <g id="logo_ng" stroke="none" stroke-width="1" fill="none" fill-rule="evenodd">
        <g id="Angular-Roma" transform="translate(113.000000, 45.000000)" fill-rule="nonzero">
            <g id="Group">
                <polygon id="Path" fill="#DD0932" points="69.6212121 0.151515152 69.6212121 0.151515152 69.6212121 0.151515152 0.227272727 24.9242424 10.8333333 116.666667 69.6212121 149.318182 69.6212121 149.318182 69.6212121 149.318182 128.484848 116.666667 139.090909 24.9242424"></polygon>
                <polygon id="Path" fill="#C31631" points="69.6212121 0.151515152 69.6212121 16.6666667 69.6212121 16.5909091 69.6212121 92.1969697 69.6212121 92.1969697 69.6212121 149.318182 69.6212121 149.318182 128.484848 116.666667 139.090909 24.9242424"></polygon>
            </g>
            <g id="Group" transform="translate(18.939394, 36.363636)" fill="#FFFFFF">
                <path d="M70.9848485,61.2121212 C71.1363636,59.469697 70.6060606,57.7272727 70.7575758,55.9848485 C70.9090909,54.469697 71.7424242,52.9545455 73.7878788,53.1060606 C74.7727273,53.1818182 75.9848485,54.2424242 76.2121212,55.2272727 C76.4393939,56.4393939 76.5151515,57.6515152 76.4393939,58.8636364 C76.3636364,60.1515152 76.5151515,62.4242424 76.3636364,63.8636364 C77.3484848,63.8636364 78.3333333,63.7878788 79.3181818,63.7121212 C79.0151515,63.1060606 79.0151515,61.5151515 79.0151515,61.0606061 C79.0909091,59.469697 78.7121212,57.8787879 78.7878788,56.2878788 C78.8636364,54.8484848 79.6212121,53.5606061 81.2878788,53.7121212 C82.1212121,53.7878788 83.1060606,54.7727273 83.2575758,55.6818182 C83.4848485,56.8181818 83.4848485,57.8787879 83.4090909,59.0151515 C83.3333333,60.1515152 83.4090909,62.1969697 83.3333333,63.4848485 C84.1666667,63.4090909 84.9242424,63.4090909 85.6818182,63.3333333 C85.6060606,62.5757576 85.6060606,61.5909091 85.6060606,61.2878788 C85.6818182,59.6969697 85.3787879,58.1818182 85.4545455,56.6666667 C85.530303,55.3030303 86.0606061,54.0151515 87.2727273,54.0909091 C87.8787879,54.1666667 88.5606061,55.0757576 88.7121212,55.9848485 C88.8636364,57.0454545 88.8636364,58.1818182 88.8636364,59.2424242 C88.7878788,60.2272727 88.8636364,61.8181818 88.8636364,63.030303 C89.469697,62.9545455 90.1515152,62.9545455 90.6818182,62.8787879 C90.530303,62.2727273 90.530303,61.0606061 90.530303,60.6818182 C90.6060606,59.3181818 90.3787879,57.9545455 90.4545455,56.6666667 C90.530303,55.4545455 90.9090909,54.3181818 91.8939394,54.469697 C92.3484848,54.5454545 92.9545455,55.3787879 93.030303,56.1363636 C93.1818182,57.0454545 93.1818182,58.030303 93.1060606,59.0151515 C93.030303,60 93.1060606,61.6666667 93.030303,62.8030303 C93.4848485,62.7272727 93.9393939,62.7272727 94.3181818,62.6515152 C94.2424242,62.1212121 94.2424242,60.9848485 94.2424242,60.6818182 C94.2424242,59.3939394 94.1666667,58.1818182 94.1666667,56.8939394 C94.1666667,55.7575758 94.469697,54.6969697 95.0757576,54.8484848 C95.3787879,54.9242424 95.7575758,55.6818182 95.8333333,56.3636364 C95.9090909,57.2727273 95.9090909,58.1060606 95.9090909,59.0151515 C95.9090909,59.9242424 95.9090909,61.4393939 95.9090909,62.5 C96.3636364,62.4242424 96.7424242,62.4242424 97.1212121,62.3484848 C97.0454545,61.8181818 97.0454545,60.9090909 97.0454545,60.6818182 C97.0454545,59.5454545 96.969697,58.3333333 96.969697,57.1969697 C96.969697,56.1363636 97.1969697,55.2272727 97.6515152,55.3030303 C97.8787879,55.3787879 98.1818182,56.0606061 98.1818182,56.7424242 C98.2575758,57.5757576 98.2575758,58.4090909 98.2575758,59.1666667 C98.2575758,59.9242424 98.2575758,61.2878788 98.2575758,62.2727273 C98.6363636,62.1969697 99.0151515,62.1969697 99.3181818,62.1969697 C99.3181818,61.6666667 99.3181818,60.9848485 99.3181818,60.6818182 C99.3181818,59.5454545 99.2424242,58.4848485 99.2424242,57.4242424 C99.2424242,56.4393939 99.469697,55.530303 99.8484848,55.6060606 C100.075758,55.6818182 100.30303,56.2878788 100.30303,56.969697 C100.378788,57.7272727 100.378788,58.4848485 100.378788,59.2424242 C100.378788,59.9242424 100.378788,61.1363636 100.378788,62.0454545 C100.833333,61.969697 101.136364,61.969697 101.136364,61.969697 L101.136364,38.8636364 C91.6666667,28.1060606 61.6666667,28.9393939 52.1969697,29.469697 C52.1969697,29.469697 52.4242424,31.3636364 52.9545455,33.4090909 C53.3333333,34.8484848 54.9242424,40.1515152 54.9242424,40.1515152 L60.8333333,40.530303 C62.1969697,40.6060606 62.4242424,41.5151515 62.5757576,42.8787879 L63.6363636,51.3636364 L69.3939394,62.6515152 C69.6212121,63.030303 69.6969697,63.4848485 69.6969697,63.9393939 C70.2272727,63.9393939 70.6818182,63.9393939 71.2121212,63.9393939 C70.9848485,63.3333333 70.9090909,61.6666667 70.9848485,61.2121212 Z M99.9242424,40.7575758 C100.151515,40.8333333 100.454545,41.5151515 100.454545,42.1212121 C100.530303,42.8787879 100.530303,43.7121212 100.530303,44.469697 C100.530303,45.3030303 100.530303,47.1969697 100.530303,48.030303 L99.469697,47.9545455 C99.3181818,47.9545455 99.3181818,46.2878788 99.3181818,45.9090909 C99.3181818,44.7727273 99.2424242,43.7121212 99.2424242,42.5757576 C99.3181818,41.5909091 99.469697,40.6818182 99.9242424,40.7575758 Z M97.6515152,40 C97.9545455,40.0757576 98.3333333,40.7575758 98.4090909,41.4393939 C98.4848485,42.2727273 98.4848485,43.1060606 98.4848485,43.8636364 C98.4848485,44.7727273 98.4848485,46.6666667 98.4090909,47.5757576 C98.4090909,47.7272727 96.969697,47.5 96.969697,47.5 C96.8181818,47.5 96.7424242,45.7575758 96.7424242,45.3787879 C96.7424242,44.2424242 96.6666667,43.030303 96.6666667,41.8939394 C96.7424242,40.9090909 97.0454545,39.9242424 97.6515152,40 Z M93.030303,41.3636364 C93.1060606,40.2272727 93.4848485,39.1666667 94.469697,39.2424242 C94.9242424,39.3181818 95.530303,40.0757576 95.6060606,40.8333333 C95.7575758,41.7424242 95.7575758,42.6515152 95.6818182,43.5606061 C95.6060606,44.5454545 95.8333333,46.4393939 95.6060606,47.4242424 C95.530303,47.8787879 93.4090909,47.5757576 93.4090909,47.5757576 C93.1060606,47.5757576 93.1060606,45.6818182 93.1060606,45.2272727 C93.2575758,43.9393939 93.030303,42.6515152 93.030303,41.3636364 Z M88.9393939,40.7575758 C89.0151515,39.5454545 89.5454545,38.4090909 90.7575758,38.5606061 C91.3636364,38.6363636 92.0454545,39.469697 92.1969697,40.2272727 C92.3484848,41.2121212 92.3484848,42.1212121 92.3484848,43.1060606 C92.2727273,44.1666667 92.3484848,46.3636364 92.1969697,47.4242424 L89.469697,47.3484848 C89.0909091,47.3484848 89.0909091,45.3030303 89.0909091,44.8484848 C89.0909091,43.4848485 88.8636364,42.1212121 88.9393939,40.7575758 Z M84.3181818,40.4545455 C84.3939394,39.2424242 84.9242424,38.1060606 86.1363636,38.2575758 C86.7424242,38.3333333 87.4242424,39.1666667 87.5757576,39.9242424 C87.7272727,40.9090909 87.7272727,41.8181818 87.7272727,42.8030303 C87.6515152,43.8636364 87.7272727,46.0606061 87.5757576,47.1212121 L84.8484848,46.969697 C84.469697,46.969697 84.469697,44.9242424 84.469697,44.469697 C84.5454545,43.1060606 84.2424242,41.8181818 84.3181818,40.4545455 Z M78.4090909,39.5454545 C78.4848485,38.1818182 79.0909091,36.8939394 80.4545455,36.969697 C81.1363636,37.0454545 81.969697,37.9545455 82.1212121,38.8636364 C82.2727273,39.9242424 82.3484848,41.0606061 82.2727273,42.1212121 C82.1969697,43.3333333 82.3484848,45.3787879 82.1969697,46.5909091 L78.8636364,46.5909091 C78.4848485,46.5909091 78.5606061,44.6969697 78.5606061,44.1666667 C78.6363636,42.6515152 78.3333333,41.1363636 78.4090909,39.5454545 Z M75.1515152,41.8181818 C75.0757576,43.030303 75.2272727,45.1515152 75.0757576,46.4393939 C75.0757576,46.6666667 70.530303,46.5151515 70.530303,46.5151515 C69.9242424,46.5151515 69.9242424,44.469697 69.9242424,43.8636364 C70,42.2727273 69.5454545,40.6818182 69.6969697,39.0909091 C69.7727273,37.6515152 70.6818182,36.3636364 72.6515152,36.5151515 C73.6363636,36.5909091 74.7727273,37.5757576 75,38.4848485 C75.2272727,39.6212121 75.2272727,40.7575758 75.1515152,41.8181818 Z" id="Shape"></path>
                <path d="M34.0151515,1.28787879 C33.5606061,0.909090909 32.5757576,0.757575758 31.0606061,0.681818182 C30.6060606,0.606060606 28.6363636,0.53030303 28.4090909,0.606060606 C2.27272727,8.56060606 1.96969697,16.4393939 1.96969697,16.4393939 L0.151515152,63.1060606 C0.984848485,63.1060606 0.606060606,63.1818182 1.36363636,63.1818182 C1.21212121,61.4393939 1.21212121,58.4848485 1.28787879,56.8181818 C1.36363636,55.6060606 2.34848485,54.6212121 2.87878788,55.3030303 C3.33333333,55.8333333 3.56060606,57.1212121 3.48484848,58.1818182 C3.40909091,59.1666667 3.48484848,62.3484848 3.33333333,63.2575758 C3.86363636,63.2575758 4.39393939,63.3333333 4.92424242,63.3333333 C4.77272727,61.5151515 4.77272727,58.3333333 4.84848485,56.6666667 C4.92424242,55.3787879 6.21212121,54.3181818 6.81818182,55 C7.34848485,55.6060606 7.65151515,56.969697 7.57575758,58.1060606 C7.5,59.0909091 7.57575758,62.3484848 7.42424242,63.4090909 C7.95454545,63.4090909 8.48484848,63.4090909 8.93939394,63.4848485 C8.71212121,61.5151515 8.71212121,58.1060606 8.78787879,56.2121212 C8.86363636,54.8484848 10.6060606,53.7121212 11.4393939,54.469697 C12.1969697,55.0757576 12.5,56.5151515 12.4242424,57.7272727 C12.2727273,58.8636364 12.4242424,62.6515152 12.1969697,63.5606061 C13.1060606,63.5606061 13.9393939,63.6363636 14.8484848,63.6363636 C14.6212121,62.5 14.6969697,58.6363636 14.5454545,57.4242424 C14.3939394,56.0606061 14.8484848,54.5454545 15.7575758,53.8636364 C16.7424242,53.030303 18.8636364,54.2424242 18.9393939,55.7575758 C19.0909091,57.8030303 19.0909091,61.6666667 18.7878788,63.7878788 C20.0757576,63.7878788 21.2878788,63.8636364 22.5,63.8636364 C22.2727273,62.5 22.3484848,58.3333333 22.1969697,57.0454545 C22.0454545,55.6060606 22.5,53.8636364 23.4848485,53.1060606 C24.6212121,52.1969697 26.8181818,53.5606061 26.969697,55.2272727 C27.1969697,57.5 27.1212121,61.6666667 26.8181818,64.0151515 C28.1818182,64.0151515 29.6212121,64.0909091 30.9090909,64.0909091 C30.530303,62.9545455 30.6818182,58.1818182 30.4545455,56.7424242 C30.2272727,55.1515152 30.8333333,53.4090909 32.0454545,52.5757576 C33.4090909,51.6666667 36.2121212,53.030303 36.3636364,54.7727273 C36.5909091,57.1969697 36.5151515,61.7424242 36.1363636,64.1666667 C36.1363636,64.1666667 36.1363636,64.1666667 36.1363636,64.1666667 C37.8787879,64.1666667 39.5454545,64.2424242 41.1363636,64.2424242 C41.0606061,61.8939394 40.7575758,56.2121212 41.0606061,53.9393939 C41.2121212,52.9545455 41.8181818,52.1969697 43.1060606,52.0454545 C44.7727273,51.8181818 47.1212121,53.1060606 46.8939394,55.3030303 C46.8181818,55.9848485 46.8939394,56.7424242 46.8939394,57.4242424 C46.8939394,58.1060606 46.8939394,58.7878788 46.8939394,59.6969697 C46.8181818,60.8333333 46.8181818,63.4090909 46.5909091,64.3939394 C48.4090909,64.3939394 50.1515152,64.3939394 51.8181818,64.3939394 C51.2878788,63.4090909 51.5151515,58.1060606 51.2878788,56.5151515 C51.0606061,54.8484848 51.7424242,52.9545455 53.1060606,52.1212121 C54.6969697,51.1363636 57.8787879,52.5757576 58.030303,54.469697 C58.3333333,57.0454545 58.1818182,61.8181818 57.8030303,64.3939394 C57.8030303,64.3939394 57.8030303,64.3939394 57.7272727,64.469697 C64.6212121,64.469697 68.4848485,64.3181818 68.4848485,64.3181818 L62.5,52.5757576 L61.5151515,43.6363636 C61.5151515,43.6363636 61.4393939,43.2575758 61.2121212,42.8030303 C61.0606061,42.5 60.4545455,42.5757576 60.4545455,42.5757576 L54.5454545,42.1212121 C54.5454545,42.1212121 52.3484848,36.4393939 51.8181818,34.469697 C51.2121212,32.1212121 50.4545455,28.8636364 50.4545455,28.8636364 C50.4545455,28.8636364 50.3787879,28.1818182 50.1515152,27.9545455 C50,27.8030303 49.3939394,27.8030303 49.3939394,27.8030303 L45.530303,27.4242424 L44.5454545,27.4242424 L44.3181818,26.8181818 C44.3181818,26.8181818 41.2121212,17.8787879 40.8333333,15.9090909 C40.2272727,13.7878788 37.9545455,9.46969697 37.8030303,8.93939394 L34.0151515,1.28787879 Z M40.9848485,37.0454545 C41.2121212,36.1363636 42.5757576,35.1515152 43.7121212,35.1515152 C45.9848485,35 46.969697,36.3636364 47.1212121,37.7272727 C47.2727273,39.3181818 46.7424242,40.8333333 46.8939394,42.4242424 C46.969697,42.9545455 46.8181818,45.2272727 46.2121212,45.3030303 C45.4545455,45.3787879 40.9848485,45.0757576 40.9848485,45.0757576 C40.6818182,43.8636364 40.9090909,41.5909091 40.8333333,40.3787879 C40.6818182,39.2424242 40.6818182,38.1060606 40.9848485,37.0454545 Z M31.4393939,18.9393939 C31.5151515,17.6515152 32.2727273,16.4393939 34.1666667,16.4393939 C35.0757576,16.4393939 36.2878788,17.2727273 36.5151515,18.1060606 C36.8181818,19.0909091 36.8939394,20.0757576 36.8181818,21.1363636 C36.8181818,22.2727273 37.0454545,24.3181818 36.8939394,25.4545455 C37.6515152,26.1363636 33.3333333,26.7424242 32.2727273,26.0606061 C31.7424242,25.8333333 31.4393939,20.3787879 31.4393939,18.9393939 Z M32.1969697,35.9848485 C33.5606061,35.3030303 36.3636364,36.4393939 36.5151515,37.8030303 C36.7424242,39.6969697 36.5151515,43.3333333 36.1363636,45.2272727 C36.0606061,45.530303 31.5151515,45.9848485 30.9848485,45.4545455 C30.4545455,45 30.7575758,40.4545455 30.6060606,39.1666667 C30.3787879,38.030303 30.9848485,36.5909091 32.1969697,35.9848485 Z M26.6666667,45.9848485 C26.5909091,46.2878788 22.8787879,46.7424242 22.4242424,46.2121212 C21.969697,45.7575758 22.2727273,41.3636364 22.1212121,40.1515152 C21.969697,38.9393939 22.5,37.5757576 23.4848485,36.969697 C24.6212121,36.2878788 26.8939394,37.4242424 26.969697,38.7121212 C27.1969697,40.6818182 27.0454545,44.1666667 26.6666667,45.9848485 Z M30.9848485,3.33333333 C31.7424242,3.10606061 32.6515152,3.63636364 32.6515152,4.01515152 C32.4242424,5.37878788 31.2878788,5.53030303 30.1515152,5.60606061 C29.7727273,5.45454545 28.6363636,6.21212121 28.7121212,5 C28.7121212,4.01515152 30,3.63636364 30.9848485,3.33333333 Z M25.8333333,18.6363636 C26.5909091,18.7121212 27.5,19.5454545 27.6515152,20.3787879 C27.8787879,21.3636364 27.8787879,22.3484848 27.8030303,23.3333333 C27.7272727,24.3939394 27.8787879,26.2121212 27.7272727,27.3484848 C27.7272727,27.3484848 24.7727273,27.9545455 23.8636364,27.9545455 C23.4848485,27.6515152 23.4090909,22.4242424 23.4848485,20.9848485 C23.5606061,19.6969697 24.2424242,18.5606061 25.8333333,18.6363636 Z M24.6969697,4.77272727 C25.1515152,4.77272727 26.0606061,4.6969697 26.0606061,5.45454545 C25.9848485,6.21212121 25.1515152,6.28787879 24.469697,6.36363636 C24.1666667,6.36363636 23.4848485,6.66666667 23.4848485,5.90909091 C23.4090909,5.15151515 24.0909091,4.84848485 24.6969697,4.77272727 Z M18.1060606,6.36363636 C18.7121212,6.21212121 19.469697,6.21212121 19.5454545,6.89393939 C19.6212121,7.8030303 18.7121212,8.18181818 18.030303,8.33333333 C17.5757576,8.40909091 16.6666667,8.40909091 16.6666667,7.65151515 C16.7424242,7.04545455 17.2727273,6.43939394 18.1060606,6.36363636 Z M16.7424242,22.9545455 C16.8181818,21.8181818 17.3484848,20.7575758 18.7121212,20.8333333 C19.3181818,20.9090909 20.0757576,21.6666667 20.2272727,22.4242424 C20.3787879,23.3333333 20.3787879,24.2424242 20.3787879,25.1515152 C20.3030303,26.1363636 20.4545455,27.8030303 20.3030303,28.8636364 C20.3030303,28.8636364 17.7272727,29.469697 17.1212121,29.469697 C16.7424242,29.1666667 16.6666667,24.2424242 16.7424242,22.9545455 Z M17.1969697,38.1818182 C18.2575758,38.1818182 19.0909091,38.7878788 19.1666667,40 C19.3181818,41.6666667 19.1666667,44.9242424 18.8636364,46.5909091 C18.7878788,46.8181818 15.6818182,47.2727273 15.3030303,46.8181818 C14.9242424,46.4393939 15.1515152,42.3484848 15.0757576,41.2878788 C14.9242424,40.2272727 15.7575758,38.1818182 17.1969697,38.1818182 Z M13.1818182,8.40909091 C13.7878788,8.33333333 14.6212121,8.25757576 14.6212121,9.01515152 C14.6212121,9.84848485 14.0151515,10.4545455 13.1060606,10.4545455 C12.4242424,10.6060606 11.6666667,10.530303 11.7424242,9.77272727 C11.7424242,9.09090909 12.3484848,8.48484848 13.1818182,8.40909091 Z M12.5,23.3333333 C13.030303,23.4090909 13.6363636,24.0909091 13.7121212,24.7727273 C13.8636364,25.6060606 13.8636364,26.3636364 13.7878788,27.1969697 C13.7121212,28.1060606 13.8636364,29.5454545 13.7121212,30.4545455 C13.7121212,30.4545455 11.4393939,31.5151515 11.1363636,31.2121212 C10.9090909,30.9848485 10.8333333,26.3636364 10.9090909,25.2272727 C11.0606061,24.1666667 11.5151515,23.2575758 12.5,23.3333333 Z M8.56060606,11.2878788 C9.09090909,11.2878788 9.77272727,11.3636364 10,12.1212121 C9.92424242,12.8030303 9.39393939,12.9545455 8.78787879,13.1060606 C8.18181818,13.1818182 7.8030303,13.2575758 7.65151515,12.4242424 C7.5,11.5909091 7.95454545,11.2878788 8.56060606,11.2878788 Z M10.1515152,39.469697 C10.9848485,38.8636364 12.6515152,39.8484848 12.7272727,41.0606061 C12.8030303,42.7272727 12.7272727,45.9090909 12.4242424,47.5757576 C12.3484848,47.8030303 9.62121212,48.030303 9.31818182,47.6515152 C9.01515152,47.2727273 9.24242424,43.4848485 9.09090909,42.4242424 C9.01515152,41.2121212 9.39393939,40 10.1515152,39.469697 Z M8.71212121,26.7424242 C8.86363636,27.5 8.86363636,28.3333333 8.78787879,29.0909091 C8.71212121,29.9242424 8.86363636,31.5909091 8.71212121,32.4242424 C8.71212121,32.4242424 6.74242424,33.4090909 6.43939394,33.1818182 C6.21212121,32.9545455 6.13636364,28.3333333 6.21212121,27.1969697 C6.28787879,26.2121212 6.66666667,25.3030303 7.57575758,25.3787879 C8.10606061,25.3787879 8.63636364,26.0606061 8.71212121,26.7424242 Z M4.84848485,14.1666667 C5.45454545,14.0151515 6.13636364,14.2424242 6.21212121,14.7727273 C6.28787879,15.2272727 5.75757576,15.7575758 5.07575758,15.6818182 C4.54545455,15.7575758 3.86363636,15.9848485 3.71212121,15.3787879 C3.71212121,14.6969697 4.16666667,14.3181818 4.84848485,14.1666667 Z M6.06060606,40.6060606 C6.66666667,40 7.87878788,40.9090909 7.87878788,42.0454545 C7.95454545,43.5606061 7.87878788,46.5151515 7.65151515,48.030303 C7.65151515,48.2575758 5.68181818,48.4848485 5.37878788,48.1060606 C5.15151515,47.7272727 5.3030303,44.2424242 5.22727273,43.2575758 C5.22727273,42.1969697 5.53030303,41.0606061 6.06060606,40.6060606 Z M4.54545455,31.1363636 C4.46969697,31.8939394 4.54545455,33.2575758 4.39393939,34.0151515 C4.39393939,34.0151515 2.8030303,35.1515152 2.65151515,34.9242424 C2.5,34.6969697 2.57575758,30.530303 2.65151515,29.5454545 C2.72727273,28.7121212 3.03030303,27.9545455 3.71212121,28.030303 C4.09090909,28.1060606 4.46969697,28.6363636 4.46969697,29.2424242 C4.62121212,29.8484848 4.54545455,30.530303 4.54545455,31.1363636 Z M2.87878788,41.6666667 C3.25757576,41.1363636 3.93939394,41.969697 4.01515152,43.030303 C4.01515152,44.469697 3.93939394,47.2727273 3.86363636,48.7121212 C3.86363636,48.9393939 2.65151515,49.1666667 2.5,48.7878788 C2.34848485,48.4848485 2.5,45.1515152 2.5,44.1666667 C2.42424242,43.1818182 2.57575758,42.1212121 2.87878788,41.6666667 Z" id="Shape"></path>
            </g>
        </g>
    </g>
</svg>