<?xml version="1.0" encoding="UTF-8"?>
<svg width="366px" height="239px" viewBox="0 0 366 239" version="1.1" xmlns="http://www.w3.org/2000/svg" xmlns:xlink="http://www.w3.org/1999/xlink">
    <!-- Generator: Sketch 56.3 (81716) - https://sketch.com -->
    <title>logo_jetbrains</title>
    <desc>Created with Sketch.</desc>
    <defs>
        <linearGradient x1="9.61187896%" y1="66.481715%" x2="89.8988937%" y2="33.52302%" id="linearGradient-1">
            <stop stop-color="#FCEE39" offset="0%"></stop>
            <stop stop-color="#F37B3D" offset="100%"></stop>
        </linearGradient>
        <linearGradient x1="8.60139949%" y1="15.0298268%" x2="99.6410941%" y2="89.0577602%" id="linearGradient-2">
            <stop stop-color="#EF5A6B" offset="0%"></stop>
            <stop stop-color="#F26F4E" offset="57%"></stop>
            <stop stop-color="#F37B3D" offset="100%"></stop>
        </linearGradient>
        <linearGradient x1="90.1184803%" y1="69.9308351%" x2="17.9382833%" y2="38.6276913%" id="linearGradient-3">
            <stop stop-color="#7C59A4" offset="0%"></stop>
            <stop stop-color="#AF4C92" offset="38.52%"></stop>
            <stop stop-color="#DC4183" offset="76.54%"></stop>
            <stop stop-color="#ED3D7D" offset="95.7%"></stop>
        </linearGradient>
        <linearGradient x1="91.3757491%" y1="19.1437239%" x2="18.8948586%" y2="70.209553%" id="linearGradient-4">
            <stop stop-color="#EF5A6B" offset="0%"></stop>
            <stop stop-color="#EE4E72" offset="36.4%"></stop>
            <stop stop-color="#ED3D7D" offset="100%"></stop>
        </linearGradient>
    </defs>
    <g id="logo_jetbrains" stroke="none" stroke-width="1" fill="none" fill-rule="evenodd">
        <g id="jetbrains" transform="translate(114.000000, 45.000000)" fill-rule="nonzero">
            <path d="M135.946565,82.2137405 C136.977099,81.2977099 137.549618,80.0381679 137.664122,78.5496183 C137.778626,75.5725191 135.603053,73.1679389 132.625954,72.9389313 C131.251908,72.8244275 129.877863,73.3969466 128.847328,74.1984733 L128.847328,74.1984733 L32.8931298,126.755725 C30.7175573,127.671756 28.7709924,129.274809 27.5114504,131.450382 C24.1908397,136.946565 26.0229008,144.045802 31.6335878,147.366412 C35.5267176,149.656489 40.221374,149.427481 43.8854962,147.137405 L43.8854962,147.137405 L43.8854962,147.137405 C44.1145038,146.908397 44.4580153,146.793893 44.6870229,146.564885 L134,83.8167939 C134.458015,83.4732824 135.717557,82.5572519 135.946565,82.2137405 L135.946565,82.2137405 L135.946565,82.2137405 Z" id="XMLID_3041_" fill="url(#linearGradient-1)"></path>
            <path d="M136.175573,74.5419847 L136.175573,74.5419847 L63.1221374,2.86259542 C61.519084,1.14503817 59.2290076,0 56.5954198,0 C51.6717557,0 47.778626,4.00763359 47.778626,8.81679389 L47.778626,8.81679389 C47.778626,11.221374 48.6946565,13.2824427 50.1832061,14.8854962 L50.1832061,14.8854962 L50.1832061,14.8854962 C50.6412214,15.3435115 51.0992366,15.6870229 51.5572519,16.0305344 L128.732824,82.0992366 L128.732824,82.0992366 C129.648855,82.9007634 130.793893,83.4732824 132.167939,83.5877863 C135.145038,83.7022901 137.549618,81.5267176 137.778626,78.5496183 C137.778626,77.0610687 137.206107,75.5725191 136.175573,74.5419847 Z" id="XMLID_3049_" fill="url(#linearGradient-2)"></path>
            <path d="M65.5267176,68.129771 C65.4122137,68.129771 20.4122137,32.6335878 19.4961832,32.0610687 L19.4961832,32.0610687 L19.4961832,32.0610687 C18.8091603,31.7175573 18.1221374,31.3740458 17.4351145,31.0305344 C10.7938931,28.5114504 3.46564885,31.9465649 0.946564885,38.5877863 C-1.22900763,44.4274809 1.17557252,50.8396947 6.21374046,53.9312977 L6.21374046,53.9312977 L6.21374046,53.9312977 C7.01526718,54.389313 7.70229008,54.7328244 8.50381679,54.9618321 C8.96183206,55.1908397 60.4885496,76.4885496 60.4885496,76.4885496 L60.4885496,76.4885496 C62.5496183,77.4045802 64.9541985,76.8320611 66.3282443,75.1145038 C68.0458015,72.9389313 67.7022901,69.8473282 65.5267176,68.129771 Z" id="XMLID_3042_" fill="url(#linearGradient-3)"></path>
            <path d="M56.5954198,0 C54.648855,0 52.8167939,0.687022901 51.3282443,1.71755725 L5.75572519,32.4045802 C5.64122137,32.519084 5.52671756,32.519084 5.52671756,32.6335878 L5.41221374,32.6335878 L5.41221374,32.6335878 C3.46564885,34.0076336 1.86259542,36.0687023 0.946564885,38.4732824 C-1.57251908,45.1145038 1.86259542,52.5572519 8.50381679,54.9618321 C12.6259542,56.5648855 17.0916031,55.7633588 20.4122137,53.3587786 L20.4122137,53.3587786 L20.4122137,53.3587786 C21.2137405,52.7862595 21.9007634,52.2137405 22.4732824,51.5267176 L62.0916031,15.8015267 L62.0916031,15.8015267 C64.1526718,14.1984733 65.5267176,11.6793893 65.5267176,8.81679389 L65.5267176,8.81679389 C65.5267176,4.00763359 61.519084,0 56.5954198,0 Z" id="XMLID_3057_" fill="url(#linearGradient-4)"></path>
            <g id="XMLID_3008_" transform="translate(39.076336, 42.366412)">
                <rect id="XMLID_3033_" fill="#000000" x="0.687022901" y="0.458015267" width="58.3969466" height="58.3969466"></rect>
                <rect id="XMLID_3032_" fill="#FFFFFF" x="5.72519084" y="47.8625954" width="21.870229" height="3.66412214"></rect>
                <g id="XMLID_3009_" transform="translate(4.580153, 6.870229)" fill="#FFFFFF">
                    <path d="M0.916030534,8.93129771 L2.63358779,7.32824427 C3.09160305,7.90076336 3.54961832,8.24427481 4.1221374,8.24427481 C4.80916031,8.24427481 5.15267176,7.78625954 5.15267176,6.87022901 L5.15267176,0.801526718 L7.78625954,0.801526718 L7.78625954,6.87022901 C7.78625954,8.01526718 7.44274809,8.93129771 6.87022901,9.50381679 C6.29770992,10.0763359 5.38167939,10.4198473 4.23664122,10.4198473 C2.51908397,10.5343511 1.60305344,9.84732824 0.916030534,8.93129771 Z" id="XMLID_3030_"></path>
                    <polygon id="XMLID_3028_" points="8.35877863 0.916030534 16.0305344 0.916030534 16.0305344 3.09160305 10.9923664 3.09160305 10.9923664 4.58015267 15.5725191 4.58015267 15.5725191 6.64122137 10.9923664 6.64122137 10.9923664 8.12977099 16.1450382 8.12977099 16.1450382 10.4198473 8.47328244 10.4198473"></polygon>
                    <polygon id="XMLID_3026_" points="19.4656489 3.20610687 16.6030534 3.20610687 16.6030534 0.916030534 24.9618321 0.916030534 24.9618321 3.20610687 22.0992366 3.20610687 22.0992366 10.4198473 19.4656489 10.4198473"></polygon>
                    <path d="M1.14503817,12.5954198 L6.06870229,12.5954198 C7.21374046,12.5954198 8.12977099,12.9389313 8.70229008,13.3969466 C9.04580153,13.740458 9.27480916,14.3129771 9.27480916,15 L9.27480916,15 C9.27480916,16.1450382 8.70229008,16.7175573 7.78625954,17.1755725 C8.93129771,17.519084 9.61832061,18.2061069 9.61832061,19.4656489 L9.61832061,19.4656489 C9.61832061,21.0687023 8.24427481,22.0992366 6.06870229,22.0992366 L1.14503817,22.0992366 L1.14503817,12.5954198 Z M6.64122137,15.5725191 C6.64122137,15 6.18320611,14.7709924 5.49618321,14.7709924 L3.77862595,14.7709924 L3.77862595,16.4885496 L5.38167939,16.4885496 C6.18320611,16.3740458 6.64122137,16.1450382 6.64122137,15.5725191 L6.64122137,15.5725191 Z M5.72519084,18.3206107 L3.66412214,18.3206107 L3.66412214,20.0381679 L5.72519084,20.0381679 C6.52671756,20.0381679 6.98473282,19.6946565 6.98473282,19.1221374 L6.98473282,19.1221374 C6.98473282,18.5496183 6.52671756,18.3206107 5.72519084,18.3206107 Z" id="XMLID_3022_"></path>
                    <path d="M10.0763359,12.5954198 L14.5419847,12.5954198 C16.0305344,12.5954198 16.9465649,12.9389313 17.6335878,13.6259542 C18.2061069,14.1984733 18.4351145,14.8854962 18.4351145,15.8015267 L18.4351145,15.8015267 C18.4351145,17.2900763 17.6335878,18.2061069 16.4885496,18.778626 L18.778626,22.0992366 L15.8015267,22.0992366 L13.8549618,19.2366412 L12.7099237,19.2366412 L12.7099237,22.0992366 L10.0763359,22.0992366 L10.0763359,12.5954198 Z M14.4274809,17.1755725 C15.3435115,17.1755725 15.8015267,16.7175573 15.8015267,16.0305344 L15.8015267,16.0305344 C15.8015267,15.2290076 15.2290076,14.8854962 14.4274809,14.8854962 L12.7099237,14.8854962 L12.7099237,17.1755725 L14.4274809,17.1755725 Z" id="XMLID_3019_"></path>
                    <path d="M21.5267176,12.5954198 L24.0458015,12.5954198 L28.0534351,22.2137405 L25.1908397,22.2137405 L24.5038168,20.4961832 L20.8396947,20.4961832 L20.1526718,22.2137405 L17.4045802,22.2137405 L21.5267176,12.5954198 Z M23.8167939,18.3206107 L22.7862595,15.6870229 L21.7557252,18.3206107 L23.8167939,18.3206107 Z" id="XMLID_3016_"></path>
                    <polygon id="XMLID_3014_" points="28.3969466 12.5954198 31.0305344 12.5954198 31.0305344 22.0992366 28.3969466 22.0992366"></polygon>
                    <polygon id="XMLID_3012_" points="31.7175573 12.5954198 34.1221374 12.5954198 38.0152672 17.6335878 38.0152672 12.5954198 40.648855 12.5954198 40.648855 22.0992366 38.3587786 22.0992366 34.351145 16.9465649 34.351145 22.2137405 31.7175573 22.2137405"></polygon>
                    <path d="M40.8778626,20.7251908 L42.3664122,19.0076336 C43.2824427,19.8091603 44.3129771,20.1526718 45.4580153,20.1526718 C46.1450382,20.1526718 46.6030534,19.9236641 46.6030534,19.4656489 L46.6030534,19.4656489 C46.6030534,19.0076336 46.259542,18.8931298 45,18.5496183 C42.9389313,18.0916031 41.4503817,17.519084 41.4503817,15.5725191 L41.4503817,15.5725191 C41.4503817,13.8549618 42.8244275,12.480916 45.1145038,12.480916 C46.7175573,12.480916 47.9770992,12.9389313 49.0076336,13.740458 L47.6335878,15.5725191 C46.7175573,15 45.8015267,14.6564885 45,14.6564885 C44.3129771,14.6564885 44.0839695,14.8854962 44.0839695,15.2290076 L44.0839695,15.2290076 C44.0839695,15.6870229 44.4274809,15.8015267 45.6870229,16.1450382 C47.8625954,16.6030534 49.2366412,17.2900763 49.2366412,19.1221374 L49.2366412,19.1221374 C49.2366412,21.0687023 47.7480916,22.2137405 45.3435115,22.2137405 C43.6259542,22.3282443 42.0229008,21.7557252 40.8778626,20.7251908 Z" id="XMLID_3010_"></path>
                </g>
            </g>
        </g>
    </g>
</svg>