<svg width="164px" height="177px" viewBox="0 0 164 177" version="1.1" xmlns="http://www.w3.org/2000/svg" xmlns:xlink="http://www.w3.org/1999/xlink">
    <g id="Home" stroke="none" stroke-width="1" fill="none" fill-rule="evenodd">
        <g id="Menu" transform="translate(-782.000000, -25.000000)">
            <g id="Group-2" transform="translate(782.000000, 25.000000)">
                <g id="Group-49-Copy" transform="translate(-0.000000, -0.000000)">
                    <polygon id="Fill-1" fill="#FFFFFF" points="47.9403061 -3.37498242e-05 47.2027546 0.262708631 1.64475335 16.4840554 -3.38016266e-05 17.0697836 0.200071828 18.8016558 7.1486722 78.9478924 7.27830144 80.0687241 8.26683001 80.61564 46.8760619 101.967129 47.9408131 102.555557 49.0052264 101.967129 87.6144583 80.61564 88.6031559 80.0687241 88.7326161 78.9478924 95.6812165 18.8016558 95.8814911 17.0697836 94.2367039 16.4840554 48.6785336 0.262708631 47.9411512 -3.37498242e-05"></polygon>
                    <g id="Group-48" transform="translate(9.126439, 20.712436)" fill="#DD0031">
                        <path d="M46.6854038,35.0077813 L46.6860799,35.0077813 C46.9644363,35.0077813 47.2262299,35.1159495 47.4232933,35.3125423 C47.6203568,35.509135 47.7290291,35.7706961 47.7291981,36.0487947 L49.8727282,36.0477822 C49.8722212,35.1977929 49.5404582,34.3991033 48.9382822,33.7983564 C48.3364443,33.197947 47.5366978,32.8673675 46.6860799,32.8673675 L46.6842208,32.8673675 C44.9270432,32.86838 43.4982485,34.2966725 43.4990935,36.0513259 L43.5002766,38.1630524 L45.6436377,38.1617024 L45.6426237,36.0501447 C45.6422856,35.4755539 46.1101002,35.0081188 46.6854038,35.0077813" id="Fill-2"></path>
                        <polygon id="Fill-4" points="22.6573655 0.116926266 7.0988148 0.116926266 7.0988148 2.25717136 23.8926459 2.25717136"></polygon>
                        <path d="M43.7494622,19.1410778 L38.0074108,19.1410778 L38.1253785,19.0730719 L35.1104424,13.8472491 L32.6353183,13.8472491 L35.6906474,19.1410778 L26.0480574,19.1410778 L26.0468743,17.1550694 C26.0467053,16.8769708 26.1552085,16.6152409 26.352103,16.4183107 C26.5491665,16.2215492 26.8109601,16.1130435 27.0896545,16.1130435 L27.0903305,16.1130435 C27.3688559,16.1130435 27.6306495,16.221043 27.827544,16.417467 C28.0247765,16.6142284 28.1334487,16.8757896 28.1336177,17.1542256 L30.2771479,17.1528756 C30.2766408,16.3030551 29.9447089,15.504028 29.3423639,14.9034498 C28.7406949,14.3032092 27.9409484,13.9726297 27.0904995,13.9726297 L27.0886404,13.9726297 C26.2373465,13.9731359 25.437262,14.3043905 24.835593,14.9058123 C24.2339241,15.5072342 23.9030061,16.30643 23.9035132,17.1564194 L23.9045272,19.1410778 L16.2547121,19.1410778 L16.253698,17.1604693 C16.25336,16.5858786 16.7211745,16.1184435 17.2963092,16.118106 L17.2968162,16.118106 C17.8719509,16.118106 18.3399344,16.5852036 18.3402724,17.1592881 L20.4838026,17.1582756 C20.4829576,15.4041285 19.0533178,13.9776922 17.2966472,13.9776922 L17.2952952,13.9776922 C15.5381176,13.9787047 14.1093229,15.4069972 14.1101679,17.1616506 L14.1111819,19.1410778 L11.2568036,19.1410778 L11.2568036,13.8472491 L9.11327344,13.8472491 L9.11327344,19.1410778 L7.0988655,19.1410778 L7.0988655,21.2813229 L44.9847426,21.2813229 L43.7494622,19.1410778 Z" id="Fill-6"></path>
                        <polygon id="Fill-8" points="33.2407562 9.62901045 27.6623047 9.62901045 24.6767761 4.45414992 22.201652 4.45414992 25.1883637 9.62901045 11.2566853 9.62901045 11.2566853 4.45414992 9.11315513 4.45414992 9.11315513 9.62901045 7.0987472 9.62901045 7.0987472 11.7692556 34.4760366 11.7692556"></polygon>
                        <path d="M53.34233,28.653162 L48.5024441,28.653162 L48.5582168,28.6209309 L45.5434497,23.3952768 L43.0683256,23.3952768 L46.1030356,28.653162 L35.845932,28.653162 L35.844749,26.5431229 C35.84458,26.2648556 35.9529142,26.0032945 36.1499777,25.8063643 C36.3468721,25.6096028 36.6088347,25.5009284 36.8875292,25.5009284 L36.8882052,25.5009284 C37.1667306,25.5009284 37.4283552,25.6090966 37.6254187,25.8055205 C37.8226512,26.002282 37.9311544,26.2638432 37.9313234,26.5419417 L40.0748535,26.5409292 C40.0745155,25.6909399 39.7425835,24.8920815 39.1402386,24.2913347 C38.5384006,23.6912628 37.7388231,23.3606833 36.8883742,23.3606833 L36.8863461,23.3606833 C36.0352211,23.3611895 35.2349676,23.6924441 34.6334677,24.2938659 C34.0317987,24.8949503 33.7008808,25.6943149 33.7012188,26.5443042 L33.7024019,28.653162 L26.0525868,28.653162 L26.0514037,26.5481854 C26.0512347,26.2700869 26.1597379,26.008357 26.3566324,25.8115955 C26.5536959,25.6146653 26.8154895,25.5063283 27.0941839,25.5061596 L27.0948599,25.5061596 C27.6698256,25.5061596 28.1378091,25.9729197 28.1381471,26.5473417 L30.2816773,26.5459917 C30.2806632,24.7920133 28.8513615,23.3657458 27.0948599,23.3657458 L27.0931698,23.3657458 C26.2418759,23.366252 25.4417914,23.6976753 24.8401224,24.2989284 C24.2384535,24.9003503 23.9075355,25.6995461 23.9080426,26.5493667 L23.9090566,28.653162 L16.2592415,28.653162 L16.2582275,26.5535854 C16.2578894,25.9791634 16.725704,25.5117283 17.3010076,25.5113908 L17.3015147,25.5113908 C17.8764803,25.5113908 18.3444639,25.9781509 18.3448019,26.5525729 L20.488332,26.5512229 C20.487318,24.7972445 19.0580162,23.370977 17.3015147,23.370977 L17.2998246,23.370977 C15.542478,23.3719895 14.1136833,24.800282 14.1146973,26.5547666 L14.1158804,28.653162 L11.2567698,28.653162 L11.2567698,23.4783014 L9.11323964,23.4783014 L9.11323964,28.653162 L7.0988317,28.653162 L7.0988317,30.7934071 L54.5776104,30.7934071 L53.34233,28.653162 Z" id="Fill-10"></path>
                        <polygon id="Fill-12" points="71.2671804 21.2812554 71.2671804 19.1410103 46.2884544 19.1410103 47.5230588 21.2812554"></polygon>
                        <polygon id="Fill-14" points="67.1092254 23.4783014 67.1092254 28.653162 55.8419603 28.653162 57.0767337 30.7934071 71.2671635 30.7934071 71.2671635 28.653162 69.2527556 28.653162 69.2527556 23.4783014"></polygon>
                        <path d="M69.252688,38.1652461 L69.252688,32.9881919 L67.1091578,32.9881919 L67.1091578,38.1652461 L58.3873241,38.1652461 L55.4737929,33.1150912 L52.9988378,33.1150912 L55.9133831,38.1652461 L35.8504277,38.1652461 L35.8492446,36.0550384 C35.8490756,35.7769398 35.9575788,35.5153787 36.1544733,35.3184485 C36.3513678,35.121687 36.6133304,35.0130126 36.8920248,35.0130126 L36.8927008,35.0130126 C37.1712262,35.0130126 37.4330198,35.1211808 37.6300833,35.3176047 C37.8271468,35.5143662 37.935819,35.7759273 37.935988,36.0541946 L40.0795182,36.0528446 C40.0790111,35.2030241 39.7470792,34.4041657 39.1447342,33.8034189 C38.5430652,33.203347 37.7433187,32.8727675 36.8928698,32.8727675 L36.8910107,32.8727675 C36.0397168,32.8732737 35.2396323,33.2045282 34.6379633,33.8057814 C34.0364634,34.4070345 33.7053764,35.2063991 33.7058835,36.0562196 L33.7068975,38.1652461 L26.0570824,38.1652461 L26.0560683,36.0602696 C26.0558993,35.7821711 26.1642335,35.5204412 26.361128,35.3236797 C26.5581915,35.1267495 26.8201541,35.0184125 27.0986795,35.0182438 L27.0991865,35.0182438 C27.6741522,35.0182438 28.1423047,35.4850039 28.1426427,36.0594259 L30.2861729,36.0580759 C30.2851588,34.3040975 28.8556881,32.8778299 27.0990175,32.8778299 L27.0976655,32.8778299 C26.2463715,32.8783362 25.446287,33.2097595 24.844618,33.8110126 C24.2431181,34.4124344 23.9120312,35.2116303 23.9125382,36.0616196 L23.9137212,38.1652461 L16.2639061,38.1652461 L16.2627231,36.0658383 C16.2623851,35.4912476 16.7301996,35.0238125 17.3055033,35.023475 C17.590282,35.0258375 17.8461603,35.1313057 18.0433928,35.3282359 C18.2404562,35.5248286 18.3492975,35.786221 18.3494665,36.0644883 L20.4928276,36.0634758 C20.4924896,35.2134865 20.1605576,34.4146282 19.5583817,33.8140501 C18.9565437,33.2136407 18.1567972,32.8830612 17.3061793,32.8830612 L17.3043202,32.8830612 C15.5471426,32.8840737 14.1183479,34.3123662 14.1191929,36.0668508 L14.120376,38.1652461 L11.2068448,38.1652461 L11.2068448,33.1150912 L9.06348364,33.1150912 L9.06348364,38.1652461 L0.127009612,38.1652461 L0.37426851,40.3054912 L77.254378,40.3054912 L77.5016369,38.1652461 L69.252688,38.1652461 Z" id="Fill-16"></path>
                        <polygon id="Fill-18" points="21.8334508 43.5149476 21.8334508 67.4371605 23.976981 68.6224543 23.976981 43.5149476"></polygon>
                        <polygon id="Fill-20" points="27.1349318 43.5149476 27.1349318 70.3690077 29.2784619 71.5543015 29.2784619 43.5149476"></polygon>
                        <polygon id="Fill-22" points="16.5318854 43.5149476 16.5318854 64.5053133 18.6754156 65.6906071 18.6754156 43.5149476"></polygon>
                        <polygon id="Fill-24" points="11.2304214 43.5149476 11.2304214 61.573466 13.3739516 62.7589286 13.3739516 43.5149476"></polygon>
                        <polygon id="Fill-26" points="0.745072353 43.5149476 2.25820217 56.6115669 2.77097284 56.8952342 2.77097284 43.5149476"></polygon>
                        <polygon id="Fill-28" points="37.7378767 43.5149476 37.7378767 76.2325334 38.8142895 76.8277116 39.8814068 76.2375959 39.8814068 43.5149476"></polygon>
                        <polygon id="Fill-30" points="5.92894051 43.5149476 5.92894051 58.6417876 8.07247065 59.8270814 8.07247065 43.5149476"></polygon>
                        <polygon id="Fill-32" points="32.4363958 43.5149476 32.4363958 73.3008549 34.5799259 74.4861488 34.5799259 43.5149476"></polygon>
                        <polygon id="Fill-34" points="69.5468805 43.5149476 69.5468805 59.8321439 71.6904106 58.64685 71.6904106 43.5149476"></polygon>
                        <polygon id="Fill-36" points="43.0394252 43.5149476 43.0394252 74.4912112 45.1829553 73.3057487 45.1829553 43.5149476"></polygon>
                        <polygon id="Fill-38" points="64.2454164 43.5149476 64.2454164 62.7639911 66.3889466 61.5785285 66.3889466 43.5149476"></polygon>
                        <polygon id="Fill-40" points="74.8483614 43.5149476 74.8483614 56.9002966 75.3704275 56.6115669 76.8835573 43.5149476"></polygon>
                        <polygon id="Fill-42" points="58.9439355 43.5149476 58.9439355 65.6956696 61.0874657 64.5103757 61.0874657 43.5149476"></polygon>
                        <polygon id="Fill-44" points="48.3409061 43.5149476 48.3409061 71.559364 50.4844363 70.3740702 50.4844363 43.5149476"></polygon>
                        <polygon id="Fill-46" points="53.642387 43.5149476 53.642387 68.6275168 55.7859172 67.442223 55.7859172 43.5149476"></polygon>
                    </g>
                </g>
                <path d="M6.46976921,127.905109 L23.5127721,143.647514 L23.5127721,129.108004 L28.2792444,129.108004 L28.2792444,154.371387 L11.2705991,138.629308 L11.2705991,153.168493 L6.46976921,153.168493 L6.46976921,127.905109 Z M45.2356954,144.227725 L45.2356954,140.313671 L57.1373046,140.313671 C57.2060699,142.14486 56.9882317,143.873009 56.4836273,145.498117 C55.9791854,147.123389 55.2108991,148.553939 54.1790936,149.78993 C53.1471256,151.026084 51.8630178,151.998877 50.3264453,152.708473 C48.7900354,153.418069 47.024245,153.772785 45.0290742,153.772785 C42.5296242,153.772785 40.3109253,153.240548 38.3731403,152.176236 C36.4355178,151.111923 34.9161773,149.629772 33.8154438,147.729944 C32.7147104,145.830117 32.164425,143.632528 32.164425,141.137666 C32.164425,138.642641 32.7262526,136.456573 33.8499078,134.579788 C34.973563,132.70284 36.5156628,131.243406 38.4763696,130.201973 C40.4370764,129.160541 42.6671549,128.639824 45.1667675,128.639824 C47.6205366,128.639824 49.7301538,129.137661 51.4961067,130.133334 C53.2617345,131.129007 54.6950777,132.462359 55.7958111,134.13339 L51.564872,136.605373 C50.9456587,135.575461 50.1144595,134.728425 49.0709492,134.064751 C48.0276015,133.400752 46.7262618,133.068915 45.1667675,133.068915 C43.7220447,133.068915 42.403473,133.395073 41.2110525,134.04755 C40.0186319,134.699866 39.0726612,135.6269 38.3731403,136.828653 C37.6737819,138.030406 37.3241028,139.466635 37.3241028,141.137666 C37.3241028,142.808534 37.6680921,144.262126 38.3560709,145.498117 C39.0440496,146.734271 39.9784781,147.689864 41.1595191,148.365222 C42.3403975,149.040254 43.6762012,149.377933 45.1667675,149.377933 C47.1390165,149.377933 48.6754265,148.885938 49.7761599,147.901623 C50.8768933,146.917309 51.6451796,145.692676 52.0806935,144.227725 L45.2356954,144.227725 Z M75.7110717,144.433724 L75.7110717,153.15479 L70.75769,153.15479 L70.75769,129.120379 L73.7846663,129.120379 L75.7110717,129.120379 L78.8757413,129.120379 C80.7790624,129.120379 82.4013071,129.44102 83.7429632,130.081976 C85.0844566,130.722771 86.1107349,131.621246 86.8216354,132.777077 C87.5325359,133.933071 87.8879049,135.277781 87.8879049,136.811371 C87.8879049,138.505281 87.446376,139.964553 86.5636434,141.189186 C85.6807482,142.413818 84.4252521,143.300772 82.7969924,143.850048 L89.3326277,153.15479 L83.4505072,153.15479 L77.8093093,144.433724 L75.7110717,144.433724 Z M75.7110717,140.51967 L78.5660534,140.51967 C79.8503237,140.51967 80.8707496,140.205033 81.6274936,139.575598 C82.3842377,138.946 82.762691,138.070405 82.762691,136.948812 C82.762691,135.804339 82.3842377,134.917385 81.6274936,134.28795 C80.8707496,133.658514 79.8503237,133.343715 78.5660534,133.343715 L75.7110717,133.343715 L75.7110717,140.51967 Z M90.7422525,141.137682 C90.7422525,139.306493 91.0633201,137.629783 91.7054552,136.107714 C92.3475903,134.585483 93.2418651,133.269332 94.3884421,132.159098 C95.5350191,131.048863 96.8822024,130.184951 98.4301545,129.566875 C99.9781066,128.94896 101.657737,128.63984 103.469534,128.63984 C105.304089,128.63984 106.989572,128.94896 108.525982,129.566875 C110.062555,130.184951 111.409738,131.048863 112.567857,132.159098 C113.725814,133.269332 114.620251,134.585483 115.250844,136.107714 C115.881437,137.629783 116.196652,139.306493 116.196652,141.137682 C116.196652,142.945991 115.881437,144.622701 115.250844,146.167649 C114.620251,147.71276 113.737193,149.051629 112.602158,150.184905 C111.466961,151.317857 110.125468,152.199132 108.577678,152.828567 C107.029563,153.458165 105.327011,153.772802 103.469534,153.772802 C101.612056,153.772802 99.9093413,153.458165 98.3613892,152.828567 C96.8135996,152.199132 95.4721062,151.317857 94.3367462,150.184905 C93.2017114,149.051629 92.3188162,147.71276 91.6882232,146.167649 C91.0574677,144.622701 90.7422525,142.945991 90.7422525,141.137682 Z M95.9706956,141.137682 C95.9706956,142.671272 96.2919258,144.033183 96.9338984,145.223577 C97.5760335,146.413809 98.4589287,147.346685 99.5825839,148.021718 C100.706239,148.697075 102.001889,149.034591 103.469534,149.034591 C104.937016,149.034591 106.232828,148.697075 107.356483,148.021718 C108.480139,147.346685 109.363034,146.413809 110.005006,145.223577 C110.647141,144.033183 110.968209,142.671272 110.968209,141.137682 C110.968209,139.604092 110.658684,138.242019 110.03947,137.051787 C109.420257,135.861392 108.548904,134.928679 107.425249,134.253484 C106.301593,133.578289 104.983022,133.240773 103.469534,133.240773 C102.001889,133.240773 100.706239,133.578289 99.5825839,134.253484 C98.4589287,134.928679 97.5760335,135.861392 96.9338984,137.051787 C96.2919258,138.242019 95.9706956,139.604092 95.9706956,141.137682 Z M124.657847,139.901658 L123.110058,153.154855 L117.950218,153.154855 L121.527642,127.918691 L131.640701,143.403715 L141.684833,127.918691 L145.331023,153.154855 L140.10258,153.154855 L138.554627,139.901658 L131.640701,150.92319 L124.657847,139.901658 Z M153.24229,142.442475 L153.24229,148.965952 L163.768104,148.965952 L163.768104,153.154887 L153.24229,153.154887 L151.591271,153.154887 L148.426602,153.154887 L148.426602,129.120314 L151.591271,129.120314 L153.24229,129.120314 L163.768104,129.120314 L163.768104,133.309249 L153.24229,133.309249 L153.24229,138.35658 L163.080126,138.35658 L163.080126,142.442475 L153.24229,142.442475 Z M10.4312066,167.531818 L9.3725777,176.909905 L6.68195017,176.909905 L8.79920792,160.729403 L15.1288722,171.186244 L21.4806455,160.729403 L23.5979032,176.909905 L20.8851667,176.909905 L19.8265379,167.553887 L15.1288722,175.479031 L10.4312066,167.531818 Z M32.0888156,167.531818 L31.0301867,176.909905 L28.3395592,176.909905 L30.4566544,160.729403 L36.7863187,171.186244 L43.1380919,160.729403 L45.2553497,176.909905 L42.5426132,176.909905 L41.4839843,167.553887 L36.7863187,175.479031 L32.0888156,167.531818 Z M58.8850339,161.500028 L62.0609205,161.500028 L57.3853638,168.896666 L62.391742,176.909921 L59.2158554,176.909921 L55.9076402,170.988132 L52.4892053,176.909921 L49.3354276,176.909921 L54.4520255,168.896666 L49.864742,161.500028 L53.0406287,161.500028 L55.9297491,166.695346 L58.8850339,161.500028 Z M68.2360172,176.909889 L68.2360172,161.499995 L70.8825894,161.499995 L70.8825894,176.909889 L68.2360172,176.909889 Z M86.2765846,161.500028 L89.4524712,161.500028 L84.7769145,168.896666 L89.7832927,176.909921 L86.6074061,176.909921 L83.2991909,170.988132 L79.880756,176.909921 L76.7269783,176.909921 L81.8435762,168.896666 L77.2562927,161.500028 L80.4321794,161.500028 L83.3212998,166.695346 L86.2765846,161.500028 Z" id="Combined-Shape" fill="#FFFFFF"></path>
            </g>
        </g>
    </g>
</svg>
