<svg width="56px" height="60px" viewBox="0 0 56 60" version="1.1" xmlns="http://www.w3.org/2000/svg" xmlns:xlink="http://www.w3.org/1999/xlink">
    <g id="Home" stroke="none" stroke-width="1" fill="none" fill-rule="evenodd">
        <g id="Home---After-Landing-Animation" transform="translate(-1270.000000, -25.000000)">
            <g id="Group-17" transform="translate(1240.000000, 0.000000)">
                <g id="Group-49-Copy" transform="translate(30.000000, 25.000000)">
                    <polygon id="Fill-1" fill="#FFFFFF" points="27.7645675 -1.96274829e-05 27.3374155 0.152780327 0.952556816 9.58643555 -1.95761692e-05 9.92707052 0.115871345 10.9342548 4.14014444 45.9127846 4.21521905 46.5646133 4.78772412 46.8826766 27.1482118 59.2998074 27.7648612 59.6420126 28.3813147 59.2998074 50.7418025 46.8826766 51.3144054 46.5646133 51.3893822 45.9127846 55.4136553 10.9342548 55.5296441 9.92707052 54.5770677 9.58643555 28.1921111 0.152780327 27.7650569 -1.96274829e-05"></polygon>
                    <g id="Group-48" transform="translate(5.285566, 12.045484)" fill="#DD0031">
                        <path d="M27.0377925,20.359058 L27.038184,20.359058 C27.1993937,20.359058 27.3510112,20.4219641 27.4651402,20.5362942 C27.5792693,20.6506243 27.6422067,20.8027373 27.6423046,20.9644677 L28.8837273,20.9638789 C28.8834337,20.4695608 28.6912936,20.0050764 28.3425441,19.6557072 C27.9939905,19.3065343 27.5308183,19.1142831 27.038184,19.1142831 L27.0371073,19.1142831 C26.0194401,19.1148719 25.1919555,19.945507 25.1924449,20.9659398 L25.19313,22.1940314 L26.4344549,22.1932463 L26.4338676,20.9652528 C26.4336719,20.6310949 26.7046061,20.3592543 27.0377925,20.359058" id="Fill-2"></path>
                        <polygon id="Fill-4" points="13.1219845 0.0679994144 4.1112696 0.0679994144 4.1112696 1.31267624 13.8373956 1.31267624"></polygon>
                        <path d="M25.3374456,11.1316484 L22.0119438,11.1316484 L22.0802647,11.092099 L20.3341682,8.05297957 L18.9007033,8.05297957 L20.6701932,11.1316484 L15.0856994,11.1316484 L15.0850142,9.97666917 C15.0849164,9.81493871 15.1477559,9.66272758 15.261787,9.54820122 C15.3759161,9.43377299 15.5275335,9.37067063 15.6889391,9.37067063 L15.6893306,9.37067063 C15.8506382,9.37067063 16.0022556,9.43347858 16.1162868,9.54771053 C16.2305138,9.66213876 16.2934512,9.81425175 16.293549,9.97617848 L17.5349718,9.97539338 C17.5346782,9.48117336 17.3424402,9.01649271 16.9935929,8.66722165 C16.645137,8.31814687 16.1819649,8.12589567 15.6894285,8.12589567 L15.6883518,8.12589567 C15.195326,8.12619008 14.731958,8.31883383 14.3835022,8.66859557 C14.0350464,9.01835732 13.8433957,9.48313611 13.8436894,9.97745427 L13.8442766,11.1316484 L9.41389591,11.1316484 L9.41330862,9.97980957 C9.41311286,9.64565167 9.68404704,9.37381103 10.0171356,9.37361476 L10.0174292,9.37361476 C10.3505177,9.37361476 10.6215498,9.64525912 10.6217455,9.9791226 L11.8631683,9.97853378 C11.8626789,8.95839536 11.0347048,8.12883979 10.0173313,8.12883979 L10.0165483,8.12883979 C8.99888112,8.12942862 8.17139645,8.96006369 8.17188585,9.98049653 L8.17247314,11.1316484 L6.51936353,11.1316484 L6.51936353,8.05297957 L5.27794076,8.05297957 L5.27794076,11.1316484 L4.11129896,11.1316484 L4.11129896,12.3763252 L26.0528567,12.3763252 L25.3374456,11.1316484 Z" id="Fill-6"></path>
                        <polygon id="Fill-8" points="19.2513418 5.59982881 16.0205887 5.59982881 14.2915236 2.59034686 12.8580586 2.59034686 14.5878089 5.59982881 6.51929501 5.59982881 6.51929501 2.59034686 5.27787225 2.59034686 5.27787225 5.59982881 4.11123044 5.59982881 4.11123044 6.84450564 19.9667529 6.84450564"></polygon>
                        <path d="M30.8931428,16.6634778 L28.090129,16.6634778 L28.1224297,16.6447335 L26.3764312,13.6057122 L24.9429662,13.6057122 L26.7005146,16.6634778 L20.7601261,16.6634778 L20.7594409,15.4363676 C20.7593431,15.274539 20.8220847,15.122426 20.9362138,15.0078996 C21.0502449,14.8934714 21.2019602,14.8302709 21.3633658,14.8302709 L21.3637573,14.8302709 C21.5250649,14.8302709 21.6765845,14.893177 21.7907135,15.0074089 C21.9049405,15.1218372 21.96778,15.2739501 21.9678779,15.4356806 L23.2093006,15.4350918 C23.2091049,14.9407736 23.0168669,14.4761911 22.6680196,14.1268219 C22.3194659,13.7778453 21.8563916,13.5855941 21.3638552,13.5855941 L21.3626806,13.5855941 C20.8697527,13.5858885 20.4062869,13.7785322 20.0579289,14.128294 C19.7094731,14.4778594 19.5178224,14.9427364 19.5180182,15.4370545 L19.5187033,16.6634778 L15.0883226,16.6634778 L15.0876374,15.4393117 C15.0875396,15.2775812 15.1503791,15.1253701 15.2644103,15.0109419 C15.3785393,14.8964155 15.5301567,14.8334113 15.6915623,14.8333132 L15.6919538,14.8333132 C16.0249444,14.8333132 16.2959765,15.1047612 16.2961722,15.438821 L17.537595,15.4380359 C17.5370077,14.4179956 16.7092294,13.5885382 15.6919538,13.5885382 L15.690975,13.5885382 C15.1979492,13.5888326 14.7345812,13.7815745 14.3861254,14.1312381 C14.0376696,14.4809998 13.8460189,14.9457786 13.8463126,15.4399987 L13.8468998,16.6634778 L9.41651911,16.6634778 L9.41593183,15.4424521 C9.41573607,15.1083923 9.68667025,14.8365517 10.0198566,14.8363554 L10.0201503,14.8363554 C10.3531409,14.8363554 10.624173,15.1078035 10.6243688,15.4418633 L11.8657915,15.4410782 C11.8652042,14.4210379 11.0374259,13.5915805 10.0201503,13.5915805 L10.0191715,13.5915805 C9.00140645,13.5921693 8.17392177,14.4228044 8.17450906,15.443139 L8.17519423,16.6634778 L6.51934395,16.6634778 L6.51934395,13.6539958 L5.27792119,13.6539958 L5.27792119,16.6634778 L4.11127938,16.6634778 L4.11127938,17.9081546 L31.6085539,17.9081546 L30.8931428,16.6634778 Z" id="Fill-10"></path>
                        <polygon id="Fill-12" points="41.2742972 12.376286 41.2742972 11.1316091 26.8078997 11.1316091 27.5229193 12.376286"></polygon>
                        <polygon id="Fill-14" points="38.8662229 13.6539958 38.8662229 16.6634778 32.3408005 16.6634778 33.055918 17.9081546 41.2742874 17.9081546 41.2742874 16.6634778 40.1076456 16.6634778 40.1076456 13.6539958"></polygon>
                        <path d="M40.1076065,22.1953072 L40.1076065,19.1845495 L38.8661837,19.1845495 L38.8661837,22.1953072 L33.8149448,22.1953072 L32.1275769,19.2583488 L30.6942098,19.2583488 L32.382165,22.1953072 L20.7627297,22.1953072 L20.7620446,20.9680988 C20.7619467,20.8063684 20.8247862,20.6542554 20.9388174,20.539729 C21.0528486,20.4253008 21.2045639,20.3621003 21.3659694,20.3621003 L21.3663609,20.3621003 C21.5276686,20.3621003 21.679286,20.4250064 21.793415,20.5392383 C21.9075441,20.6536666 21.9704815,20.8057795 21.9705794,20.9676081 L23.2120021,20.966823 C23.2117085,20.472603 23.0194705,20.0080205 22.6706232,19.6586513 C22.3221674,19.3096747 21.8589952,19.1174235 21.3664588,19.1174235 L21.3653821,19.1174235 C20.8723563,19.1177179 20.4089884,19.3103616 20.0605326,19.6600252 C19.7121746,20.0096888 19.520426,20.4745658 19.5207197,20.9687858 L19.521307,22.1953072 L15.0909262,22.1953072 L15.090339,20.9711411 C15.0902411,20.8094106 15.1529827,20.6571995 15.2670139,20.5427713 C15.3811429,20.4282449 15.5328583,20.3652407 15.6941659,20.3651426 L15.6944595,20.3651426 C16.0274502,20.3651426 16.2985801,20.6365906 16.2987759,20.9706504 L17.5401986,20.9698653 C17.5396114,19.949825 16.7117352,19.1203676 15.6943617,19.1203676 L15.6935786,19.1203676 C15.2005528,19.120662 14.7371849,19.3134039 14.3887291,19.6630675 C14.0403711,20.0128292 13.8486225,20.477608 13.8489162,20.9719262 L13.8496014,22.1953072 L9.41922062,22.1953072 L9.41853546,20.9743796 C9.4183397,20.6402217 9.68927388,20.3683811 10.0224603,20.3681848 C10.1873895,20.3695587 10.3355811,20.4308946 10.4498081,20.545421 C10.5639371,20.6597511 10.6269724,20.8117659 10.6270703,20.9735945 L11.8683952,20.9730057 C11.8681994,20.4786875 11.6759614,20.014105 11.327212,19.664834 C10.9786583,19.315661 10.5154861,19.1234099 10.0228518,19.1234099 L10.0217751,19.1234099 C9.00410796,19.1239987 8.17662329,19.9546337 8.17711269,20.9749684 L8.17779786,22.1953072 L6.49042995,22.1953072 L6.49042995,19.2583488 L5.24910506,19.2583488 L5.24910506,22.1953072 L0.0735574557,22.1953072 L0.216757133,23.439984 L44.7417751,23.439984 L44.8849748,22.1953072 L40.1076065,22.1953072 Z" id="Fill-16"></path>
                        <polygon id="Fill-18" points="12.6448154 25.3064693 12.6448154 39.2186254 13.8862382 39.9079426 13.8862382 25.3064693"></polygon>
                        <polygon id="Fill-20" points="15.7151613 25.3064693 15.7151613 40.9236649 16.9565841 41.6129821 16.9565841 25.3064693"></polygon>
                        <polygon id="Fill-22" points="9.57442049 25.3064693 9.57442049 37.513586 10.8158433 38.2029032 10.8158433 25.3064693"></polygon>
                        <polygon id="Fill-24" points="6.50408433 25.3064693 6.50408433 35.8085466 7.7455071 36.4979619 7.7455071 25.3064693"></polygon>
                        <polygon id="Fill-26" points="0.431507709 25.3064693 1.30783492 32.922914 1.60480541 33.087883 1.60480541 25.3064693"></polygon>
                        <polygon id="Fill-28" points="21.8558435 25.3064693 21.8558435 44.3336456 22.4792466 44.6797763 23.0972662 44.3365897 23.0972662 25.3064693"></polygon>
                        <polygon id="Fill-30" points="3.43373838 25.3064693 3.43373838 34.1036053 4.67516115 34.7929225 4.67516115 25.3064693"></polygon>
                        <polygon id="Fill-32" points="18.7854975 25.3064693 18.7854975 42.6287043 20.0269203 43.3180215 20.0269203 25.3064693"></polygon>
                        <polygon id="Fill-34" points="40.2779877 25.3064693 40.2779877 34.7958666 41.5194104 34.1065494 41.5194104 25.3064693"></polygon>
                        <polygon id="Fill-36" points="24.9262286 25.3064693 24.9262286 43.3209656 26.1676513 42.6315503 26.1676513 25.3064693"></polygon>
                        <polygon id="Fill-38" points="37.2076515 25.3064693 37.2076515 36.500906 38.4490743 35.8114907 38.4490743 25.3064693"></polygon>
                        <polygon id="Fill-40" points="43.3483336 25.3064693 43.3483336 33.0908272 43.6506876 32.922914 44.5270148 25.3064693"></polygon>
                        <polygon id="Fill-42" points="34.1373056 25.3064693 34.1373056 38.2058473 35.3787283 37.5165301 35.3787283 25.3064693"></polygon>
                        <polygon id="Fill-44" points="27.9965745 25.3064693 27.9965745 41.6159262 29.2379973 40.926609 29.2379973 25.3064693"></polygon>
                        <polygon id="Fill-46" points="31.0669205 25.3064693 31.0669205 39.9108868 32.3083432 39.2215696 32.3083432 25.3064693"></polygon>
                    </g>
                </g>
            </g>
        </g>
    </g>
</svg>
