<?xml version="1.0" encoding="utf-8"?>
<!-- Generator: Adobe Illustrator 23.0.1, SVG Export Plug-In . SVG Version: 6.00 Build 0)  -->
<svg version="1.1" xmlns="http://www.w3.org/2000/svg" xmlns:xlink="http://www.w3.org/1999/xlink" x="0px" y="0px"
	 viewBox="0 0 390.58 332.49" style="enable-background:new 0 0 390.58 332.49;" xml:space="preserve">
<style type="text/css">
	.st0{fill:#DD0932;}
</style>
<g id="_x32_7">
	<g>
		<path class="st0" d="M22.48,284.07l-4.82,42.81H5.4l9.65-73.86l28.84,47.73l28.94-47.73l9.65,73.86H70.12l-4.82-42.71l-21.4,36.18
			L22.48,284.07z"/>
		<path class="st0" d="M121.16,284.07l-4.82,42.81h-12.26l9.65-73.86l28.84,47.73l28.94-47.73l9.65,73.86H168.8l-4.82-42.71
			l-21.4,36.18L121.16,284.07z"/>
		<path class="st0" d="M243.26,256.54h14.47l-21.3,33.76l22.81,36.58h-14.47l-15.07-27.03l-15.58,27.03h-14.37l23.31-36.58
			l-20.9-33.76h14.47l13.16,23.72L243.26,256.54z"/>
		<path class="st0" d="M285.86,256.54h12.06v70.34h-12.06V256.54z"/>
		<path class="st0" d="M368.06,256.54h14.47l-21.3,33.76l22.81,36.58h-14.47l-15.07-27.03l-15.58,27.03h-14.37l23.31-36.58
			l-20.9-33.76h14.47l13.16,23.72L368.06,256.54z"/>
	</g>
</g>
<g id="_x32_6">
	<polygon class="st0" points="97.46,3.97 5.4,3.97 5.4,16.65 104.77,16.65 	"/>
</g>
<g id="_x32_5">
	<polygon class="st0" points="127.07,60.34 109.41,29.67 94.76,29.67 112.43,60.34 	"/>
</g>
<g id="_x32_4">
	<rect x="17.32" y="29.67" class="st0" width="12.68" height="30.67"/>
</g>
<g id="_x32_3">
	<polygon class="st0" points="160.08,60.34 5.4,60.34 5.4,73.02 167.39,73.02 	"/>
</g>
<g id="_x32_2">
	<polygon class="st0" points="188.98,116.71 171.14,85.74 156.5,85.74 174.34,116.71 	"/>
</g>
<g id="_x32_1">
	<g>
		<path class="st0" d="M104.84,117.46l-0.01-12.51c-0.01-10.4,8.45-18.86,18.85-18.87c0,0,0.01,0,0.01,0
			c10.39,0,18.85,8.45,18.86,18.85l-12.68,0.01c0-3.4-2.77-6.17-6.17-6.17c0,0,0,0,0,0c-3.4,0-6.17,2.77-6.17,6.18l0.01,12.52
			L104.84,117.46z"/>
	</g>
</g>
<g id="_x32_0">
	<g>
		<path class="st0" d="M46.89,117.49l-0.01-12.51c0-5.04,1.96-9.77,5.52-13.34s8.29-5.53,13.33-5.53c0,0,0.01,0,0.01,0
			c5.03,0,9.76,1.96,13.32,5.52c3.56,3.56,5.53,8.29,5.53,13.33l-12.68,0.01c0-1.65-0.64-3.2-1.81-4.37
			c-1.17-1.16-2.71-1.8-4.36-1.8c0,0,0,0,0,0c-1.65,0-3.2,0.64-4.36,1.81c-1.17,1.17-1.81,2.72-1.81,4.37l0.01,12.51L46.89,117.49z"
			/>
	</g>
</g>
<g id="_x31_9">
	<rect x="17.32" y="85.34" class="st0" width="12.68" height="31.37"/>
</g>
<g id="_x31_8">
	<g>
		<polygon class="st0" points="237.28,116.71 244.59,129.39 385.08,129.39 385.08,116.71 		"/>
	</g>
</g>
<g id="_x31_7">
	<g>
		<polygon class="st0" points="222.26,116.71 5.4,116.71 5.4,129.39 229.57,129.39 		"/>
	</g>
</g>
<g id="_x31_6">
	
		<rect x="360.48" y="141.71" transform="matrix(-1 -1.224647e-16 1.224647e-16 -1 733.633 314.7823)" class="st0" width="12.68" height="31.37"/>
</g>
<g id="_x31_5">
	<polygon class="st0" points="250.38,173.08 250.71,172.89 232.87,141.92 218.23,141.92 236.18,173.08 	"/>
</g>
<g id="_x31_4">
	<g>
		<path class="st0" d="M162.81,173.09l-0.01-12.51c-0.01-10.4,8.45-18.86,18.85-18.87c0,0,0.01,0,0.01,0
			c5.03,0,9.76,1.96,13.33,5.52c3.56,3.56,5.53,8.29,5.53,13.33l-12.68,0.01c0-1.65-0.64-3.2-1.81-4.37
			c-1.17-1.16-2.71-1.8-4.36-1.8c0,0,0,0,0,0c-3.4,0-6.17,2.77-6.17,6.18l0.01,12.51L162.81,173.09z"/>
	</g>
</g>
<g id="_x31_3">
	<g>
		<path class="st0" d="M104.87,173.13l-0.01-12.51c-0.01-10.4,8.45-18.86,18.85-18.87c0,0,0.01,0,0.01,0
			c10.39,0,18.85,8.45,18.86,18.85l-12.68,0.01c0-3.4-2.77-6.17-6.17-6.17c0,0,0,0,0,0c-3.4,0-6.17,2.77-6.17,6.18l0.01,12.51
			L104.87,173.13z"/>
	</g>
</g>
<g id="_x31_2">
	<g>
		<path class="st0" d="M46.92,173.16l-0.01-12.51c-0.01-10.4,8.45-18.86,18.85-18.87c0,0,0.01,0,0.01,0
			c10.39,0,18.85,8.45,18.86,18.85l-12.68,0.01c0-3.4-2.77-6.17-6.17-6.17c0,0,0,0,0,0c-3.4,0-6.17,2.77-6.17,6.18l0.01,12.52
			L46.92,173.16z"/>
	</g>
</g>
<g id="_x31_1">
	<rect x="17.32" y="142.41" class="st0" width="12.68" height="30.67"/>
</g>
<g id="_x31_0">
	<polygon class="st0" points="293.81,173.08 301.11,185.76 385.08,185.76 385.08,173.08 	"/>
</g>
<g id="_x30_9">
	<g>
		<polygon class="st0" points="279.02,173.08 5.4,173.08 5.4,185.76 286.33,185.76 		"/>
	</g>
</g>
<g id="_x30_8">
	
		<rect x="360.48" y="198.06" transform="matrix(-1 -1.224647e-16 1.224647e-16 -1 733.633 427.4852)" class="st0" width="12.68" height="31.37"/>
</g>
<g id="_x30_7">
	<polygon class="st0" points="308.87,229.44 291.63,199.52 276.99,199.52 294.23,229.44 	"/>
</g>
<g id="_x30_6">
	<g>
		<path class="st0" d="M220.78,229.43l-0.01-12.51c-0.01-10.4,8.45-18.86,18.85-18.87c0,0,0.01,0,0.01,0
			c10.39,0,18.85,8.45,18.86,18.85l-12.68,0.01c0-3.4-2.77-6.17-6.17-6.17c0,0,0,0,0,0c-3.4,0-6.17,2.77-6.17,6.18l0.01,12.51
			L220.78,229.43z"/>
	</g>
</g>
<g id="_x30_5">
	<g>
		<path class="st0" d="M162.84,229.46l-0.01-12.51c-0.01-10.4,8.45-18.86,18.85-18.87c0,0,0.01,0,0.01,0
			c5.03,0,9.76,1.96,13.33,5.52c3.56,3.56,5.53,8.29,5.53,13.33l-12.68,0.01c0-1.65-0.64-3.2-1.81-4.36
			c-1.17-1.16-2.71-1.8-4.36-1.8c0,0,0,0,0,0c-3.4,0-6.17,2.77-6.17,6.18l0.01,12.51L162.84,229.46z"/>
	</g>
</g>
<g id="_x30_4">
	<g>
		<path class="st0" d="M104.89,229.49l-0.01-12.51c0-5.04,1.96-9.77,5.52-13.34s8.29-5.53,13.33-5.53c0,0,0.01,0,0.01,0
			c10.39,0,18.85,8.45,18.86,18.85l-12.68,0.01c0-3.4-2.77-6.17-6.17-6.17c0,0,0,0,0,0c-1.65,0-3.2,0.64-4.36,1.81
			c-1.17,1.17-1.81,2.72-1.81,4.37l0.01,12.52L104.89,229.49z"/>
	</g>
</g>
<g id="_x30_3">
	<g>
		<path class="st0" d="M46.95,229.52l-0.01-12.51c-0.01-10.4,8.45-18.86,18.85-18.87c0,0,0.01,0,0.01,0c5.03,0,9.76,1.96,13.33,5.52
			c3.56,3.56,5.53,8.29,5.53,13.33L71.97,217c0-1.65-0.64-3.2-1.81-4.36c-1.17-1.17-2.71-1.81-4.36-1.81c0,0,0,0,0,0
			c-3.4,0-6.17,2.77-6.17,6.18l0.01,12.51L46.95,229.52z"/>
	</g>
</g>
<g id="_x30_2">
	<rect x="17.32" y="198.78" class="st0" width="12.68" height="30.67"/>
</g>
<g id="_x30_1_1_">
	<g>
		<rect x="5.4" y="229.44" class="st0" width="379.68" height="12.68"/>
	</g>
</g>
</svg>
